<?xml version="1.0" encoding="utf-8"?>
<!-- Generator: Adobe Illustrator 22.1.0, SVG Export Plug-In . SVG Version: 6.00 Build 0)  -->
<svg version="1.1" id="Layer_1" xmlns="http://www.w3.org/2000/svg" xmlns:xlink="http://www.w3.org/1999/xlink" x="0px" y="0px"
	 width="180px" height="70px" viewBox="0 0 180 70" style="enable-background:new 0 0 180 70;" xml:space="preserve">
<style type="text/css">
	.st0{fill:none;}
	.st1{fill:#46a0c3;}
</style>
<rect class="st0" width="180" height="70"/>
<g>
	<path class="st1" d="M172.5,14.4c-1.5,2.9-2.4,6-3.6,9c-2,5-3.7,10.2-6.2,15c-1.6,3.2-3.7,5.9-7.2,7.3c-0.5,0.2-1.5,1.2-1.8-0.2
		c-0.2-1-1.7-2.3,0.4-3.1c1.4-0.5,2.5-1.5,3.4-2.6c2-2.2,3-4.4,1.5-7.6c-2.5-5.4-4.5-11.1-6.8-16.7c-0.5-1.2-0.4-1.5,1-1.5
		c2.8,0,2.8,0,3.7,2.6c1.8,4.8,3.5,9.7,5.3,14.6c0.7-0.8,0.7-1.8,1-2.7c1.5-4.3,2.9-8.5,4.3-12.8c0.4-1.3,1-1.9,2.4-1.7
		c0.8,0.1,1.7,0,2.5,0C172.5,14.1,172.5,14.3,172.5,14.4z"/>
	<path class="st1" d="M41.4,36.6c-1.6,0-3.2-0.3-4.8-0.9c-0.8-0.3-1.2-0.7-0.9-1.7c0.4-1.3,0.7-2,2.3-1.1c1.4,0.8,3.1,1,4.7,0.7
		c1.5-0.2,2.8-0.9,3.1-2.6c0.3-1.6-0.3-2.8-1.8-3.6c-1.2-0.6-2.5-1.1-3.7-1.7c-3.4-1.6-4.8-3.9-4.2-6.7c0.6-3.1,3.1-5.1,6.6-5.3
		c1.8-0.1,3.6,0.1,5.3,0.8c1.7,0.7,0.4,1.7,0.3,2.5c-0.2,1.3-0.9,0.5-1.4,0.3c-1.1-0.5-2.3-0.7-3.5-0.7c-1.7,0-3,0.6-3.4,2.3
		c-0.4,1.7,0.5,2.7,1.9,3.5c1.7,0.9,3.6,1.4,5.2,2.5c4,2.8,3.6,8.7-0.8,10.8C44.8,36.4,43.1,36.6,41.4,36.6z"/>
	<path class="st1" d="M56,24.3c0-1.9-0.1-3.7,0-5.6c0.1-1.3-0.3-1.8-1.7-1.7c-1.6,0.1-2.3-1.1-1.7-2.6c0.3-0.7,1-0.4,1.4-0.4
		c1.7,0.3,2.1-0.5,2-2.1c0-0.8-0.6-1.9,0.9-2.4c3-1,3.1-1.1,3,2.1c-0.1,1.8,0.3,2.7,2.3,2.3c0.6-0.1,1.2,0.1,1.8,0
		c1.5-0.2,1.8,0.4,1.7,1.8c0,1-0.4,1.3-1.3,1.3c-1.4,0-3.3-0.7-4.2,0.3c-0.9,1-0.3,2.9-0.3,4.4c0,2.5-0.1,5.1,0,7.6
		c0.1,3.2,1,4,4.2,3.9c0.6,0,1.3-0.3,1.2,0.7c-0.1,0.8,0.8,1.9-0.7,2.4c-4.5,1.4-8.1-0.9-8.4-5.5c-0.2-2.2,0-4.3,0-6.5
		C56.1,24.3,56,24.3,56,24.3z"/>
	<path class="st1" d="M73.7,17.9c0.7-0.3,0.8-0.9,1-1.3c1-1.4,2.3-2.5,4-2.8c0.7-0.1,1.9-0.5,2.2,0.1c0.4,0.9,0.2,2.1,0.1,3.2
		c0,0.5-0.6,0.2-0.9,0.3c-3.7,0.3-5.8,2.4-5.9,6.2c-0.1,3.7-0.1,7.3,0,11c0,1.2-0.2,1.7-1.5,1.6c-2.5-0.1-2.5,0-2.5-2.6
		c-0.1-6.1,0.2-12.3-0.2-18.4c-0.1-0.9,0.2-1.4,1-1.1c0.8,0.3,2.3-0.9,2.5,1C73.7,15.9,73.7,16.9,73.7,17.9z"/>
	<path class="st1" d="M27.2,14.1c-0.1-0.2-0.3-0.2-0.3-0.3c-1.4-4.4-2.2-3.5,2.2-5.4c9-3.8,18.2-3.9,27.4-1c0.2,0.1,0.4,0.2,0.7,0.3
		c-1.2,0.7-2.3,0.7-3.5,0.4c-7.8-1.6-15.4-0.9-22.5,3C29.8,11.9,28.6,13,27.2,14.1z"/>
	<path class="st1" d="M32.3,34.2c-2.9-8.6-5.9-17.1-8.8-25.7c-1.1-3.3-1.1-3.2-4.5-3.3c-1.1,0-1.5,0.3-1.9,1.4
		c-1.1,3.5-2.3,6.9-3.5,10.4c-2.2,6.2-4.3,12.4-6.5,18.6c0,0.1,0,0.2,0,0.4c4.1,0.1,4.1,0.1,5.4-3.9c0.2-0.6,0.4-1.2,0.6-1.9
		c1.3-3.9,1.3-3.9,5.4-3.9c2.2,0,4.9-0.7,6.5,0.3c1.7,1.1,1.7,4,2.5,6.2c1.3,3.5,1.2,3.6,5.2,3.1C32.6,35.4,32.4,34.8,32.3,34.2z
		 M16.3,23.4c-0.7,0-1-0.2-0.7-0.9c1.5-4.4,3.1-8.7,4.4-13.2c1.2,4.7,3.2,9.3,4.6,14.1C21.6,23.3,19,23.3,16.3,23.4z"/>
	<path class="st1" d="M128.7,12.5c-0.5-3.6-2.8-5.9-6.3-6.8c-3.8-1.1-7.6-0.6-11.4-0.2c-1.1,0.1-1,0.9-1,1.7c0,4.6,0,9.1,0,13.7
		c0,4.4,0.1,8.8,0,13.2c0,1.7,0.4,2.1,2.1,2.1c1.6,0,2.1-0.4,2-2c-0.1-2.9,0-5.8-0.1-8.6c0-1.2,0.1-1.7,1.6-1.5
		c3.2,0.4,6.4-0.1,9.2-1.9C128.3,19.8,129.3,16.4,128.7,12.5z M120.1,20.5c-0.2,0-0.4,0-0.5,0.1c-5,1-5.6,0.6-5.6-4.4
		c0-0.5,0-1.1,0-1.6c0-1.6,0-3.2,0-4.9c0-0.9,0.3-1.4,1.2-1.4c1.6-0.1,3.2-0.2,4.8,0.2c3.3,0.8,4.9,2.6,4.9,5.7
		C124.9,17.4,123.2,19.7,120.1,20.5z"/>
	<path class="st1" d="M97.4,14c-7.8-2.3-14.6,3.3-14.3,11.6c0.2,5.2,2.8,9.1,7.1,10.4c6.7,2.1,14.5-1.8,14.4-11
		C104.7,19.6,102,15.4,97.4,14z M99.4,29.9c-1.1,2.3-3,3.7-5.8,3.6c-2.6-0.1-4.3-1.6-5.4-3.8c-0.7-1.5-1-3.1-1-4.4
		c0-2.2,0.4-4,1.4-5.7c2.5-4.2,8.2-4.2,10.6,0.1C101.1,23.1,101.1,26.5,99.4,29.9z"/>
	<path class="st1" d="M148.2,20.4c-0.1-2.3-1.2-4.5-3.4-5.6c-3.8-2-7.7-1.4-11.4,0.4c-1.3,0.6-0.1,1.6,0,2.3c0.2,1,0.8,0.3,1.2,0.1
		c1.8-0.8,3.7-1.2,5.6-1c2,0.2,3.3,1.2,3.9,3c0.6,1.9,0.3,2.3-1.7,2.5c-3.3,0.3-6.6,0.7-9.2,3.1c-2.1,2-2.6,4.6-1.7,7.3
		c0.9,2.6,2.9,3.8,5.6,4c3,0.3,5.3-0.9,7.4-3c0.5,0.6,0.3,1.1,0.4,1.7c0.4,1.6,1.5,1,2.5,1c0.6,0,1.2-0.1,1.1-1.1
		C148.5,30.2,148.5,25.3,148.2,20.4z M144.6,27.3c0,3.9-2,6.1-5.3,6.3c-1.8,0.1-3.2-0.5-3.9-2.3c-0.7-1.8-0.1-3.8,1.4-4.8
		c2.1-1.5,4.6-1.7,7-1.6C144.9,25,144.7,26.2,144.6,27.3z"/>
	<g>
		<path class="st1" d="M124.1,55.9c-1.1,0-2.3,0.1-2.4,1.6c-0.1,0.9,0.6,1.2,1.5,1.1c1.3-0.1,2-0.7,2-2
			C125.2,55.6,124.6,55.8,124.1,55.9z"/>
		<path class="st1" d="M148,60.4c-0.1-4.4,0-8.9,0-13.4c0-3.1-1.1-4.2-4.2-4.2c-11.3,0-22.6,0-33.9,0c-3.2,0-4.3,1.1-4.3,4.3
			c0,4.5,0,8.9,0,13.4c0,2,0.6,3.5,2.4,4.4c12.6,0,25.3,0,37.9,0C147.4,63.9,148,62.4,148,60.4z M118.3,49.7
			c-0.2,0.8-0.7,0.7-1.4,0.5c-1.6-0.5-3.1-0.5-4.2,1c-1,1.4-1.1,4.2-0.1,5.7c1,1.6,2.5,1.6,4.2,1.3c0.4-0.1,1.1-0.6,1.3,0.2
			c0.3,0.9-0.4,1.1-1.1,1.3c-4.1,1-7-1.2-7-5.6c0-4.4,3.2-6.9,7.3-5.6C117.8,48.8,118.6,48.8,118.3,49.7z M125.8,59.6
			c-0.6-1-0.8-0.5-1.4-0.2c-1.2,0.7-2.5,0.8-3.7-0.1c-0.9-0.6-1.1-1.6-0.8-2.6c0.4-1.5,1.5-1.9,2.9-2c0.4,0,0.8,0,1.3-0.1
			c0.5-0.1,1.2,0.2,1.2-0.7c0-0.8-0.4-1.3-1.2-1.3c-0.7-0.1-1.4,0-2.1,0.3c-0.5,0.2-0.8,0-1-0.5c-0.2-0.6,0.2-0.7,0.6-0.9
			c3-1.5,5.5,0,5.5,3.3c0,0.5,0,1,0,1.4c0,0.9,0,1.8,0,2.7C127.1,60.1,126.1,60.2,125.8,59.6z M134.6,51.8c0,0.5,0,0.9-0.7,1.1
			c-2.5,0.7-2.6,0.9-2.7,3.5c0,0.9,0,1.8,0,2.7c0,0.7-0.4,0.8-0.9,0.8c-0.5,0-1-0.1-1-0.7c0-2.4,0-4.8,0-7.2c0-0.4,0.2-0.6,0.6-0.7
			c1-0.1,0.9,0.8,1.2,1.3c0.7-0.6,1.4-1.4,2.4-1.4C134,51.2,134.6,51,134.6,51.8z M143.5,59c0,1.1-1,1.1-1.3,0.7
			c-0.6-1.1-1-0.4-1.6-0.1c-1.8,1-3.8,0.2-4.6-1.7c-0.3-0.7-0.4-1.5-0.4-2.3c0-3.9,2.5-5.4,6-3.6c0-1.1,0-2.2,0-3.2
			c0-0.6,0.1-1,0.9-1c0.7,0,1,0.3,1,1C143.5,52.2,143.5,55.6,143.5,59z"/>
		<path class="st1" d="M139.6,52.7c-1.3,0-2.1,1.1-2.1,3c0,1.8,0.7,2.8,2,2.8c1.5,0,2.2-0.9,2.2-2.9C141.7,53.7,141,52.7,139.6,52.7
			z"/>
	</g>
</g>
</svg>
