<?xml version="1.0" encoding="utf-8"?>
<!-- Generator: Adobe Illustrator 22.1.0, SVG Export Plug-In . SVG Version: 6.00 Build 0)  -->
<svg version="1.1" id="Layer_1" xmlns="http://www.w3.org/2000/svg" xmlns:xlink="http://www.w3.org/1999/xlink" x="0px" y="0px"
	 width="180px" height="70px" viewBox="0 0 180 70" style="enable-background:new 0 0 180 70;" xml:space="preserve">
<style type="text/css">
	.st0{fill:none;}
	.st1{fill:#7C9199;}
</style>
<rect y="0" class="st0" width="180" height="70"/>
<g>
	<g>
		<path class="st1" d="M48.2,22.5c2,0.7,3.5,1.6,4.4,2.8c0.9,1.2,1.4,2.7,1.4,4.5c0,1.5-0.4,2.9-1.2,4.2c-0.8,1.3-2,2.3-3.5,3.1
			c-0.9,0.5-1.9,0.8-2.9,1c-1.1,0.2-2.6,0.3-4.6,0.3h-2.3h-12c-1.2,0-2.1-0.2-2.6-0.7s-0.8-1.2-0.8-2.2c0-0.9,0.2-1.6,0.7-2
			c0.5-0.5,1.2-0.7,2.2-0.7h0.5V14H27c-1,0-1.7-0.2-2.2-0.7c-0.5-0.5-0.7-1.2-0.7-2.1c0-1,0.3-1.7,0.8-2.1c0.5-0.4,1.4-0.7,2.6-0.7
			h12.6c3.9,0,6.8,0.7,8.8,2.1s3,3.4,3,6.1c0,1.3-0.3,2.5-0.9,3.5S49.4,21.9,48.2,22.5z M34.2,13.8v6.4h3.7c2.2,0,3.8-0.2,4.8-0.7
			c0.9-0.5,1.4-1.3,1.4-2.5c0-1.1-0.4-1.9-1.2-2.4s-2.2-0.8-4-0.8H34.2z M34.2,25.3v7.7h4.1c2.9,0,5-0.3,6.1-0.9
			c1.2-0.6,1.8-1.6,1.8-3c0-1.4-0.6-2.4-1.7-3c-1.1-0.6-3.1-0.9-6-0.9H34.2z"/>
		<path class="st1" d="M86.5,32.9H87c1,0,1.7,0.2,2.2,0.7c0.5,0.5,0.8,1.1,0.8,2c0,1-0.3,1.7-0.8,2.2c-0.5,0.4-1.4,0.7-2.7,0.7h-8.3
			c-1.3,0-2.2-0.2-2.7-0.6c-0.5-0.4-0.8-1.2-0.8-2.2c0-1,0.3-1.7,0.8-2.1c0.5-0.4,1.4-0.6,2.7-0.6h1l-1.1-3H66.3l-1.2,3h1
			c1.2,0,2.1,0.2,2.7,0.6c0.5,0.4,0.8,1.1,0.8,2.1c0,1-0.3,1.7-0.8,2.2c-0.5,0.4-1.4,0.7-2.7,0.7H59c-1.3,0-2.2-0.2-2.7-0.7
			c-0.5-0.4-0.8-1.2-0.8-2.2c0-0.9,0.3-1.6,0.8-2c0.5-0.5,1.3-0.7,2.2-0.7H59L66.3,14h-2.2c-1.2,0-2.1-0.2-2.7-0.7
			c-0.5-0.4-0.8-1.1-0.8-2.1c0-1,0.3-1.7,0.8-2.2c0.5-0.4,1.4-0.7,2.7-0.7h10.3c1.6,0,2.8,0.8,3.4,2.4v0.1L86.5,32.9z M72.2,14
			l-4,10.7h8L72.2,14z"/>
		<path class="st1" d="M112.8,28V14h-1.5c-1.2,0-2.1-0.2-2.6-0.7c-0.5-0.4-0.8-1.1-0.8-2.1s0.3-1.7,0.8-2.1c0.5-0.4,1.4-0.7,2.6-0.7
			h7.8c1.2,0,2,0.2,2.6,0.7s0.8,1.2,0.8,2.1c0,0.9-0.3,1.6-0.8,2.1c-0.5,0.5-1.2,0.7-2.2,0.7h-0.5v23c0,0.8-0.1,1.3-0.3,1.5
			c-0.2,0.2-0.6,0.3-1.2,0.3h-2.7c-0.9,0-1.5-0.1-1.9-0.3s-0.7-0.5-0.9-0.9l-11.4-18.5v13.8h1.6c1.2,0,2,0.2,2.6,0.6
			c0.5,0.4,0.8,1.1,0.8,2.1c0,1-0.3,1.7-0.8,2.2c-0.5,0.4-1.4,0.7-2.5,0.7h-7.9c-1.2,0-2-0.2-2.6-0.7S91,36.6,91,35.6
			c0-0.9,0.2-1.6,0.7-2c0.5-0.5,1.2-0.7,2.2-0.7h0.4V14h-0.4c-0.9,0-1.7-0.2-2.2-0.7S91,12.1,91,11.2c0-1,0.3-1.7,0.8-2.1
			c0.5-0.4,1.4-0.7,2.6-0.7h4.5c1.1,0,1.8,0.1,2.2,0.4s0.8,0.8,1.3,1.6L112.8,28z"/>
		<path class="st1" d="M135.7,14v7.7l8.5-7.8c-1-0.1-1.6-0.4-2-0.7s-0.6-1-0.6-1.9c0-1,0.3-1.7,0.8-2.2s1.4-0.7,2.6-0.7h6.7
			c1.2,0,2.1,0.2,2.6,0.7s0.8,1.2,0.8,2.2c0,0.9-0.3,1.6-0.8,2.1c-0.5,0.5-1.3,0.7-2.3,0.7h-0.6l-8,7.3c1.5,1,2.8,2.3,4.1,4
			c1.2,1.6,2.7,4.2,4.3,7.6h0.4h0.5c1.1,0,1.9,0.2,2.4,0.7c0.5,0.5,0.8,1.1,0.8,2.1c0,1-0.3,1.7-0.8,2.2s-1.4,0.7-2.7,0.7h-3.4
			c-1.5,0-2.7-0.9-3.6-2.8c-0.2-0.3-0.3-0.6-0.4-0.8c-1.2-2.4-2.3-4.2-3.3-5.5s-2.2-2.5-3.5-3.5l-2.6,2.3v4.7h0.4
			c1,0,1.7,0.2,2.3,0.7c0.5,0.5,0.8,1.1,0.8,2c0,1-0.3,1.7-0.8,2.2c-0.5,0.4-1.4,0.7-2.7,0.7h-7.1c-1.3,0-2.2-0.2-2.7-0.6
			c-0.5-0.4-0.8-1.2-0.8-2.2c0-0.9,0.3-1.6,0.8-2c0.5-0.5,1.3-0.7,2.2-0.7h0.5V14h-0.5c-1,0-1.7-0.2-2.2-0.7
			c-0.5-0.5-0.8-1.2-0.8-2.1c0-1,0.3-1.7,0.8-2.2s1.4-0.7,2.6-0.7h7.1c1.2,0,2.1,0.2,2.7,0.7s0.8,1.2,0.8,2.2c0,0.9-0.3,1.6-0.8,2.1
			c-0.5,0.5-1.3,0.7-2.3,0.7H135.7z"/>
	</g>
	<g>
		<path class="st1" d="M37,49.2h-2.8v9.3h2.3c0.6,0,1,0.1,1.3,0.3c0.3,0.2,0.4,0.6,0.4,1c0,0.5-0.1,0.8-0.4,1.1
			c-0.3,0.2-0.7,0.3-1.3,0.3h-8c-0.6,0-1-0.1-1.3-0.3c-0.3-0.2-0.4-0.6-0.4-1.1s0.1-0.8,0.4-1.1c0.3-0.2,0.7-0.3,1.3-0.3h2.3v-9.3
			h-2.8l-0.1,2.5v0.3c0,0.4-0.1,0.7-0.4,0.9c-0.2,0.2-0.6,0.3-1,0.3c-0.5,0-0.9-0.1-1.1-0.4c-0.2-0.2-0.4-0.6-0.4-1.1v-0.1l0.1-3.7
			c0-0.7,0.1-1.2,0.3-1.3c0.2-0.1,0.6-0.2,1.2-0.2h11.6c0.6,0,1,0.1,1.2,0.2c0.2,0.1,0.3,0.6,0.3,1.3l0.1,3.7v0.1
			c0,0.5-0.1,0.9-0.3,1.1c-0.2,0.2-0.6,0.3-1.1,0.3c-0.5,0-0.8-0.1-1-0.3c-0.2-0.2-0.3-0.6-0.3-1.2L37,49.2z"/>
		<path class="st1" d="M48.4,54.5v4h3.2c0.6,0,1,0.1,1.3,0.3s0.4,0.6,0.4,1c0,0.5-0.1,0.8-0.4,1.1c-0.3,0.2-0.7,0.3-1.3,0.3H44
			c-0.6,0-1.1-0.1-1.3-0.3c-0.3-0.2-0.4-0.6-0.4-1.1c0-0.5,0.1-0.8,0.4-1c0.3-0.2,0.7-0.3,1.3-0.3h1v-6.1h-0.6
			c-0.6,0-1.1-0.1-1.3-0.3c-0.3-0.2-0.4-0.6-0.4-1.1c0-0.5,0.1-0.8,0.4-1c0.2-0.2,0.7-0.3,1.3-0.3h2.9c0.2,0,0.4,0,0.6,0.1
			s0.2,0.2,0.2,0.4v1.8c1-1,1.9-1.7,2.7-2.1c0.8-0.4,1.8-0.6,2.7-0.6c0.9,0,1.6,0.2,2.1,0.6c0.5,0.4,0.8,0.9,0.8,1.5
			c0,0.5-0.2,0.9-0.5,1.2c-0.4,0.3-0.8,0.5-1.4,0.5c-0.4,0-0.9-0.1-1.4-0.4c-0.6-0.3-0.9-0.4-1.2-0.4c-0.4,0-0.9,0.2-1.5,0.5
			C49.9,53.2,49.2,53.8,48.4,54.5z"/>
		<path class="st1" d="M71,58.5h0.2c0.5,0,0.9,0.1,1.1,0.4c0.3,0.2,0.4,0.6,0.4,1c0,0.5-0.1,0.8-0.4,1c-0.3,0.2-0.7,0.3-1.3,0.3
			h-1.3c-0.4,0-0.8-0.1-1-0.2c-0.2-0.2-0.4-0.4-0.5-0.9c-0.7,0.5-1.5,0.8-2.4,1c-0.8,0.2-1.7,0.4-2.5,0.4c-1.4,0-2.6-0.3-3.4-1
			c-0.8-0.7-1.2-1.6-1.2-2.7c0-1.2,0.5-2.2,1.6-2.9c1.1-0.7,2.6-1,4.5-1c0.4,0,0.9,0,1.4,0.1s1,0.1,1.6,0.2v-0.2
			c0-0.7-0.2-1.3-0.6-1.7c-0.4-0.4-1-0.6-1.7-0.6c-0.6,0-1.4,0.2-2.3,0.6s-1.6,0.6-2,0.6c-0.4,0-0.8-0.1-1-0.3
			c-0.3-0.2-0.4-0.5-0.4-0.9c0-0.7,0.5-1.2,1.6-1.6c1.1-0.4,2.5-0.6,4.3-0.6c1.9,0,3.3,0.3,4.1,1s1.2,1.8,1.2,3.5V58.5z M67.8,56.1
			c-0.4-0.1-0.9-0.2-1.2-0.2s-0.7-0.1-1.1-0.1c-1,0-1.8,0.2-2.3,0.5c-0.6,0.3-0.8,0.7-0.8,1.3c0,0.5,0.2,0.8,0.5,1.1
			c0.4,0.3,0.9,0.4,1.6,0.4c0.6,0,1.2-0.1,1.8-0.2c0.5-0.2,1.1-0.4,1.6-0.8V56.1z"/>
		<path class="st1" d="M87.8,58.5H88c0.5,0,0.9,0.1,1.1,0.3c0.3,0.2,0.4,0.6,0.4,1c0,0.5-0.1,0.8-0.4,1.1c-0.3,0.2-0.7,0.3-1.3,0.3
			h-3.3c-0.6,0-1-0.1-1.3-0.3c-0.3-0.2-0.4-0.6-0.4-1.1c0-0.5,0.1-0.8,0.4-1c0.3-0.2,0.6-0.3,1.2-0.3h0.2v-3.6c0-1-0.2-1.7-0.5-2.1
			c-0.3-0.4-0.8-0.6-1.5-0.6c-0.7,0-1.4,0.3-1.8,0.8c-0.5,0.5-0.7,1.2-0.7,2v3.6h0.2c0.5,0,0.9,0.1,1.1,0.3c0.3,0.2,0.4,0.6,0.4,1
			c0,0.5-0.1,0.8-0.4,1.1c-0.3,0.2-0.7,0.3-1.3,0.3h-3.3c-0.6,0-1-0.1-1.3-0.3c-0.3-0.2-0.4-0.6-0.4-1.1c0-0.5,0.1-0.8,0.4-1
			c0.3-0.2,0.6-0.3,1.1-0.3h0.2v-6h-0.2c-0.5,0-0.9-0.1-1.1-0.3s-0.4-0.6-0.4-1c0-0.5,0.1-0.8,0.4-1.1c0.3-0.2,0.7-0.3,1.3-0.3h2.3
			c0.3,0,0.4,0,0.6,0.1c0.1,0.1,0.2,0.2,0.2,0.4v1c0.4-0.6,0.9-1,1.6-1.4c0.6-0.3,1.4-0.5,2.2-0.5c1.4,0,2.5,0.4,3.2,1.2
			c0.7,0.8,1.1,2,1.1,3.7V58.5z"/>
		<path class="st1" d="M95.1,61.1c-0.2,0.2-0.5,0.3-0.7,0.4s-0.5,0.1-0.8,0.1c-0.4,0-0.7-0.1-0.8-0.3c-0.2-0.2-0.2-0.5-0.2-1.1v-1.7
			c0-0.5,0.1-0.9,0.3-1.2c0.2-0.2,0.5-0.3,1-0.3c0.5,0,1,0.2,1.3,0.7c0.2,0.3,0.4,0.4,0.5,0.6c0.4,0.4,1,0.6,1.5,0.8s1.2,0.3,2,0.3
			c0.6,0,1.2-0.1,1.6-0.3c0.4-0.2,0.6-0.5,0.6-0.9c0-0.7-1-1.1-3.1-1.4c-0.5,0-0.8-0.1-1.1-0.1c-1.6-0.2-2.7-0.6-3.5-1.2
			c-0.8-0.6-1.1-1.4-1.1-2.4c0-1.2,0.5-2.1,1.4-2.7c0.9-0.6,2.2-1,3.9-1c0.6,0,1.2,0,1.8,0.1c0.6,0.1,1.2,0.2,1.9,0.4
			c0.2-0.2,0.4-0.4,0.6-0.5c0.2-0.1,0.4-0.1,0.7-0.1c0.4,0,0.6,0.1,0.8,0.3c0.2,0.2,0.3,0.5,0.3,1v1.5c0,0.4-0.1,0.6-0.3,0.8
			c-0.2,0.2-0.5,0.3-0.8,0.3c-0.4,0-1-0.3-1.9-0.9c-0.9-0.6-1.8-0.9-2.7-0.9c-0.7,0-1.2,0.1-1.6,0.3c-0.4,0.2-0.6,0.5-0.6,0.9
			c0,0.6,0.8,1,2.4,1.2c0.5,0,0.8,0.1,1.1,0.1c2,0.3,3.4,0.7,4.2,1.2c0.8,0.5,1.1,1.4,1.1,2.4c0,1.3-0.5,2.2-1.5,2.9
			c-1,0.7-2.4,1-4.3,1c-0.7,0-1.4,0-2.1-0.1S95.8,61.3,95.1,61.1z"/>
		<path class="st1" d="M116.1,50.1h2.9c0.6,0,1.1,0.1,1.3,0.3c0.3,0.2,0.4,0.6,0.4,1c0,0.5-0.1,0.8-0.4,1s-0.7,0.3-1.3,0.3h-2.9v5.7
			h2.7c0.6,0,1.1,0.1,1.3,0.3c0.3,0.2,0.4,0.6,0.4,1c0,0.5-0.1,0.8-0.4,1.1c-0.3,0.2-0.7,0.3-1.3,0.3h-7.4c-0.6,0-1.1-0.1-1.3-0.3
			c-0.3-0.2-0.4-0.6-0.4-1.1c0-0.5,0.1-0.8,0.4-1s0.7-0.3,1.3-0.3h1.4v-5.7h-1.4c-0.6,0-1.1-0.1-1.3-0.3s-0.4-0.6-0.4-1
			c0-0.5,0.1-0.8,0.4-1c0.3-0.2,0.7-0.3,1.3-0.3h1.4v-0.7c0-1.6,0.5-2.8,1.4-3.5s2.5-1,4.6-1c1.1,0,2,0.1,2.5,0.4
			c0.5,0.2,0.8,0.6,0.8,1.2c0,0.3-0.1,0.6-0.4,0.8c-0.2,0.2-0.6,0.3-1,0.3c-0.3,0-0.7,0-1.3-0.1c-0.5-0.1-0.9-0.1-1.1-0.1
			c-0.8,0-1.4,0.2-1.8,0.5c-0.3,0.3-0.5,1-0.5,1.8V50.1z"/>
		<path class="st1" d="M128.2,56.3c0.2,0.9,0.7,1.6,1.4,2.1c0.7,0.5,1.6,0.7,2.7,0.7c1.1,0,2.2-0.3,3.3-0.8c1.1-0.5,1.7-0.8,2-0.8
			c0.3,0,0.6,0.1,0.8,0.3c0.2,0.2,0.3,0.5,0.3,0.9c0,0.8-0.6,1.5-1.9,2c-1.2,0.6-2.8,0.8-4.6,0.8c-2.2,0-3.9-0.6-5.3-1.7
			s-2-2.6-2-4.4c0-1.8,0.7-3.2,2-4.4c1.4-1.1,3.1-1.7,5.3-1.7c1.9,0,3.6,0.5,4.8,1.6s1.9,2.4,1.9,3.9c0,0.5-0.1,0.8-0.4,1
			s-0.8,0.3-1.6,0.3H128.2z M135.4,54.3c-0.2-0.8-0.5-1.4-1.2-1.8c-0.6-0.4-1.5-0.6-2.5-0.6c-1,0-1.8,0.2-2.4,0.6
			c-0.6,0.4-1,1-1.2,1.8H135.4z"/>
		<path class="st1" d="M147.8,54.5v4h3.2c0.6,0,1,0.1,1.3,0.3s0.4,0.6,0.4,1c0,0.5-0.1,0.8-0.4,1.1c-0.3,0.2-0.7,0.3-1.3,0.3h-7.5
			c-0.6,0-1.1-0.1-1.3-0.3c-0.3-0.2-0.4-0.6-0.4-1.1c0-0.5,0.1-0.8,0.4-1c0.3-0.2,0.7-0.3,1.3-0.3h1v-6.1h-0.6
			c-0.6,0-1.1-0.1-1.3-0.3c-0.3-0.2-0.4-0.6-0.4-1.1c0-0.5,0.1-0.8,0.4-1c0.2-0.2,0.7-0.3,1.3-0.3h2.9c0.2,0,0.4,0,0.6,0.1
			s0.2,0.2,0.2,0.4v1.8c1-1,1.9-1.7,2.7-2.1c0.8-0.4,1.8-0.6,2.7-0.6c0.9,0,1.6,0.2,2.1,0.6c0.5,0.4,0.8,0.9,0.8,1.5
			c0,0.5-0.2,0.9-0.5,1.2c-0.4,0.3-0.8,0.5-1.4,0.5c-0.4,0-0.9-0.1-1.4-0.4c-0.6-0.3-0.9-0.4-1.2-0.4c-0.4,0-0.9,0.2-1.5,0.5
			C149.3,53.2,148.6,53.8,147.8,54.5z"/>
	</g>
</g>
</svg>
