<?xml version="1.0" encoding="utf-8"?>
<!-- Generator: Adobe Illustrator 22.1.0, SVG Export Plug-In . SVG Version: 6.00 Build 0)  -->
<svg version="1.1" id="Layer_1" xmlns="http://www.w3.org/2000/svg" xmlns:xlink="http://www.w3.org/1999/xlink" x="0px" y="0px"
	 width="180px" height="70px" viewBox="0 0 180 70" style="enable-background:new 0 0 180 70;" xml:space="preserve">
<style type="text/css">
	.st0{fill:none;}
	.st1{fill:#7C9199;}
</style>
<rect class="st0" width="180" height="70"/>
<g id="Layer_1_1_">
	<g>
		<g>
			<path class="st1" d="M49.2,52.8c-0.8-0.1-1.6-0.2-2.4-0.3c-1.9-0.3-3.7-0.7-5.4-1.5c0.2-1,0.5-2,0.7-3c2.3-9.7,4.6-19.5,6.9-29.2
				c0.1-0.3,0.2-0.4,0.6-0.5c1.9-0.3,3.9-0.6,5.8-0.9c0.2,0,0.4,0,0.6-0.1c-0.9,3.9-1.8,7.7-2.8,11.5c0.5-0.2,1-0.4,1.5-0.5
				c4.3-1.1,9,0.6,10.3,6.1c1.6,7.2-2.3,15.1-9.8,17.6c-1.1,0.4-2.3,0.5-3.4,0.7c-0.1,0-0.3,0.1-0.4,0.1
				C50.7,52.8,49.9,52.8,49.2,52.8z M48.9,47.1c0.1,0,0.2,0.1,0.3,0.1c2.2,0.3,4.3,0.2,6-1.3c3-2.6,4.1-5.9,3.3-9.8
				c-0.2-1-0.7-2-1.8-2.3c-1.6-0.4-3.1-0.2-4.5,0.8c-0.2,0.1-0.3,0.3-0.3,0.5c-0.3,1-0.5,2-0.7,2.9C50.4,41,49.6,44,48.9,47.1z"/>
			<path class="st1" d="M125.3,52.8c-0.7-0.1-1.3-0.2-2-0.3c-3.5-0.8-5.7-3.1-6.3-6.6c-1-6,0.6-11.2,5.4-15.2
				c3.3-2.8,7.2-3.4,11.2-2.1c3,0.9,4.8,3.2,5.3,6.2c1,5.8-0.4,11-4.8,15.1c-1.9,1.8-4.3,2.8-7,3c-0.1,0-0.2,0.1-0.4,0.1
				C126.3,52.8,125.8,52.8,125.3,52.8z M123.3,42.4c0,1.1,0.1,2.1,0.5,3.1c0.3,0.8,0.9,1.3,1.8,1.5c1.4,0.3,2.6,0.1,3.7-0.8
				c0.9-0.7,1.6-1.6,2.1-2.6c0.9-1.8,1.3-3.7,1.3-5.8c0-1-0.2-1.9-0.6-2.8c-0.4-0.8-0.9-1.3-1.8-1.4c-0.7-0.1-1.4-0.1-2.1,0
				c-1.5,0.3-2.4,1.4-3.2,2.6C123.8,38.2,123.4,40.2,123.3,42.4z"/>
			<path class="st1" d="M106,52.8c-0.8-0.1-1.5-0.2-2.3-0.4c-3.8-0.8-6.4-3.6-7-7.5c-0.6-4.1,0.2-8,2.6-11.4
				c2.3-3.3,5.6-5.1,9.6-5.5c2.7-0.3,5.3,0,7.8,1.1c0.1,0,0.2,0.1,0.2,0.1s0,0,0.1,0.1c-0.7,1.7-1.5,3.4-2.2,5.1
				c-0.9-0.3-1.7-0.6-2.6-0.7c-4.8-0.8-7.9,1.8-8.7,6c-0.3,1.6-0.3,3.1,0.1,4.7c0.5,1.7,1.7,2.6,3.5,2.7c1.8,0.1,3.4-0.1,5.1-0.7
				c0.1,0,0.2-0.1,0.3-0.1c0,0,0,0,0.1,0c0.1,0.8,0.2,1.7,0.3,2.6c0.1,0.8,0.1,1.6,0.2,2.3c0,0.3-0.1,0.4-0.3,0.5
				c-1.5,0.5-3.1,1-4.7,1.1c-0.1,0-0.2,0.1-0.4,0.1C107.2,52.8,106.6,52.8,106,52.8z"/>
			<path class="st1" d="M164.8,52.1c0.2-1,0.5-1.9,0.7-2.9c0.8-3.5,1.7-7,2.5-10.5c0.2-1,0.4-2.1,0.2-3.1c-0.2-1.1-0.9-1.9-2-2
				s-2.2,0.1-3.3,0.2c-0.1,0-0.3,0.2-0.3,0.4c-0.4,1.7-0.8,3.4-1.2,5.1c-1,4.1-2,8.3-3,12.4c-0.1,0.2-0.1,0.4-0.4,0.4
				c-2,0-4.1,0-6.1,0c-0.1,0-0.1,0-0.2,0c0.2-0.9,0.4-1.8,0.6-2.6c1.6-6.4,3.1-12.9,4.6-19.3c0.1-0.4,0.3-0.6,0.7-0.7
				c3.2-1.1,6.4-1.5,9.7-1.4c1.7,0.1,3.4,0.4,4.8,1.4c1.6,1.1,2.4,2.6,2.7,4.5c0.3,2,0,3.9-0.4,5.9c-1,4-1.9,8-2.9,11.9
				c-0.1,0.4-0.2,0.5-0.6,0.5c-1.9,0-3.8,0-5.7,0C165.2,52.1,165,52.1,164.8,52.1z"/>
			<path class="st1" d="M91,21.7c-0.6,2.3-1.1,4.6-1.7,6.9c2.5,0,4.9,0,7.4,0c-0.2,0.7-0.3,1.3-0.5,1.9c-0.3,1.1-0.5,2.1-0.8,3.2
				c0.1,0.2-0.1,0.3-0.4,0.3c-2.2,0-4.4,0-6.6,0c-0.4,0-0.5,0.1-0.6,0.4c-0.7,2.9-1.4,5.8-2.1,8.8c-0.1,0.5-0.1,1-0.1,1.4
				c0,1.5,0.9,2.4,2.4,2.5c1.6,0.1,3.1-0.1,4.5-0.6c0.1,0,0.2-0.1,0.4-0.1c0.2,1.7,0.3,3.4,0.5,5.1c-1.3,0.3-2.6,0.7-3.9,0.9
				c-2,0.3-3.9,0.3-5.9-0.1c-2.8-0.6-4.6-2.7-4.7-5.6c-0.1-2.1,0.3-4.1,0.8-6.2c1.4-5.8,2.8-11.7,4.1-17.5c0.1-0.3,0.2-0.4,0.5-0.5
				c2-0.3,4.1-0.6,6.1-0.9C90.7,21.6,90.8,21.7,91,21.7z"/>
			<path class="st1" d="M140,52.1c0.8-3.4,1.6-6.6,2.4-9.9c1-4.4,2.1-8.7,3.1-13.1c0.1-0.4,0.3-0.6,0.7-0.6c1.9,0,3.7,0,5.6,0
				c0.2,0,0.3,0,0.5,0c-0.4,1.5-0.7,3-1.1,4.4c-1.5,6.2-3,12.5-4.5,18.7c-0.1,0.4-0.2,0.5-0.6,0.5c-1.9,0-3.7,0-5.6,0
				C140.3,52.1,140.2,52.1,140,52.1z"/>
			<path class="st1" d="M78.2,28.6c-0.3,1.3-0.6,2.5-0.9,3.7c-1.6,6.5-3.1,12.9-4.6,19.4c-0.1,0.4-0.2,0.5-0.6,0.5
				c-1.9,0-3.8,0-5.7,0c-0.1,0-0.3,0-0.5,0c0.3-1.1,0.5-2.3,0.8-3.4c1.6-6.5,3.1-13.1,4.6-19.6c0.1-0.5,0.3-0.6,0.8-0.6
				c1.8,0,3.7,0,5.5,0C77.9,28.6,78,28.6,78.2,28.6z"/>
			<path class="st1" d="M150.8,17.7c0.5,0.1,1,0.2,1.4,0.3c1.7,0.6,2.4,2,2.1,3.9c-0.5,2.5-3.2,4.2-5.6,3.5c-2-0.5-2.9-2.2-2.4-4.2
				C146.9,19.2,148.7,17.8,150.8,17.7z"/>
			<path class="st1" d="M75.8,25.7c-0.4-0.1-0.9-0.1-1.3-0.3c-1.8-0.6-2.6-2.1-2.2-4c0.5-2.6,3.3-4.2,5.8-3.4
				c1.6,0.5,2.5,1.9,2.3,3.6C80.1,23.9,78.2,25.6,75.8,25.7z"/>
		</g>
		<g>
			<path class="st1" d="M21.8,17.2c0.6,0,1.2,0,1.8,0h0.1c1.2,0.1,2.4,0.3,3.6,0.6c2.9,0.8,5.4,2.2,7.6,4.3
				c3.2,3.1,5.1,6.9,5.5,11.4c0,0.2,0,0.4,0.1,0.6c0,0.6,0,1.2,0,1.8c-0.1,0,0,0.1,0,0.1c-0.1,1-0.2,1.9-0.4,2.8c-0.7,3-2,5.7-4.1,8
				c-2.4,2.7-5.4,4.5-8.8,5.4c-2.1,0.6-4.3,0.7-6.5,0.4c-1.9-0.2-3.8-0.8-5.5-1.6c-2.4-1.2-4.5-2.8-6.2-5c-2.2-2.8-3.5-6-3.8-9.6
				c0-0.1,0-0.3-0.1-0.4c0-0.6,0-1.3,0-1.9V34c0-0.8,0.1-1.6,0.3-2.3c0.7-3.4,2.2-6.4,4.6-8.9c3.1-3.2,6.9-5.1,11.4-5.5
				C21.5,17.2,21.6,17.3,21.8,17.2z M28.1,35.3c0.5-0.1,0.9-0.3,1.3-0.6c1-0.9,1.3-2.1,1.2-3.4c-0.1-0.9-0.7-1.5-1.3-2
				c-0.7-0.5-1.5-0.9-2.4-1.2c-0.1-0.1-0.2-0.1-0.1-0.3c0.2-1,0.5-1.9,0.7-2.9c0-0.1,0-0.2-0.1-0.2c-0.5-0.1-1.1-0.3-1.6-0.4
				c-0.1,0-0.2,0-0.2,0.1c-0.2,0.9-0.5,1.8-0.7,2.8c0,0.2-0.1,0.2-0.3,0.2c-0.4-0.1-0.8-0.2-1.2-0.3c-0.1,0-0.2-0.1-0.1-0.2
				c0.2-0.9,0.5-1.9,0.7-2.8c0-0.1,0-0.2-0.1-0.2c-0.5-0.1-1.1-0.3-1.6-0.4c-0.1,0-0.2,0-0.2,0.1c-0.2,1-0.5,1.9-0.7,2.9
				c0,0.1-0.1,0.2-0.2,0.1c-0.2-0.1-0.4-0.1-0.6-0.1c-1-0.3-2-0.5-3-0.8c-0.1,0-0.2,0-0.2,0.1c-0.1,0.5-0.3,1-0.4,1.5
				c-0.1,0.4-0.1,0.4,0.3,0.5s0.9,0.2,1.3,0.3c0.5,0.2,0.8,0.7,0.6,1.2c-0.7,2.8-1.4,5.7-2.1,8.5c-0.1,0.5-0.4,0.7-0.9,0.6
				c-0.4-0.1-0.8-0.2-1.2-0.3c-0.1,0-0.2,0-0.2,0.1c-0.3,0.6-0.6,1.3-0.8,1.9c-0.1,0.1,0,0.2,0.1,0.2c1.2,0.3,2.4,0.6,3.6,0.9
				c0.1,0,0.2,0.1,0.1,0.2c-0.2,1-0.5,1.9-0.7,2.9c0,0.1,0,0.2,0.1,0.2c0.5,0.1,1.1,0.3,1.6,0.4c0.1,0,0.2,0,0.2-0.1
				c0.2-1,0.5-1.9,0.7-2.9c0-0.1,0.1-0.2,0.2-0.1c0.4,0.1,0.8,0.2,1.2,0.3c0.2,0,0.2,0.1,0.1,0.2c-0.2,0.9-0.5,1.9-0.7,2.8
				c0,0.1,0,0.2,0.1,0.2c0.5,0.1,1.1,0.3,1.6,0.4c0.1,0,0.2,0,0.2-0.1c0.2-1,0.5-1.9,0.7-2.9c0-0.1,0.1-0.2,0.2-0.1
				c0.3,0.1,0.6,0.1,0.9,0.1c0.9,0.1,1.7,0.2,2.6,0s1.7-0.5,2.3-1.2c0.6-0.7,0.9-1.6,1.1-2.5c0.3-1.5-0.2-2.7-1.4-3.5
				C28.5,35.5,28.3,35.4,28.1,35.3z"/>
			<path class="st1" d="M23.7,40.1c-0.9,0-1.7-0.2-2.5-0.4c-0.3-0.1-0.6-0.2-0.9-0.2c-0.1,0-0.2-0.1-0.1-0.2c0.3-1.3,0.7-2.7,1-4
				c0-0.1,0-0.1,0.1-0.1c0.9,0.2,1.9,0.4,2.8,0.8c0.5,0.2,1,0.4,1.4,0.8c0.7,0.6,0.9,1.4,0.6,2.2c-0.3,0.7-0.8,1-1.4,1.1
				C24.3,40.1,24,40.1,23.7,40.1z"/>
			<path class="st1" d="M24.7,33.7c-1,0-2-0.3-2.9-0.5c-0.1,0-0.1-0.1-0.1-0.2c0.2-0.6,0.3-1.3,0.5-1.9c0.1-0.5,0.3-1.1,0.4-1.6
				c0-0.1,0-0.2,0.1-0.1c0.9,0.2,1.7,0.4,2.5,0.8c0.3,0.2,0.7,0.4,0.9,0.6c0.5,0.5,0.6,1.1,0.4,1.8s-0.7,1-1.4,1.2
				C25,33.7,24.8,33.7,24.7,33.7z"/>
		</g>
	</g>
</g>
</svg>
