<?xml version="1.0" encoding="utf-8"?>
<!-- Generator: Adobe Illustrator 22.1.0, SVG Export Plug-In . SVG Version: 6.00 Build 0)  -->
<svg version="1.1" id="Layer_1" xmlns="http://www.w3.org/2000/svg" xmlns:xlink="http://www.w3.org/1999/xlink" x="0px" y="0px"
	 width="180px" height="70px" viewBox="0 0 180 70" style="enable-background:new 0 0 180 70;" xml:space="preserve">
<style type="text/css">
	.st0{fill:none;}
	.st1{fill:#7C9199;}
</style>
<rect class="st0" width="180" height="70"/>
<g>
	<g id="wLcj9x.tif">
		<g>
			<path class="st1" d="M129,26.5c5.4,0,9.3,3.6,9.7,8.3c0.1,1.4,0.1,2.7-0.3,4c-1,3.7-4.4,6.8-8.9,6.7c-4.1-0.1-7.6-2.8-8.6-6.8
				c-0.9-3.6-0.2-6.8,2.4-9.5C125.1,27.5,127.2,26.6,129,26.5z M134.4,36c0-1.4-0.3-2.7-1.2-3.8c-1.8-2.2-4.9-2.3-6.8-0.1
				c-1.9,2.1-1.8,5.8,0.1,7.9c1.8,2,4.8,2,6.6,0C134,39,134.4,37.5,134.4,36z"/>
			<path class="st1" d="M74.9,36.2c-0.1,4.2-2.4,7.7-6.2,9c-4.9,1.7-10.3-1.1-11.6-6.2c-1-3.8-0.2-7.3,2.8-10
				c5-4.5,13.1-1.9,14.7,4.6C74.7,34.3,74.8,35.2,74.9,36.2z M70.5,36.5c0-1.8-0.4-3-1.2-4c-1.9-2.5-5.3-2.4-7.2,0.1
				c-0.9,1.3-1.2,2.8-1,4.3c0.1,1.4,0.7,2.6,1.7,3.5c1.7,1.6,4.3,1.6,6,0C70,39.2,70.5,37.8,70.5,36.5z"/>
			<path class="st1" d="M51.3,35.5c0.9,0.3,1.6,0.6,2.1,1.2c0.6,0.7,1,1.4,1.1,2.3c0.1,0.6,0.1,1.3,0,2c-0.2,1.3-0.9,2.3-2.1,3
				c-1.1,0.6-2.3,1-3.5,1.1c-1.4,0.1-2.8,0.1-4.3,0.1c-0.9,0-1.8,0-2.7,0c0-6,0-12,0-18c0.2,0,0.3-0.1,0.5-0.1c1.9,0,3.8,0,5.8,0
				c1,0,2,0.2,3,0.5c2.5,0.9,3.1,2.9,2.7,5c-0.2,1-0.8,1.7-1.6,2.2C52.1,35.2,51.7,35.2,51.3,35.5z M45.7,42c1,0,2,0.1,2.9-0.1
				c0.5-0.1,0.9-0.4,1.3-0.7c0.7-0.6,0.8-1.5,0.7-2.4c-0.1-0.8-0.7-1.3-1.4-1.5c-1.2-0.2-2.3,0-3.5,0C45.7,38.8,45.7,40.3,45.7,42z
				 M45.7,34c1,0,2-0.1,2.9-0.1c0.2,0,0.4-0.1,0.6-0.2c0.7-0.4,1.1-1.1,1-1.9c-0.1-0.7-0.6-1.3-1.4-1.4c-1-0.2-2.1-0.1-3.1-0.1
				C45.7,31.5,45.7,32.8,45.7,34z"/>
			<path class="st1" d="M90.9,27.1c3.7,0,7.4,0,11.1,0c0,1.2,0,2.4,0,3.6c-0.8,0.1-1.5,0-2.3,0c-0.7,0-1.5,0-2.2,0
				c-0.8,0-1.5,0-2.3,0c0,1.1,0,2.1,0,3.2c1.9,0,3.8,0,5.8,0c0,0.7,0,1.3,0,1.9c0,0.6,0,1.2,0,1.9c-1.9,0-3.9,0-5.8,0
				c0,1.2,0,2.4,0,3.7c2.3,0,4.5,0,6.8,0c0,1.3,0,2.5,0,3.7c-3.7,0-7.4,0-11.1,0C90.9,39.2,90.9,33.2,90.9,27.1z"/>
			<path class="st1" d="M119.5,27.1c0,1.2,0,2.4,0,3.6c-0.6,0.2-1.3,0.1-1.9,0.1c-0.7,0-1.3,0-2,0c-0.6,0-1.3,0-1.9,0
				c0,4.8,0,9.5,0,14.3c-1.4,0-2.8,0-4.3,0c0-1.6,0-3.2,0-4.7c0-1.6,0-3.2,0-4.8s0-3.2,0-4.8c-2,0-3.8,0-5.7,0
				c-0.2-0.5-0.2-2.7-0.1-3.6C104.1,27.1,118,27,119.5,27.1z"/>
			<path class="st1" d="M77.6,27.1c1.4,0,2.7,0,4.2,0c0,4.6,0,9.1,0,13.7c0.8,0.1,1.6,0,2.3,0c0.7,0,1.5,0,2.2,0c0.8,0,1.5,0,2.3,0
				c0,1.5,0,2.8,0,4.2c-3.7,0-7.3,0-11,0C77.5,44.8,77.5,28.2,77.6,27.1z"/>
			<path class="st1" d="M125.3,58c0-3.2,1.9-5.8,4.8-6.6c3.8-1,7.6,1.6,8,5.4c0.2,1.9,0,3.6-1.2,5.2c-1.6,2.1-3.8,3.1-6.4,2.5
				c-2.7-0.5-4.4-2.3-5.1-4.9C125.4,59.2,125.4,58.5,125.3,58z M135.1,58c0-1.2-0.4-2.2-1.1-3c-1.2-1.2-3.1-1.2-4.3,0
				c-1.6,1.6-1.6,4.6,0.1,6.1c1.2,1.1,3,1.1,4.1,0C134.8,60.2,135.1,59.2,135.1,58z"/>
			<path class="st1" d="M69.6,64.3c-0.9,0-1.7,0-2.5,0c-0.1-0.5-0.2-12-0.1-13.2c0.4-0.2,0.7,0.1,0.9,0.3c1.8,1.8,3.6,3.7,5.4,5.5
				c0.5,0.5,0.9,1,1.5,1.5c0.1-0.8,0.1-1.6,0.1-2.3c0-0.8,0-1.5,0-2.3c0-0.7,0-1.5,0-2.3c1.1,0,2.1,0,3.2,0c0,4.4,0,8.8,0,13.3
				c-0.7-0.5-1.2-1-1.8-1.5c-0.5-0.5-1.1-1-1.6-1.5c-0.6-0.5-1.1-1-1.7-1.5c-0.5-0.5-1.1-1-1.6-1.5c-0.6-0.5-1.1-1-1.8-1.6
				c0,0.9,0,1.6,0,2.3s0,1.5,0,2.2C69.6,62.8,69.6,63.5,69.6,64.3z"/>
			<path class="st1" d="M42.5,64.2c0-4.2,0-8.4,0-12.6c0.1,0,0.3-0.1,0.4-0.1c1.4,0,2.8,0,4.1,0c0.8,0,1.6,0.1,2.3,0.5
				c1.5,0.7,2.2,2.3,1.6,3.9c-0.2,0.5-0.6,0.9-1.1,1.3c-0.2,0.1-0.4,0.2-0.6,0.3c0.1,0.1,0.2,0.1,0.3,0.1c1.3,0.5,2,1.5,2,2.9
				s-0.6,2.5-2,3.1c-0.9,0.4-2,0.6-3,0.6c-1.2,0-2.5,0-3.7,0C42.8,64.3,42.7,64.2,42.5,64.2z M45.2,58.5c0,1.3,0,2.4,0,3.7
				c0.8,0,1.6,0.1,2.3-0.1c0.9-0.3,1.3-1,1.2-2c-0.1-0.8-0.7-1.5-1.5-1.6C46.5,58.5,45.9,58.5,45.2,58.5z M45.2,53.8
				c-0.1,0.7-0.1,2.6,0,3.1c0.5,0,0.9,0.1,1.4,0c0.4-0.1,0.9-0.3,1.2-0.5c0.5-0.4,0.6-0.9,0.5-1.5s-0.5-0.9-1-1
				C46.7,53.7,45.9,53.7,45.2,53.8z"/>
			<path class="st1" d="M117.6,64.3c-0.4,0-0.8,0-1.1,0c-0.6,0-1.3,0-1.9,0c-0.4,0-0.6-0.1-0.8-0.4c-0.9-1.3-1.9-2.6-2.8-3.9
				c-0.3-0.4-0.6-0.6-1.1-0.4c0,0.7,0,1.5,0,2.3s0,1.5,0,2.3c-0.9,0-1.7,0-2.6,0c0-4.2,0-8.4,0-12.6l0.1-0.1c1.8,0,3.5-0.1,5.3,0.1
				c0.6,0.1,1.2,0.3,1.7,0.7c2.1,1.4,2.1,4.4,0.1,5.9c-0.3,0.2-0.5,0.3-0.9,0.5C115,60.7,116.2,62.5,117.6,64.3z M110,57.3
				c1,0.1,1.8,0,2.3-0.2c1.3-0.5,1.2-2.4,0.5-2.9c-0.8-0.6-1.8-0.6-2.8-0.5C110,55,110,56.2,110,57.3z"/>
			<path class="st1" d="M91,55.5c-0.4-0.3-0.7-0.6-1-0.8c-0.9-0.6-1.9-0.9-3-0.7c-1.4,0.2-2.3,1-2.8,2.3c-0.4,1-0.4,2-0.1,2.9
				c0.5,1.8,2.3,2.8,4.2,2.5c0.9-0.2,1.7-0.5,2.4-1c0.2-0.1,0.4-0.2,0.6-0.4c0,0.4,0,0.8,0,1.2c0,0.5-0.1,1-0.1,1.4
				c0,0.5-0.2,0.8-0.7,1c-4.6,2.2-9.5-0.8-9.7-5.6c-0.1-2.4,0.7-4.4,2.6-5.9c2.1-1.6,5.2-1.7,7.4-0.4c0.3,0.2,0.4,0.3,0.4,0.7
				c-0.1,0.7-0.1,1.4-0.2,2.2C91.1,55.2,91,55.3,91,55.5z"/>
			<path class="st1" d="M52.4,64.3c2.2-4.5,4.3-8.9,6.4-13.2c0.1,0,0.1,0,0.2,0c0,0,0,0,0.1,0c2,4.3,4.1,8.5,6.1,12.8
				c0,0.1,0.1,0.2,0.1,0.4c-1.1,0-2.1,0-3.1,0c-0.3-0.7-0.5-1.3-0.8-2c-1.7,0-3.4,0-5.1,0c-0.3,0.7-0.5,1.4-0.8,2.1
				C54.5,64.3,53.5,64.3,52.4,64.3z M58.9,56.2c-0.4,0.5-1.5,3.3-1.6,3.7c1,0,2,0,3.1,0C59.9,58.8,59.4,57.5,58.9,56.2z"/>
			<path class="st1" d="M99.2,51c2.1,4.4,4.2,8.8,6.3,13.2c-0.2,0-0.3,0.1-0.5,0.1c-0.7,0-1.4,0-2.1,0c-0.4,0-0.6-0.1-0.7-0.5
				c-0.2-0.5-0.4-1.1-0.6-1.6c-1.7,0-3.4,0-5.1,0c-0.3,0.7-0.5,1.4-0.8,2c-1,0-2,0-3,0C94.9,59.8,97,55.5,99.2,51
				C99.1,51,99.2,51,99.2,51z M100.6,60c-0.5-1.3-1.1-2.5-1.6-3.9c-0.6,1.4-1.1,2.6-1.7,3.9C98.5,60,99.5,60,100.6,60z"/>
			<path class="st1" d="M119.6,51.7c0.9,0,1.7,0,2.6,0c0,4.2,0,8.4,0,12.7c-0.8,0-1.7,0-2.5,0C119.5,63.8,119.4,53,119.6,51.7z"/>
			<path class="st1" d="M101.4,47.5c-0.8,0.8-1.5,1.6-2.3,2.4c-0.2,0.2-0.4,0.2-1.2,0.1c0.6-0.8,1.1-1.6,1.6-2.4
				c0.1-0.1,0.2-0.2,0.3-0.2c0.5,0,1,0,1.5,0C101.4,47.3,101.4,47.5,101.4,47.5z"/>
		</g>
	</g>
	<path class="st1" d="M30.9,5.2c-0.1,5.1-0.1,58.6,0,59.1c1.5,0,3.1,0,4.6,0c0.1-0.7,0.1-54,0-59.1H30.9z"/>
	<path class="st1" d="M42.5,5.2c-0.1,2.5-0.1,16.6,0.1,17.1c1.7,0,3.4,0,5.2,0c0-16.9,0-0.7,0-17.1H42.5z"/>
	<path class="st1" d="M61.1,5.2c0,16.4,0,0.2,0,17.1c2.6,0,5.2,0,7.8,0c0-0.1,0.1-0.2,0.1-0.2c0-16.6,0,0.2,0-16.5
		c0-0.1,0-0.3,0-0.4C69,5.2,61.1,5.2,61.1,5.2z"/>
	<path class="st1" d="M77,5.2c0,16.4,0,0.2,0,17.1c1.1,0,2.1,0,3.1,0c0-0.1,0.1-0.2,0.1-0.2c0-16.7,0,0.1,0-16.5c0-0.1,0-0.2,0-0.3
		L77,5.2L77,5.2z"/>
	<path class="st1" d="M97.2,5.2c0,16.5,0-0.1,0,16.6c0,0.1,0,0.3,0,0.4c0,0,0,0,0,0.1c0,0,0,0,0.1,0.1c0.5,0,0.9,0,1.4,0s1,0,1.5,0
		c0-16.9,0-0.8,0-17.1h-3V5.2z"/>
	<path class="st1" d="M106.8,5.2c0,16.4,0,0.2,0,17.1c2.8,0,5.6,0,8.4,0c0-16.9,0-0.7,0-17.1H106.8z"/>
	<path class="st1" d="M133.3,5.2c-0.1,2.5-0.1,16.6,0.1,17.1c1.2,0,2.3,0,3.6,0c0-16.9,0-0.7,0-17.1H133.3z"/>
	<path class="st1" d="M145.1,5.2c-0.1,5.1-0.1,58.6,0,59c0.8,0.1,3.6,0.1,4.1-0.1c0-36.6,0-22.6,0-59L145.1,5.2L145.1,5.2z"/>
</g>
</svg>
