<?xml version="1.0" encoding="utf-8"?>
<!-- Generator: Adobe Illustrator 22.1.0, SVG Export Plug-In . SVG Version: 6.00 Build 0)  -->
<svg version="1.1" id="Layer_1" xmlns="http://www.w3.org/2000/svg" xmlns:xlink="http://www.w3.org/1999/xlink" x="0px" y="0px"
	 width="180px" height="70px" viewBox="0 0 180 70" style="enable-background:new 0 0 180 70;" xml:space="preserve">
<style type="text/css">
	.st0{fill:none;}
	.st1{fill:#46a0c3;}
</style>
<rect class="st0" width="180" height="70"/>
<g>
	<g>
		<path class="st1" d="M96.3,20c-0.3-0.5-0.7-0.8-1.4-0.8c-0.4,0-0.7,0.1-1,0.3c-0.2,0.2-0.4,0.5-0.6,1c-0.1,0.5-0.2,1.1-0.3,1.8
			S93,24.1,93,25.1c0,1.2,0,2.1,0.1,2.8c0.1,0.7,0.2,1.3,0.4,1.7c0.2,0.4,0.4,0.7,0.6,0.8s0.5,0.2,0.9,0.2c0.3,0,0.5,0,0.8-0.1
			c0.2-0.1,0.4-0.3,0.6-0.6s0.3-0.7,0.4-1.2c0.1-0.5,0.2-1.2,0.2-2h3.1c0,0.8-0.1,1.6-0.2,2.4c-0.1,0.7-0.4,1.4-0.7,2
			c-0.4,0.6-0.8,1-1.5,1.3c-0.6,0.3-1.5,0.5-2.5,0.5c-1.2,0-2.1-0.2-2.8-0.6c-0.7-0.4-1.2-0.9-1.6-1.6c-0.4-0.7-0.6-1.5-0.7-2.5
			c-0.1-1-0.2-2-0.2-3.2c0-1.2,0.1-2.2,0.2-3.2c0.1-1,0.3-1.8,0.7-2.5c0.4-0.7,0.9-1.2,1.6-1.6c0.7-0.4,1.6-0.6,2.8-0.6
			c1.1,0,2,0.2,2.6,0.5s1.1,0.8,1.4,1.4c0.3,0.6,0.5,1.1,0.6,1.8c0.1,0.6,0.1,1.2,0.1,1.8h-3.1C96.7,21.3,96.6,20.5,96.3,20z"/>
		<path class="st1" d="M102.7,24.3c0-0.7,0.1-1.2,0.3-1.7c0.2-0.5,0.5-0.8,0.9-1.1s0.8-0.5,1.3-0.6s1-0.2,1.6-0.2
			c0.9,0,1.6,0.1,2.1,0.3c0.5,0.2,1,0.4,1.3,0.7s0.5,0.7,0.6,1.1c0.1,0.4,0.2,0.9,0.2,1.4v6.1c0,0.5,0,1,0.1,1.3
			c0,0.3,0.1,0.6,0.3,1h-2.8c-0.1-0.2-0.2-0.4-0.2-0.6c0-0.2-0.1-0.4-0.1-0.6h0c-0.3,0.6-0.7,1-1.2,1.2s-1,0.3-1.8,0.3
			c-0.5,0-1-0.1-1.3-0.3s-0.6-0.4-0.9-0.7s-0.4-0.7-0.5-1.1c-0.1-0.4-0.2-0.8-0.2-1.2c0-0.5,0.1-1,0.2-1.4c0.1-0.4,0.3-0.7,0.5-1
			c0.2-0.3,0.5-0.5,0.9-0.7s0.8-0.4,1.3-0.5l1.7-0.5c0.4-0.1,0.8-0.3,0.9-0.5c0.2-0.2,0.3-0.5,0.3-0.9c0-0.4-0.1-0.8-0.3-1
			c-0.2-0.3-0.6-0.4-1.1-0.4c-0.5,0-0.8,0.1-1,0.4c-0.2,0.3-0.3,0.6-0.3,1.1v0.3h-2.7V24.3z M107.5,27.2c-0.2,0.1-0.4,0.2-0.6,0.2
			c-0.6,0.1-1,0.3-1.3,0.6c-0.3,0.3-0.4,0.7-0.4,1.2c0,0.4,0.1,0.8,0.3,1.1s0.5,0.5,0.9,0.5c0.2,0,0.4,0,0.6-0.1s0.4-0.2,0.6-0.3
			c0.2-0.1,0.3-0.3,0.4-0.6c0.1-0.2,0.2-0.5,0.2-0.8v-2.3C107.9,27,107.7,27.1,107.5,27.2z"/>
		<path class="st1" d="M117,21v1.5h0c0.3-0.6,0.7-1,1.1-1.3c0.4-0.3,1-0.5,1.6-0.5c0.1,0,0.2,0,0.3,0c0.1,0,0.2,0,0.3,0v2.8
			c-0.2,0-0.3,0-0.5,0c-0.2,0-0.3,0-0.5,0c-0.3,0-0.5,0-0.8,0.1c-0.3,0.1-0.5,0.2-0.7,0.4s-0.4,0.4-0.5,0.6c-0.1,0.3-0.2,0.6-0.2,1
			v6.9h-3V21H117z"/>
		<path class="st1" d="M125.9,17.7V21h1.7v2h-1.7v6.2c0,0.5,0.1,0.8,0.2,1c0.1,0.2,0.4,0.3,0.8,0.3c0.1,0,0.2,0,0.3,0
			c0.1,0,0.2,0,0.3,0v2.1c-0.3,0-0.6,0-1,0c-0.3,0-0.6,0-1,0c-0.6,0-1,0-1.4-0.1s-0.6-0.2-0.8-0.5c-0.2-0.2-0.3-0.5-0.4-0.9
			c-0.1-0.4-0.1-0.9-0.1-1.5v-6.6h-1.5v-2h1.5v-3.3H125.9z"/>
		<path class="st1" d="M129.7,24.3c0-0.7,0.1-1.2,0.3-1.7c0.2-0.5,0.5-0.8,0.9-1.1s0.8-0.5,1.3-0.6s1-0.2,1.6-0.2
			c0.9,0,1.6,0.1,2.1,0.3c0.5,0.2,1,0.4,1.3,0.7s0.5,0.7,0.6,1.1c0.1,0.4,0.2,0.9,0.2,1.4v6.1c0,0.5,0,1,0.1,1.3s0.1,0.6,0.3,1h-2.8
			c-0.1-0.2-0.2-0.4-0.2-0.6c-0.1-0.2-0.1-0.4-0.1-0.6h0c-0.3,0.6-0.7,1-1.2,1.2s-1,0.3-1.8,0.3c-0.5,0-1-0.1-1.3-0.3
			c-0.4-0.2-0.6-0.4-0.9-0.7s-0.4-0.7-0.5-1.1c-0.1-0.4-0.2-0.8-0.2-1.2c0-0.5,0.1-1,0.2-1.4c0.1-0.4,0.3-0.7,0.5-1
			c0.2-0.3,0.5-0.5,0.9-0.7s0.8-0.4,1.3-0.5l1.7-0.5c0.4-0.1,0.8-0.3,0.9-0.5c0.2-0.2,0.3-0.5,0.3-0.9c0-0.4-0.1-0.8-0.3-1
			s-0.6-0.4-1.1-0.4c-0.5,0-0.8,0.1-1,0.4s-0.3,0.6-0.3,1.1v0.3h-2.7V24.3z M134.5,27.2c-0.2,0.1-0.4,0.2-0.6,0.2
			c-0.6,0.1-1,0.3-1.3,0.6c-0.3,0.3-0.4,0.7-0.4,1.2c0,0.4,0.1,0.8,0.3,1.1s0.5,0.5,0.9,0.5c0.2,0,0.4,0,0.6-0.1s0.4-0.2,0.6-0.3
			c0.2-0.1,0.3-0.3,0.4-0.6c0.1-0.2,0.2-0.5,0.2-0.8v-2.3C135,27,134.7,27.1,134.5,27.2z"/>
		<path class="st1" d="M153.3,31.4c-0.3,0.5-0.7,0.9-1.1,1.1s-0.9,0.3-1.5,0.3c-1.2,0-2.1-0.5-2.7-1.4c-0.6-0.9-0.9-2.5-0.9-4.6
			c0-2.1,0.3-3.7,0.9-4.6c0.6-1,1.5-1.4,2.7-1.4c0.6,0,1,0.1,1.4,0.3c0.4,0.2,0.7,0.6,1.1,1h0v-4.9h3v15.3h-2.8L153.3,31.4
			L153.3,31.4z M150.4,29.7c0.2,0.6,0.6,1,1.3,1c0.7,0,1.1-0.3,1.3-1c0.2-0.6,0.3-1.6,0.3-2.8s-0.1-2.2-0.3-2.8
			c-0.2-0.6-0.6-1-1.3-1c-0.6,0-1.1,0.3-1.3,1c-0.2,0.6-0.3,1.6-0.3,2.8S150.2,29,150.4,29.7z"/>
		<path class="st1" d="M162.3,17.1v2.5h-3v-2.5H162.3z M162.3,21v11.6h-3V21H162.3z"/>
		<path class="st1" d="M96.3,41.4c-0.3-0.5-0.7-0.8-1.4-0.8c-0.4,0-0.7,0.1-1,0.3c-0.2,0.2-0.4,0.5-0.6,1c-0.1,0.5-0.2,1.1-0.3,1.8
			S93,45.4,93,46.5c0,1.2,0,2.1,0.1,2.8c0.1,0.7,0.2,1.3,0.4,1.7c0.2,0.4,0.4,0.7,0.6,0.8c0.2,0.1,0.5,0.2,0.9,0.2
			c0.3,0,0.5,0,0.8-0.1c0.2-0.1,0.4-0.3,0.6-0.6c0.2-0.3,0.3-0.7,0.4-1.2c0.1-0.5,0.2-1.2,0.2-2h3.1c0,0.8-0.1,1.6-0.2,2.4
			s-0.4,1.4-0.7,2c-0.4,0.6-0.8,1-1.5,1.3s-1.5,0.5-2.5,0.5c-1.2,0-2.1-0.2-2.8-0.6c-0.7-0.4-1.2-0.9-1.6-1.6
			c-0.4-0.7-0.6-1.5-0.7-2.5c-0.1-1-0.2-2-0.2-3.2c0-1.2,0.1-2.2,0.2-3.2c0.1-1,0.3-1.8,0.7-2.5c0.4-0.7,0.9-1.2,1.6-1.6
			c0.7-0.4,1.6-0.6,2.8-0.6c1.1,0,2,0.2,2.6,0.5s1.1,0.8,1.4,1.4s0.5,1.1,0.6,1.8c0.1,0.6,0.1,1.2,0.1,1.8h-3.1
			C96.7,42.7,96.6,41.9,96.3,41.4z"/>
		<path class="st1" d="M105.6,42.4V44h0c0.3-0.6,0.7-1,1.1-1.3c0.4-0.3,1-0.5,1.6-0.5c0.1,0,0.2,0,0.3,0c0.1,0,0.2,0,0.3,0V45
			c-0.2,0-0.3,0-0.5,0c-0.2,0-0.3,0-0.5,0c-0.3,0-0.5,0-0.8,0.1c-0.3,0.1-0.5,0.2-0.7,0.4c-0.2,0.2-0.4,0.4-0.5,0.6s-0.2,0.6-0.2,1
			V54h-3V42.4H105.6z"/>
		<path class="st1" d="M113.5,49.6c0,0.3,0,0.7,0.1,1c0,0.3,0.1,0.6,0.2,0.9c0.1,0.3,0.3,0.5,0.5,0.6s0.4,0.2,0.7,0.2
			c0.5,0,0.9-0.2,1.1-0.5c0.2-0.4,0.4-0.9,0.5-1.6h2.7c-0.1,1.3-0.4,2.4-1.1,3.1c-0.7,0.7-1.7,1.1-3.1,1.1c-1.1,0-1.9-0.2-2.5-0.5
			c-0.6-0.4-1-0.8-1.3-1.4c-0.3-0.6-0.5-1.2-0.5-2c-0.1-0.7-0.1-1.5-0.1-2.2c0-0.8,0.1-1.5,0.2-2.2s0.3-1.4,0.6-1.9s0.8-1,1.4-1.3
			c0.6-0.3,1.4-0.5,2.4-0.5c0.9,0,1.6,0.1,2.1,0.4c0.6,0.3,1,0.7,1.3,1.2c0.3,0.5,0.5,1.1,0.6,1.8c0.1,0.7,0.2,1.5,0.2,2.4v0.7h-5.9
			V49.6z M116.4,45.7c0-0.3-0.1-0.6-0.2-0.9s-0.3-0.4-0.5-0.5c-0.2-0.1-0.4-0.2-0.7-0.2s-0.5,0.1-0.7,0.2c-0.2,0.1-0.3,0.3-0.5,0.5
			c-0.1,0.2-0.2,0.5-0.2,0.7c-0.1,0.3-0.1,0.5-0.1,0.8v0.5h3C116.5,46.4,116.5,46,116.4,45.7z"/>
		<path class="st1" d="M127.8,52.7c-0.3,0.5-0.7,0.9-1.1,1.1c-0.4,0.2-0.9,0.3-1.5,0.3c-1.2,0-2.1-0.5-2.7-1.4s-0.9-2.5-0.9-4.6
			c0-2.1,0.3-3.7,0.9-4.6s1.5-1.4,2.7-1.4c0.6,0,1,0.1,1.4,0.3c0.4,0.2,0.7,0.6,1.1,1h0v-4.9h3V54h-2.8L127.8,52.7L127.8,52.7z
			 M124.9,51c0.2,0.6,0.6,1,1.3,1c0.7,0,1.1-0.3,1.3-1s0.3-1.6,0.3-2.8c0-1.3-0.1-2.2-0.3-2.8s-0.6-1-1.3-1c-0.6,0-1.1,0.3-1.3,1
			s-0.3,1.6-0.3,2.8C124.6,49.4,124.7,50.4,124.9,51z"/>
		<path class="st1" d="M136.8,38.5V41h-3v-2.5H136.8z M136.8,42.4V54h-3V42.4H136.8z"/>
		<path class="st1" d="M143.6,39.1v3.3h1.7v2h-1.7v6.2c0,0.5,0.1,0.8,0.2,1c0.1,0.2,0.4,0.3,0.8,0.3c0.1,0,0.2,0,0.3,0
			c0.1,0,0.2,0,0.3,0V54c-0.3,0-0.6,0-1,0c-0.3,0-0.6,0-1,0c-0.6,0-1,0-1.4-0.1s-0.6-0.2-0.8-0.5s-0.3-0.5-0.4-0.9s-0.1-0.9-0.1-1.5
			v-6.6h-1.5v-2h1.5v-3.3H143.6z"/>
		<path class="st1" d="M147.3,45.6c0.2-0.8,0.4-1.4,0.8-1.9c0.4-0.5,0.8-0.9,1.4-1.2s1.3-0.4,2.1-0.4c0.9,0,1.6,0.1,2.2,0.4
			c0.6,0.2,1.1,0.6,1.4,1.1s0.6,1.2,0.7,1.9c0.1,0.8,0.2,1.6,0.2,2.7c0,1-0.1,1.9-0.2,2.6c-0.2,0.8-0.4,1.4-0.8,1.9
			c-0.4,0.5-0.8,0.9-1.4,1.1c-0.6,0.2-1.3,0.4-2.1,0.4c-0.9,0-1.6-0.1-2.2-0.3c-0.6-0.2-1.1-0.6-1.4-1.1s-0.6-1.1-0.7-1.9
			s-0.2-1.6-0.2-2.7C147,47.2,147.1,46.3,147.3,45.6z M150,49.8c0,0.5,0.1,0.9,0.2,1.3c0.1,0.4,0.3,0.6,0.5,0.8
			c0.2,0.2,0.5,0.3,0.9,0.3c0.6,0,1-0.3,1.2-0.9c0.2-0.6,0.3-1.7,0.3-3.1c0-1.4-0.1-2.5-0.3-3.1c-0.2-0.6-0.6-0.9-1.2-0.9
			c-0.4,0-0.6,0.1-0.9,0.3c-0.2,0.2-0.4,0.5-0.5,0.8c-0.1,0.4-0.2,0.8-0.2,1.3c0,0.5,0,1,0,1.6C150,48.8,150,49.3,150,49.8z"/>
	</g>
	<g>
		<g>
			<path class="st1" d="M80.3,13.8L39.1,5.1c-1.7-0.4-3.5,0.8-3.8,2.5l-0.8,5L82,22.7l0.8-5C83.2,15.9,82,14.2,80.3,13.8z"/>
			<path class="st1" d="M63,23.7c-0.5-1.7-2.3-2.8-4-2.3l-7.8,2.2l-18.4-3.9l-2,9.6l-12.7,3.5c-1.7,0.5-2.8,2.3-2.3,4l7.1,25.7
				c0.5,1.7,2.3,2.8,4,2.3l41-11.4c1.7-0.5,2.8-2.3,2.3-4l-1.2-4.4l4.6,1c1.7,0.4,3.5-0.8,3.8-2.5l2.9-13.7l-16.6-3.5L63,23.7z
				 M67.7,36.8l1-4.8c0.2-0.7,0.9-1.2,1.6-1l4.8,1c0.7,0.2,1.2,0.9,1,1.6l-1,4.8c-0.2,0.7-0.9,1.2-1.6,1l-4.8-1
				C68,38.2,67.5,37.5,67.7,36.8z M18.7,35.4L30,32.3l26.8-7.4l2.9-0.8c0.1,0,0.1,0,0.2,0c0.2,0,0.5,0.2,0.6,0.4l0.3,1.2l1.1,3.8
				L19.6,41.2l-1.4-5C18.2,35.8,18.3,35.5,18.7,35.4z M67.5,50.2c0.1,0.2,0,0.4-0.1,0.5c-0.1,0.1-0.2,0.2-0.4,0.3l-41,11.4
				c-0.1,0-0.1,0-0.2,0c-0.2,0-0.5-0.2-0.6-0.4l-4.2-15l42.1-11.7l2.6,9.3L67.5,50.2z"/>
			<path class="st1" d="M32.8,51.2c-0.2-0.7-0.9-1.1-1.6-0.9l-4.8,1.3c-0.7,0.2-1.1,0.9-0.9,1.6l1.3,4.8c0.2,0.7,0.9,1.1,1.6,0.9
				l4.8-1.3c0.7-0.2,1.1-0.9,0.9-1.6L32.8,51.2z"/>
		</g>
	</g>
</g>
</svg>
