<?xml version="1.0" encoding="utf-8"?>
<!-- Generator: Adobe Illustrator 23.0.0, SVG Export Plug-In . SVG Version: 6.00 Build 0)  -->
<svg version="1.1" id="Layer_1" xmlns="http://www.w3.org/2000/svg" xmlns:xlink="http://www.w3.org/1999/xlink" x="0px" y="0px"
	 width="294.5px" height="72.1px" viewBox="0 0 294.5 72.1" style="enable-background:new 0 0 294.5 72.1;" xml:space="preserve">
<style type="text/css">
	.st0{fill:#6F6F6F;}
</style>
<g>
	<path class="st0" d="M97.4,0.7l-1.7,5.7c0,0,0,0,0,0l-2,2.6L87,17.8C86.9,17.9,87,18,87,18l5.1,0.2c0.1,0,0.1,0.1,0.1,0.2
		l-5.7,19.3l-1.5,5.2l-0.5,1.5l-2,6.6c0,0.1-0.1,0.1-0.1,0.1H56.2v0c0,0,0,0-0.1,0c-5.5,0.4-10.5-3.7-11-9.2c-0.1-1.3,0-2.5,0.3-3.6
		v0l0.2-0.5l0.1-0.3l0-0.1l5.5-18.5l5.4-18.1c0.4,0,0.7,0,1,0H71c0.1,0,0.1,0.1,0.1,0.2l-9.4,31.7l-1.5,5c0,0.1,0,0.2,0.1,0.2h10.2
		c0.1,0,0.1,0,0.1-0.1l2.1-7l8.8-29.9c0-0.1,0.1-0.1,0.1-0.1h15.7C97.4,0.6,97.4,0.7,97.4,0.7z"/>
	<path class="st0" d="M133.9,0.5l-0.1,0.1L133.9,0.5l-12.6,0h-15L104.3,7l0,0l0.3,1.7l1.7,7.5l0,0l0.6,2.5l-2.9-0.1l-3.1-0.1
		l-5.6,19.1l-4,13.4l0,0.1l-5.4,18.2c1.8,1.5,4.1,2.4,6.6,2.4c1,0,2-0.2,2.9-0.4c3-0.9,5.5-3.2,6.7-6.1v0l0.5-1.8l0,0l1.2-4.1
		c0.1-0.2,0.1-0.3,0.1-0.4c0.2-1.3,0.5-2.6,1.1-3.7v0c1.5-2.5,4.2-4.2,7.3-4.2h6.6c3.4,0,6.6-0.8,9.3-2.3c4.4-2.3,7.7-6.3,9.3-11
		h0.1l6.7-22.5l0.8-2.8c0.1-0.5,0.1-1,0.1-1.5C145.3,4.8,140.1,0,133.9,0.5z M128.5,18.8l-0.1,0.2L123,37.5h-12.6l7.6-25.7h12.6
		l-0.9,2.9L128.5,18.8z"/>
	<g>
		<path class="st0" d="M184.3,28.8c0,11-7.9,19-18.1,19c-5,0-8.9-1.8-10.9-5.3l-1,4.9h-9L153,8.9c0.8-3.9,4.2-6.6,8.1-6.6h2.7
			l-3,15.2c2.5-2.1,5.6-3.3,9.4-3.3C177.7,14.1,184.3,19.5,184.3,28.8z M174.7,29.2c0-4.4-2.7-7.2-7.5-7.2c-5.5,0-9.5,4.4-9.5,10.7
			c0,4.4,2.7,7.2,7.4,7.2C170.7,39.9,174.7,35.5,174.7,29.2z"/>
		<path class="st0" d="M222.1,33.5h-25c0.3,4.4,3,6.7,8.4,6.7c1.8,0,3.5-0.3,5-0.9c2.4-0.9,5.1,0.1,6.5,2.3l1.2,1.8
			c-3.8,3-8.7,4.4-13.7,4.4c-10.2,0-16.7-5.8-16.7-14.6c0-10.9,7.9-19,19.2-19c9.5,0,15.5,5.6,15.5,14.4
			C222.7,30.3,222.4,32,222.1,33.5z M197.8,28H214c0-4.3-2.9-6.7-7.3-6.7C202.1,21.2,199,23.9,197.8,28z"/>
		<path class="st0" d="M238.2,35.7c-0.1,0.5-0.1,0.9-0.1,1.3c0,2,1.1,3.2,3.5,3.2c1.3,0,2.6-0.4,3.8-1.2l1.4,6.7
			c-2.4,1.5-5.3,1.9-8.1,1.9c-6.1,0-10.2-3.4-10.2-9.1c0-0.9,0.1-1.9,0.3-2.8l2.6-13.2h-5l1.5-7.3h5l1.6-8h9.5l-1.6,8h2.9
			c2.7,0,4.7,2.5,4.2,5.1l-0.4,2.2h-8.1L238.2,35.7z"/>
	</g>
</g>
</svg>
