<?xml version="1.0" encoding="utf-8"?>
<!-- Generator: Adobe Illustrator 22.1.0, SVG Export Plug-In . SVG Version: 6.00 Build 0)  -->
<svg version="1.1" id="Layer_1" xmlns="http://www.w3.org/2000/svg" xmlns:xlink="http://www.w3.org/1999/xlink" x="0px" y="0px"
	 width="180px" height="70px" viewBox="0 0 180 70" style="enable-background:new 0 0 180 70;" xml:space="preserve">
<style type="text/css">
	.st0{fill:none;}
	.st1{fill:#6f6f6f;}
</style>
<rect class="st0" width="180" height="70"/>
<g>
	<g>
		<path class="st1" d="M76.8,31.1c-0.2,1.1-0.5,2.1-0.8,3c-0.6,1.5-1.4,2.8-2.3,3.8c-1,1-2.1,1.8-3.4,2.4c-1.3,0.6-2.7,0.8-4.3,0.8
			c-1.9,0-3.7-0.4-5.2-1.2c-1.5-0.8-2.5-1.9-3.5-3.2c-1.1-1.4-1.9-3-2.4-4.9c-0.6-1.9-0.5-3.9-0.5-6c0-2.2-0.1-4.3,0.5-6.1
			c0.6-1.9,1.4-3.5,2.4-4.9c1.1-1.4,2.4-2.5,3.9-3.3c1.5-0.8,2.9-1.2,4.8-1.2c1.4,0,2.7,0.2,3.9,0.7c1.2,0.5,2.3,1.2,3.3,2
			c1,0.9,1.8,2,2.4,3.3c0.5,1.1,0.6,2.3,0.7,3.6l-6.9-0.2c-0.7-2.1-1.9-3.3-3.8-3.3c-3.9,0-4.5,3.7-4.5,8.8s0.6,8.8,4.5,8.8
			c1.9,0,3.1-1.2,3.8-3.1L76.8,31.1z"/>
		<path class="st1" d="M99.6,10.9v5.5H87.2v6.3H98v5H87.2V35h12.7v5.5H79.7V5h6.8l0.1,5.9H99.6z"/>
		<path class="st1" d="M117,10.9c1.6,0,3,0.3,4.1,0.8c1.1,0.5,2.1,1.2,2.8,2.1c0.7,0.9,1.2,1.9,1.6,3c0.3,1.1,0.5,2.3,0.5,3.5
			c0,1.2-0.2,2.4-0.5,3.5c-0.3,1.1-0.8,2.2-1.6,3c-0.7,0.9-1.6,1.6-2.8,2.1c-1.1,0.5-2.5,0.8-4.1,0.8h-6v10.6h-6.8V10.9H117z
			 M114.9,23.7c0.5,0,1.1,0,1.6-0.1c0.5-0.1,0.9-0.3,1.3-0.5c0.4-0.3,0.7-0.6,0.9-1.1c0.2-0.5,0.3-1.1,0.3-1.9
			c0-0.8-0.1-1.4-0.3-1.9c-0.2-0.5-0.5-0.8-0.9-1.1c-0.4-0.3-0.8-0.4-1.3-0.5c-0.5-0.1-1-0.1-1.6-0.1h-3.7v7.3H114.9z"/>
	</g>
	<g>
		<path class="st1" d="M62.7,43.8c0.9,0,1.7,0.1,2.4,0.3c0.7,0.2,1.3,0.5,1.9,0.9c0.5,0.4,0.9,0.9,1.2,1.6c0.3,0.7,0.4,1.5,0.4,2.5
			c0,1.1-0.2,1.9-0.6,2.6c-0.4,0.7-1,1.3-1.9,1.7c1.1,0.4,2,1,2.5,2c0.6,0.9,0.8,2.1,0.8,3.4c0,1.1-0.2,2-0.5,2.7
			c-0.4,0.8-0.8,1.4-1.5,1.9c-0.6,0.5-1.3,0.9-2.1,1.1c-0.8,0.2-1.6,0.4-2.4,0.4H54v-21H62.7z M62.1,52.3c0.7,0,1.3-0.2,1.8-0.6
			c0.5-0.4,0.7-1,0.7-1.9c0-0.5-0.1-0.9-0.2-1.2c-0.2-0.3-0.4-0.6-0.6-0.7c-0.3-0.2-0.6-0.3-0.9-0.4c-0.3-0.1-0.7-0.1-1-0.1H58v4.9
			H62.1z M62.4,61.2c0.4,0,0.8,0,1.1-0.1c0.4-0.1,0.7-0.2,1-0.4c0.3-0.2,0.5-0.5,0.7-0.8c0.2-0.4,0.2-0.8,0.2-1.4
			c0-1.1-0.3-1.8-0.8-2.3c-0.5-0.5-1.2-0.7-2.1-0.7H58v5.8H62.4z"/>
		<path class="st1" d="M81.4,43.8l6.9,21H84l-1.4-4.7h-6.9l-1.4,4.7h-4.1l7-21H81.4z M81.6,56.7L79.3,49h-0.1l-2.4,7.7H81.6z"/>
		<path class="st1" d="M93.9,43.8l7.7,14.1h0.1V43.8h3.8v21h-4.1l-7.7-14h-0.1v14h-3.8v-21H93.9z"/>
		<path class="st1" d="M113.1,43.8v8.7l7.2-8.7h5.1l-7.2,8.3l7.9,12.7h-5.1l-5.6-9.4l-2.3,2.7v6.8H109v-21H113.1z"/>
	</g>
</g>
</svg>
