<?xml version="1.0" encoding="utf-8"?>
<!-- Generator: Adobe Illustrator 22.1.0, SVG Export Plug-In . SVG Version: 6.00 Build 0)  -->
<svg version="1.1" id="Layer_1" xmlns="http://www.w3.org/2000/svg" xmlns:xlink="http://www.w3.org/1999/xlink" x="0px" y="0px"
	 width="180px" height="70px" viewBox="0 0 180 70" style="enable-background:new 0 0 180 70;" xml:space="preserve">
<style type="text/css">
	.st0{fill:none;}
	.st1{fill:#7C9199;}
</style>
<rect y="0" class="st0" width="180" height="70"/>
<g>
	<g>
		<g>
			<path class="st1" d="M67.6,13.8L26.3,5.1c-1.7-0.4-3.5,0.8-3.8,2.5l-0.8,5l47.5,10.1l0.8-5C70.4,15.9,69.2,14.2,67.6,13.8z"/>
			<path class="st1" d="M50.2,23.7c-0.5-1.7-2.3-2.8-4-2.3l-7.8,2.2l-18.4-3.9l-2,9.6L5.4,32.8c-1.7,0.5-2.8,2.3-2.3,4l7.1,25.7
				c0.5,1.7,2.3,2.8,4,2.3l41-11.4c1.7-0.5,2.8-2.3,2.3-4L56.3,45l4.6,1c1.7,0.4,3.5-0.8,3.8-2.5l2.9-13.7L51,26.3L50.2,23.7z
				 M54.9,36.8l1-4.8c0.2-0.7,0.9-1.2,1.6-1l4.8,1c0.7,0.2,1.2,0.9,1,1.6l-1,4.8c-0.2,0.7-0.9,1.2-1.6,1l-4.8-1
				C55.2,38.2,54.8,37.5,54.9,36.8z M6,35.4l11.3-3.1L44,24.9l2.9-0.8c0.1,0,0.1,0,0.2,0c0.2,0,0.5,0.2,0.6,0.4l0.3,1.2l1.1,3.8
				L6.9,41.2l-1.4-5C5.5,35.8,5.5,35.5,6,35.4z M54.8,50.2c0.1,0.2,0,0.4-0.1,0.5s-0.2,0.2-0.4,0.3l-41,11.4c-0.1,0-0.1,0-0.2,0
				c-0.2,0-0.5-0.2-0.6-0.4L8.2,47l42.1-11.7l2.6,9.3L54.8,50.2z"/>
			<path class="st1" d="M20,51.2c-0.2-0.7-0.9-1.1-1.6-0.9l-4.8,1.3c-0.7,0.2-1.1,0.9-0.9,1.6L14,58c0.2,0.7,0.9,1.1,1.6,0.9
				l4.8-1.3c0.7-0.2,1.1-0.9,0.9-1.6L20,51.2z"/>
		</g>
	</g>
</g>
<g>
	<path class="st1" d="M81,31.3c-1.4,0-2.1,0.9-2.1,2.5v3.3c0,2.2,0.7,2.7,2.1,2.7c1.3,0,2.8-0.2,3.7-0.4l0.5,2.8
		c-1,0.3-2.8,0.4-4.2,0.4c-3.9,0-5.3-1.9-5.3-5.1v-4.1c0-3.2,1.4-5.1,5.3-5.1c1.4,0,3.2,0.2,4.2,0.4l-0.5,2.8
		C83.9,31.5,82.3,31.3,81,31.3z"/>
	<path class="st1" d="M90.1,35.9v6.6h-3.1V32.3l2.6-0.6L90,33c0.6-0.8,1.3-1.4,2.5-1.4c0.3,0,0.6,0,0.9,0.2l-0.4,2.7
		c-0.2,0-0.3,0-0.5,0C91.4,34.5,90.6,35,90.1,35.9z"/>
	<path class="st1" d="M99.2,42.8c-3.6,0-5-1.4-5-4v-3.5c0-2.4,1.3-3.7,4.6-3.7c3.2,0,4.4,1.3,4.4,3.7v3.2h-5.9v0.3
		c0,0.7,0.5,1.2,1.9,1.2c1.2,0,2.6-0.1,3.4-0.3l0.5,2.7C102,42.7,100.5,42.8,99.2,42.8z M97.3,36h2.8v-0.6c0-0.7-0.4-1-1.3-1
		c-1.1,0-1.5,0.3-1.5,1V36z"/>
	<path class="st1" d="M111.6,41.8c-1,0.6-2.3,0.9-3.3,0.9c-2.4,0-3.6-1.3-3.6-3.6v-3.6c0-2.5,1.1-3.9,4-3.9c0.5,0,1.2,0,2,0.1V28
		l3.1-0.7v15.3H112L111.6,41.8z M110.7,39.6v-5.1c-0.6-0.1-1.1-0.1-1.5-0.1c-0.9,0-1.4,0.5-1.4,1.6v2.5c0,1.2,0.3,1.4,1.4,1.4
		C109.7,39.9,110.2,39.8,110.7,39.6z"/>
	<path class="st1" d="M118.8,27.2v3l-3.1,0.8v-3L118.8,27.2z M115.8,42.5V32.4l3.1-0.8v10.9H115.8z"/>
	<path class="st1" d="M124.1,42.8c-1.4,0-3-0.9-3-3.2v-4.9h-0.8v-2.8h0.8v-2.4l3.1-0.7v3h2.1l-0.2,2.8h-1.9v4.6c0,0.7,0.4,1,0.7,1
		c0.3,0,0.6-0.1,0.9-0.2l0.6,2.3C125.6,42.7,124.8,42.8,124.1,42.8z"/>
	<path class="st1" d="M138.2,31.3c-1.4,0-2.1,0.9-2.1,2.5v3.3c0,2.2,0.7,2.7,2.1,2.7c1.3,0,2.8-0.2,3.7-0.4l0.5,2.8
		c-1,0.3-2.8,0.4-4.2,0.4c-3.9,0-5.3-1.9-5.3-5.1v-4.1c0-3.2,1.4-5.1,5.3-5.1c1.4,0,3.2,0.2,4.2,0.4l-0.5,2.8
		C141,31.5,139.4,31.3,138.2,31.3z"/>
	<path class="st1" d="M150.4,41.8c-1,0.6-2.1,1-3,1c-2.6,0-3.6-1.2-3.6-3.2c0-2.2,1.4-3.5,4.1-3.5h1.9v-0.4c0-0.7-0.5-1.2-1.9-1.2
		c-1,0-2.3,0.2-3.1,0.4l-0.5-2.8c0.9-0.3,2.4-0.4,3.5-0.4c3.4,0,5,1.1,5,3.4v7.5h-2.1L150.4,41.8z M149.8,39.6v-1h-1.5
		c-1.2,0-1.4,0.2-1.4,0.8c0,0.4,0.3,0.7,1.1,0.7C148.7,40.1,149.2,39.9,149.8,39.6z"/>
	<path class="st1" d="M158,35.9v6.6h-3.1V32.3l2.6-0.6l0.4,1.4c0.6-0.8,1.3-1.4,2.5-1.4c0.3,0,0.6,0,0.9,0.2l-0.4,2.7
		c-0.2,0-0.3,0-0.5,0C159.2,34.5,158.4,35,158,35.9z"/>
	<path class="st1" d="M169.1,41.8c-1,0.6-2.3,0.9-3.3,0.9c-2.4,0-3.6-1.3-3.6-3.6v-3.6c0-2.5,1.1-3.9,4-3.9c0.5,0,1.2,0,2,0.1V28
		l3.1-0.7v15.3h-1.7L169.1,41.8z M168.2,39.6v-5.1c-0.6-0.1-1.1-0.1-1.5-0.1c-0.9,0-1.4,0.5-1.4,1.6v2.5c0,1.2,0.3,1.4,1.4,1.4
		C167.1,39.9,167.7,39.8,168.2,39.6z"/>
</g>
</svg>
