<?xml version="1.0" encoding="utf-8"?>
<!-- Generator: Adobe Illustrator 22.1.0, SVG Export Plug-In . SVG Version: 6.00 Build 0)  -->
<svg version="1.1" id="Layer_1" xmlns="http://www.w3.org/2000/svg" xmlns:xlink="http://www.w3.org/1999/xlink" x="0px" y="0px"
	 width="180px" height="70px" viewBox="0 0 180 70" style="enable-background:new 0 0 180 70;" xml:space="preserve">
<style type="text/css">
	.st0{fill:none;}
	.st1{fill:#6f6f6f;}
</style>
<rect class="st0" width="180" height="70"/>
<g id="ecoPayz">
	<path id="ecopayz-logo" class="st1" d="M34.3,14.9C18.1,14.9,5,22.6,5,32.1c0,4,2.4,7.7,6.4,10.7c-2-2.4-3.1-5.2-3.1-8.1
		c0-9.9,12.8-17.9,28.6-17.9c10.2,0,19.2,3.3,24.2,8.3C56.6,19.1,46.3,14.9,34.3,14.9z"/>
	<path id="eco" class="st1" d="M31.7,37c1.2,0,2.2-0.3,2.9-0.8c0.8-0.6,1.3-1.4,1.3-2.4c0-2-0.6-3.8-1.9-5.4
		c-1.3-1.7-2.9-2.9-4.9-3.8c-1.4-0.6-2.9-0.9-4.7-0.9c-3.5,0-6.3,1.1-8.5,3.4c-2.2,2.2-3.3,5-3.3,8.1c0,3.2,1.2,5.9,3.5,8.1
		s5.2,3.3,8.7,3.3c1.9,0,3.6-0.3,5.4-0.8c2-0.6,3.5-1.5,4.4-2.7c0.5-0.6,0.8-1.3,0.8-1.9c0-1.7-0.9-2.5-2.8-2.5
		c-0.4,0-1.5,0.3-3.1,1.1c-1.7,0.7-3.1,1.1-4.3,1.1c-1.4,0-2.6-0.3-3.6-1S20,38.3,19.9,37L31.7,37L31.7,37z M21.3,30
		c0.8-0.7,1.9-1.1,3.1-1.1s2.3,0.4,3.1,1.1c0.9,0.7,1.3,1.6,1.4,2.7h-9.3C19.9,31.6,20.4,30.7,21.3,30z M39.8,43.2
		c2.2,2.2,5,3.3,8.5,3.3c2.1,0,3.9-0.3,5.3-1c2-0.9,3-2,3-3.3c0-0.8-0.3-1.4-0.8-2s-1.2-0.8-2-0.8c-0.6,0-1.2,0.2-2.1,0.5
		c-0.8,0.3-1.8,0.5-2.7,0.5c-1.7,0-3-0.5-3.9-1.6c-0.8-1-1.2-2.2-1.2-3.8c0-1.5,0.4-2.8,1.2-3.8c0.9-1.1,2.1-1.7,3.7-1.7
		c1,0,1.9,0.2,2.8,0.5c0.9,0.3,1.6,0.5,2.2,0.5c0.8,0,1.5-0.3,2.1-0.8s0.8-1.2,0.8-1.9c0-1.5-1-2.6-2.9-3.3c-1.4-0.5-3.1-0.8-5-0.8
		c-3.7,0-6.6,1.1-8.8,3.2s-3.3,4.9-3.3,8.2C36.6,38.4,37.7,41.1,39.8,43.2L39.8,43.2z M60.1,43.3c2.3,2.2,5.2,3.4,8.7,3.4
		s6.4-1.1,8.7-3.3c2.2-2.2,3.2-4.9,3.2-8.1c0-3.3-1.1-6-3.3-8.2c-2.2-2.2-5.1-3.3-8.6-3.3s-6.4,1.1-8.6,3.3
		c-2.2,2.2-3.3,4.9-3.3,8.2C56.8,38.4,57.9,41.1,60.1,43.3L60.1,43.3z M65.2,31.4c0.8-1.1,2-1.7,3.6-1.7c1.5,0,2.7,0.6,3.5,1.7
		c0.8,1,1.1,2.2,1.1,3.6c0,1.5-0.4,2.7-1.1,3.7c-0.8,1.2-2,1.7-3.6,1.7c-1.5,0-2.7-0.6-3.5-1.7c-0.8-1-1.1-2.2-1.1-3.7
		C64.1,33.7,64.5,32.4,65.2,31.4L65.2,31.4z"/>
	<path id="payz" class="st1" d="M90.6,23.1h3.1c3.3,0,5,1.3,5,3.8c0,2.6-1.7,3.8-5,3.8h-3.1V23.1z M90.6,41.7v-4.9h4.9
		c3.4,0,6.1-0.9,8.1-2.6c2-1.7,3-4.1,3-7.3c0-3.1-1.1-5.6-3.3-7.3c-2.1-1.7-4.9-2.5-8.4-2.5h-6.5c-1.9,0-3.2,0.3-3.9,1
		c-0.7,0.7-1.1,1.9-1.1,3.6v19.9c0,3.1,1.2,4.7,3.6,4.7C89.3,46.3,90.6,44.8,90.6,41.7L90.6,41.7z M115.3,31.6
		c0.8-1.1,2-1.6,3.4-1.6c1.5,0,2.6,0.5,3.4,1.6c0.7,1,1,2.1,1,3.5c0,1.4-0.3,2.6-1,3.6c-0.8,1.1-2,1.7-3.4,1.7
		c-1.5,0-2.6-0.6-3.5-1.7c-0.7-1-1.1-2.2-1.1-3.6C114.2,33.7,114.6,32.5,115.3,31.6L115.3,31.6z M126.9,46.3c2.3,0,3.5-1.6,3.5-4.7
		V28.7c0-3.1-1.2-4.6-3.5-4.6c-1.4,0-2.5,0.7-3.4,2c-1.4-1.5-3.3-2.3-5.7-2.3c-3.2,0-5.9,1.2-8,3.6c-2,2.2-3,4.8-3,7.8
		s0.9,5.5,2.8,7.7c2.1,2.4,4.7,3.6,7.8,3.6c2.5,0,4.5-0.8,5.9-2.4C124.2,45.6,125.3,46.3,126.9,46.3L126.9,46.3z M146.7,26.6
		l-4.3,10.2l-4-9.7c-0.4-1.1-0.8-1.8-1.2-2.2c-0.6-0.6-1.4-0.9-2.4-0.9s-1.8,0.3-2.5,0.9s-1,1.4-1,2.3c0,0.6,0.1,1.2,0.4,1.8
		l7.1,15.1l-2.9,5.7c-0.4,0.8-0.6,1.5-0.6,2.2c0,0.9,0.3,1.7,1,2.2c0.6,0.6,1.5,0.8,2.5,0.8c1.2,0,2.3-0.9,3.1-2.6l10.8-23.2
		c0.4-0.8,0.6-1.6,0.6-2.2c0-2-1.2-3.1-3.5-3.1C148.5,24.1,147.4,24.9,146.7,26.6L146.7,26.6z M170.6,40h-7l9.4-10.9
		c1-1.1,1.4-2,1.4-2.8s-0.4-1.4-1.1-1.6c-0.7-0.2-1.8-0.3-3.4-0.3h-11.3c-3,0-4.5,1-4.5,2.9c0,2,1.5,2.9,4.4,2.9h6.1L155,41.5
		c-0.7,0.8-1,1.6-1,2.5c0,1.3,1.2,2,3.7,2h12.9c3,0,4.4-1,4.4-2.9C175,41,173.5,40,170.6,40L170.6,40z"/>
</g>
</svg>
