<?xml version="1.0" encoding="utf-8"?>
<!-- Generator: Adobe Illustrator 23.0.1, SVG Export Plug-In . SVG Version: 6.00 Build 0)  -->
<svg version="1.1" id="Layer_1" xmlns="http://www.w3.org/2000/svg" xmlns:xlink="http://www.w3.org/1999/xlink" x="0px" y="0px"
	 width="1221.6px" height="425.6px" viewBox="0 0 1221.6 425.6" style="enable-background:new 0 0 1221.6 425.6;"
	 xml:space="preserve">
<style type="text/css">
	.st0{fill:#6F6F6F;}
	.st1{fill:#7F7F7F;}
</style>
<title>01_BetuniQ-Logo-crop</title>
<g>
	<path class="st0" d="M312.5,1.5l-10.2,34.2c0,0.1-0.1,0.2-0.1,0.2l-12.1,15.3l-40.3,52.3c-0.3,0.4,0,1.1,0.5,1.1l30.4,1.2
		c0.4,0,0.8,0.4,0.6,0.9l-34.3,115.6l-9.2,31.2l-2.7,9l-11.7,39.4c-0.1,0.3-0.4,0.5-0.7,0.5H65.9l0-0.2c-0.1,0-0.2,0-0.3,0
		C32.9,304.9,3.2,279.9,0,247.1c-0.7-7.5-0.2-14.7,1.5-21.5l0-0.2l1-3.2l0.5-1.7l0.1-0.4l32.9-111L68.1,0.9c1.9-0.2,3.8-0.3,5.7-0.3
		h80.7c0.5,0,0.8,0.4,0.7,0.9L98.9,191.2l-9,30.2c-0.1,0.4,0.2,0.9,0.7,0.9h60.9c0.3,0,0.6-0.2,0.7-0.5l12.4-41.8l53-178.9
		c0.1-0.3,0.4-0.5,0.7-0.5h93.7C312.3,0.6,312.7,1,312.5,1.5z"/>
	<path class="st0" d="M530.8,0.2l-0.3,0.8V0h-75.1h-89.9L354,39v0l2,10.2l10.4,44.9v0l3.5,14.9l-17.7-0.7l-18.5-0.7l-33.8,114
		l-23.8,80.2l-0.1,0.4l-32.3,108.9c10.8,9,24.6,14.4,39.7,14.4c6.1,0,12-0.9,17.7-2.6c18.2-5.4,32.8-19,39.8-36.4l0-0.1l3.2-10.6v0
		l7.3-24.6c0.3-1.3,0.3-1.5,0.4-2.2c1.2-7.8,3-15.5,6.8-22.1l0-0.1c8.8-15,25.1-25,43.8-25h39.5c20.2,0,39.2-5.1,55.7-14
		c26-14,46.2-37.6,55.7-66.1h0.3l39.8-134.3l4.9-16.6c0.4-2.9,0.6-5.8,0.6-8.9C599,26,567.9-2.8,530.8,0.2z M498.4,109.7l-0.4,1.4
		l-32.8,110.5h-75.5l45.6-153.9h75.4l-5.2,17.7L498.4,109.7z"/>
	<g>
		<path class="st1" d="M832,169.1c0,65.7-47.5,113.7-108.2,113.7c-30.1,0-53-10.5-65.3-32l-5.8,29.1H599l45.8-229.8
			c4.6-23.1,24.9-39.7,48.4-39.7h16.1l-18.2,90.8c14.9-12.3,33.8-19.6,56.3-19.6C792.8,81.6,832,113.6,832,169.1z M774.7,171.7
			c0-26.5-16.3-43.2-44.6-43.2c-33,0-57,26.2-57,64.3c0,26.5,16,43.2,44.3,43.2C750.7,236,774.7,209.8,774.7,171.7z"/>
		<path class="st1" d="M1058.1,197.5H908.6c1.8,26.5,18.2,40,50.5,40c10.5,0,20.7-1.8,30-5.2c14.5-5.3,30.7,0.5,39,13.6l6.9,10.9
			c-22.5,18.2-51.9,26.2-81.7,26.2c-61,0-99.8-34.5-99.8-87.5c0-65.4,47.2-113.7,115.1-113.7c57,0,92.9,33.8,92.9,86.1
			C1061.4,178.2,1059.9,188.4,1058.1,197.5z M912.6,164.4h96.9c0-25.8-17.4-40.3-43.6-40.3C938.7,124.1,920.2,140.1,912.6,164.4z"/>
		<path class="st1" d="M1154.2,210.9c-0.7,2.9-0.7,5.4-0.7,8c0,12,6.5,18.9,20.7,18.9c7.6,0,15.6-2.5,22.9-6.9l8.4,40.3
			c-14.2,8.7-31.6,11.6-48.6,11.6c-36.3,0-61-20.3-61-54.5c0-5.4,0.7-11.3,1.8-17.1l15.6-78.8h-30.1l8.7-43.6h30.1l9.4-47.6h56.6
			l-9.4,47.6h17.5c16.1,0,28.2,14.7,25,30.5l-2.6,13.1h-48.6L1154.2,210.9z"/>
	</g>
</g>
</svg>
