<svg id="Layer_1" data-name="Layer 1" xmlns="http://www.w3.org/2000/svg" xmlns:xlink="http://www.w3.org/1999/xlink" viewBox="0 0 907.45 274.84"><defs><style>.cls-1{fill:#7c9299;}.cls-2,.cls-8{opacity:0.4;}.cls-10,.cls-11,.cls-12,.cls-13,.cls-14,.cls-15,.cls-16,.cls-17,.cls-2,.cls-4,.cls-6,.cls-8,.cls-9{isolation:isolate;}.cls-2{fill:url(#Sfumatura_senza_nome_3);}.cls-3{fill:#7c9299;}.cls-4{opacity:0.15;}.cls-5{fill:#7c9299;}.cls-6,.cls-7{fill:#7c9299;}.cls-10,.cls-6{opacity:0.5;}.cls-8{fill:url(#Sfumatura_senza_nome_2);}.cls-11,.cls-12,.cls-13,.cls-14,.cls-15,.cls-16,.cls-9{opacity:0.7;}.cls-9{fill:url(#Sfumatura_senza_nome_4);}.cls-10{fill:url(#Sfumatura_senza_nome_4-2);}.cls-11{fill:url(#Sfumatura_senza_nome_11);}.cls-12{fill:url(#Sfumatura_senza_nome_11-2);}.cls-13{fill:url(#Sfumatura_senza_nome_11-3);}.cls-14{fill:url(#Sfumatura_senza_nome_11-4);}.cls-15{fill:url(#Sfumatura_senza_nome_11-5);}.cls-16{fill:url(#Sfumatura_senza_nome_11-6);}.cls-17{opacity:0.6;fill:url(#Sfumatura_senza_nome_11-7);}</style><radialGradient id="Sfumatura_senza_nome_3" cx="105.89" cy="154.34" r="96.65" gradientTransform="matrix(1, 0, 0, -0.93, 0, 295.31)" gradientUnits="userSpaceOnUse"><stop offset="0.58" stop-color="#fff" stop-opacity="0"/><stop offset="1" stop-color="#fff"/></radialGradient><linearGradient id="Sfumatura_senza_nome_2" x1="143.35" y1="146.05" x2="267.43" y2="179.29" gradientTransform="matrix(1, 0, 0, -1, 0, 276)" gradientUnits="userSpaceOnUse"><stop offset="0" stop-color="#fff"/><stop offset="0.47" stop-color="#fff" stop-opacity="0"/></linearGradient><radialGradient id="Sfumatura_senza_nome_4" cx="212.37" cy="231.38" r="15.62" gradientTransform="matrix(1.67, 0.91, 1.7, -2.69, -682.75, 490.87)" gradientUnits="userSpaceOnUse"><stop offset="0" stop-color="#fff"/><stop offset="1" stop-color="#fff" stop-opacity="0"/></radialGradient><radialGradient id="Sfumatura_senza_nome_4-2" cx="478.81" cy="388.55" r="8.26" gradientTransform="matrix(1.72, -0.83, -1.53, -2.77, 28.4, 1574.25)" xlink:href="#Sfumatura_senza_nome_4"/><linearGradient id="Sfumatura_senza_nome_11" x1="444.65" y1="79.17" x2="444.65" y2="190.15" gradientTransform="matrix(1, 0, 0, -1, 0, 276)" xlink:href="#Sfumatura_senza_nome_3"/><linearGradient id="Sfumatura_senza_nome_11-2" x1="518.57" y1="79.73" x2="518.57" y2="161.07" gradientTransform="matrix(1, 0, 0, -1, 0, 276)" xlink:href="#Sfumatura_senza_nome_3"/><linearGradient id="Sfumatura_senza_nome_11-3" x1="596.62" y1="78.65" x2="596.62" y2="158.13" gradientTransform="matrix(1, 0, 0, -1, 0, 276)" xlink:href="#Sfumatura_senza_nome_3"/><linearGradient id="Sfumatura_senza_nome_11-4" x1="705.47" y1="79.02" x2="705.47" y2="190.15" gradientTransform="matrix(1, 0, 0, -1, 0, 276)" xlink:href="#Sfumatura_senza_nome_3"/><linearGradient id="Sfumatura_senza_nome_11-5" x1="790.66" y1="79.33" x2="790.66" y2="160.51" gradientTransform="matrix(1, 0, 0, -1, 0, 276)" xlink:href="#Sfumatura_senza_nome_3"/><linearGradient id="Sfumatura_senza_nome_11-6" x1="856.35" y1="79.16" x2="856.35" y2="187.65" gradientTransform="matrix(1, 0, 0, -1, 0, 276)" xlink:href="#Sfumatura_senza_nome_3"/><linearGradient id="Sfumatura_senza_nome_11-7" x1="322" y1="77.52" x2="322" y2="158.49" gradientTransform="matrix(1, 0, 0, -1, 0, 276)" xlink:href="#Sfumatura_senza_nome_3"/></defs><title>Logo_wecanbet</title><path class="cls-1" d="M80.83,212.38c-25.47-.55-43.27-19.85-50.19-26.85,9.27,30.23,22.84,63.44,53.45,70.54,31.06,7.2,56.61-8.52,71.74-36.72s16.1-31.38,24.4-63.67S137.77,45.17,137.77,45.17s-2,7-3.92,24.43c-4.26,39.42-8.38,89.75-19.06,122-2.28,6.88-7.32,13.14-11.08,15.17C103.71,206.78,95.77,212.7,80.83,212.38Z"/><path class="cls-2" d="M80.83,212.38c-25.47-.55-43.27-19.85-50.19-26.85,9.27,30.23,22.84,63.44,53.45,70.54,31.06,7.2,56.61-8.52,71.74-36.72s16.1-31.38,24.4-63.67S137.77,45.17,137.77,45.17s-2,7-3.92,24.43c-4.26,39.42-8.38,89.75-19.06,122-2.28,6.88-7.32,13.14-11.08,15.17C103.71,206.78,95.77,212.7,80.83,212.38Z"/><path class="cls-3" d="M103.71,206.78c-4,1.55-7.89-.78-10.84-10.62-3.51-11.74-12-56.16-4.88-91.87,7.89-39.55,22.94-60,14.15-74.12,0,0-11.22-23.65-44.41-5.91-37.3,19.93-39,97.31-33.67,131.88a235.45,235.45,0,0,0,6.58,29.39,95.63,95.63,0,0,0,25.8,20.39C70,213,87.3,216.39,103.71,206.78Z"/><path class="cls-4" d="M103.29,207.09c6.6-3.82,11.18-14,11.18-14-7.63,23.08-24,31.56-50.39,24.87-23.19-5.86-33.44-32.45-33.44-32.45s16,19.69,39.23,25.32C79.76,213.24,93.11,213,103.29,207.09Z"/><path class="cls-5" d="M213.25,172.21s33.35-5.16,27-41.54S229,87.92,238.31,79.28C250,68.37,273.93,82,278.81,108.84s7.32,52.75-25.38,64.58S213.25,172.21,213.25,172.21Z"/><path class="cls-6" d="M226.27,167.05s11.68-1.58,26.12-9a107.81,107.81,0,0,0,10-6.51,53.13,53.13,0,0,0,18.58-27.64s6,31.73-15.15,40.38A62.54,62.54,0,0,1,226.27,167.05Z"/><path class="cls-4" d="M134.19,64.58s-3.58,29.71.65,54,6.18,27.9,11.39,43.05,21.23,34.85,21.23,34.85,5.12-11.8,6.75-18.47S157,119.45,157,119.45Z"/><path class="cls-7" d="M138,43.11c-6.69,6.61-6.16,16-4,38.35,1.64,17.29,6,36.73,11.66,56.49C158.76,183.88,194,211.48,241,195.52c36.12-12.28,39.47-50.33,39.47-50.33S268.87,159.58,252,165.38c-18.44,6.32-42.85,3-55.61-26.52-8.14-18.8-15.06-54.48-16-74.28C179.09,35.47,153.09,28.15,138,43.11Z"/><path class="cls-8" d="M138,43.11c-6.69,6.61-6.16,16-4,38.35,1.64,17.29,6,36.73,11.66,56.49C158.76,183.88,194,211.48,241,195.52c36.12-12.28,39.47-50.33,39.47-50.33S268.87,159.58,252,165.38c-18.44,6.32-42.85,3-55.61-26.52-8.14-18.8-15.06-54.48-16-74.28C179.09,35.47,153.09,28.15,138,43.11Z"/><path class="cls-9" d="M90.72,76.64C76.1,99.85,52.55,112.27,38.13,104.39s-14.25-33.1.38-56.32S76.68,12.43,91.1,20.32,105.35,53.42,90.72,76.64Z"/><path class="cls-10" d="M272,93.33c7,12.65,6.29,26-1.56,29.74s-19.9-3.43-26.89-16.08-6.3-26,1.56-29.74S265,80.68,272,93.33Z"/><path class="cls-1" d="M490.58,99a16.21,16.21,0,0,0-2.65-3.71,23.06,23.06,0,0,0-5.58-4.38,38.8,38.8,0,0,0-8.5-3.58,42.21,42.21,0,0,0-12-1.51,69.81,69.81,0,0,0-21.44,3.47,66.17,66.17,0,0,0-19.87,10.44A69.62,69.62,0,0,0,404.71,117a67.83,67.83,0,0,0-9.56,23.87c-1.84,9-1.89,17.11-.16,24a39.15,39.15,0,0,0,25,28.33,56.3,56.3,0,0,0,20.16,3.58,48.67,48.67,0,0,0,12.47-1.49,62.27,62.27,0,0,0,9.72-3.42,37,37,0,0,0,7.09-4.14,23.86,23.86,0,0,0,4-3.72l.65-.82-.32-1a8.68,8.68,0,0,0-.93-2,11.17,11.17,0,0,0-2.66-3l-.13-.1a8.54,8.54,0,0,0-4.95-1.43,15.27,15.27,0,0,0-4.92.79c-1.33.44-2.8.91-4.4,1.4s-3.37.93-5.49,1.37a38.09,38.09,0,0,1-7.53.63,25.83,25.83,0,0,1-10.61-2.21,20.32,20.32,0,0,1-8.23-6.72,27.1,27.1,0,0,1-4.59-11.8c-.81-4.82-.51-10.72.88-17.54a59.08,59.08,0,0,1,6.31-17.58A45.73,45.73,0,0,1,436.15,112,38,38,0,0,1,447.57,105a33.22,33.22,0,0,1,11.71-2.25,35.16,35.16,0,0,1,7.22.61,47.83,47.83,0,0,1,4.87,1.35c1.39.5,2.66,1,3.8,1.4a12.25,12.25,0,0,0,9.78-.41,8.38,8.38,0,0,0,2.15-1.26,12.44,12.44,0,0,0,1.69-1.62,14.72,14.72,0,0,0,1.58-1.84l.68-.93Z"/><path class="cls-7" d="M492.77,151.67a47.08,47.08,0,0,1,11.72-4.32,58.66,58.66,0,0,1,12.91-1.44,55.25,55.25,0,0,1,17.08,2.54,28.72,28.72,0,0,0-.41-9.32,11.33,11.33,0,0,0-5.38-7.62,13.65,13.65,0,0,0-3.56-1.27,22.28,22.28,0,0,0-4.62-.43h-2a34.75,34.75,0,0,0-5.13.76c-1.74.4-3.49.88-5.27,1.44s-3.53,1.05-5.27,1.45a22.54,22.54,0,0,1-4.91.59,10.38,10.38,0,0,1-4.6-1,7.59,7.59,0,0,1-2.93-3.9l-.22-.67.46-.51A55,55,0,0,1,505,119.22a50,50,0,0,1,16.5-3.81,9.08,9.08,0,0,1,1.54-.17h1.51A34.61,34.61,0,0,1,538.9,118a27.43,27.43,0,0,1,10.16,7.71q8,10.52,4.85,27.63l-.28,1.35q-3.58,17.64-15.25,28.65a49.42,49.42,0,0,1-12.9,8.81,47.17,47.17,0,0,1-15.35,4.24,14.52,14.52,0,0,1-2.17.17h-2.31a51.62,51.62,0,0,1-7.7-.6,26.32,26.32,0,0,1-7.52-2.28,23.92,23.92,0,0,1-6.66-4c-1.91-1.64-3.38-5.33-4.39-7.94q-2.37-4.91-1.1-12l.21-1c.9-4.4,2.59-6.49,5.08-9.43A29.49,29.49,0,0,1,492.77,151.67Zm35.13,8.14c-1.5-.23-3.2-.45-5.11-.68a51.34,51.34,0,0,0-5.88-.34,45.07,45.07,0,0,0-4.85.26,22.31,22.31,0,0,0-4.46.93,17.43,17.43,0,0,0-7.61,4.24,11.25,11.25,0,0,0-1.89,2.29,11.86,11.86,0,0,0-1.28,2.79,5.6,5.6,0,0,0-.49,1.53,13.51,13.51,0,0,0-.21,3.64,6.84,6.84,0,0,0,1.39,3.64A8.19,8.19,0,0,0,501.1,181a17,17,0,0,0,7.13,1.19,10.68,10.68,0,0,0,2.17-.17,19,19,0,0,0,9.26-2.71,15.39,15.39,0,0,0,3.52-2.46,21.62,21.62,0,0,0,2.77-3.13,26.69,26.69,0,0,0,4-6.61,34.2,34.2,0,0,0,2-6.27.28.28,0,0,1-.24-.09.37.37,0,0,0-.25-.08c-.46-.11-1-.23-1.53-.34S528.68,160,527.9,159.81Z"/><path class="cls-7" d="M558,154.64q2.31-11.34,7.24-18.55a40.29,40.29,0,0,1,11.19-11.27,38.14,38.14,0,0,1,13.38-5.51,70.89,70.89,0,0,1,14.07-1.44,63,63,0,0,1,13.39,1.44,25.65,25.65,0,0,1,11.4,5.51,22.05,22.05,0,0,1,6.77,11.27q2,7.2-.32,18.55l-8,42.71q-10.85,0-15.81-4.4t-2.93-14.41l5.05-23.9a34.65,34.65,0,0,0,.82-11.44,13.66,13.66,0,0,0-2.62-6.77,9.71,9.71,0,0,0-4.83-3.31,20.68,20.68,0,0,0-5.87-.85,23.33,23.33,0,0,0-6.12.85,15.71,15.71,0,0,0-6,3.31,23.8,23.8,0,0,0-5.29,6.77,41,41,0,0,0-3.85,11.44l-5.35,26.27c-.57,3.39-1.05,6.16-1.42,8.31s-.64,3.84-.77,5.08-.25,2.38-.27,3q-11,0-16-4.4T553,178.54Z"/><path class="cls-1" d="M746.23,149.51a26.51,26.51,0,0,0-3.17-9.45,24.55,24.55,0,0,0-6.17-7.09,31.08,31.08,0,0,0-5.4-3.37,35.41,35.41,0,0,0,4.91-5.87,27.28,27.28,0,0,0,4-9.59,25.24,25.24,0,0,0,0-10.53,19.78,19.78,0,0,0-4.75-9.14,25.26,25.26,0,0,0-9.58-6.3,40,40,0,0,0-14.48-2.32q-2.85,0-6.88.07a68.21,68.21,0,0,0-7.54.54,38.32,38.32,0,0,0-9.87,2.05,25.63,25.63,0,0,0-12.18,8.64c-3.16,4.11-5.49,9.77-6.92,16.81l-6.38,31.26c-1.84,9-2.34,16.88-1.5,23.3s3,12,6.23,16.2a28.75,28.75,0,0,0,13.14,9.36,54.19,54.19,0,0,0,18.54,2.9,49.1,49.1,0,0,0,17.19-3,51.23,51.23,0,0,0,14.22-8,48.26,48.26,0,0,0,10.43-11.4,39.11,39.11,0,0,0,5.65-13.54A34.22,34.22,0,0,0,746.23,149.51Zm-45,28.61a28.47,28.47,0,0,1-9.8-1.51,11.47,11.47,0,0,1-5.9-4.7c-1.46-2.28-2.27-5.49-2.4-9.54a65,65,0,0,1,2.11-16.23l1-4.77c1.24,0,2.53,0,3.88,0h6c2.29,0,4.73,0,7.25-.09a32.59,32.59,0,0,1,7.85.73,17.35,17.35,0,0,1,6.67,2.87,11.1,11.1,0,0,1,4,5.61c.86,2.49.89,5.8.07,9.82a29.52,29.52,0,0,1-2.39,7.08,18.75,18.75,0,0,1-10.18,9.31A21.79,21.79,0,0,1,701.24,178.12Zm17.69-64.61c-.87,4.23-2.78,7.1-5.84,8.8-3.25,1.81-7.55,2.72-12.79,2.72H689.55l3.38-16.58a4.85,4.85,0,0,1,1.94-3.22,12.32,12.32,0,0,1,4.28-1.54,21.83,21.83,0,0,1,5.1-.3H709a15.14,15.14,0,0,1,4.38.34,9,9,0,0,1,3.51,1.73,6.72,6.72,0,0,1,2,3.08A9.67,9.67,0,0,1,718.93,113.51Z"/><path class="cls-3" d="M812.78,178.54a9.35,9.35,0,0,1,3.25,4.07l.43.51-.63.5a55.47,55.47,0,0,1-15.9,9.58,49.32,49.32,0,0,1-18.22,3.47A33.71,33.71,0,0,1,767,193.54a30.24,30.24,0,0,1-10.93-8.73A31.47,31.47,0,0,1,750.22,172a38.19,38.19,0,0,1,.12-15.85,52.34,52.34,0,0,1,16.54-28.81,49.73,49.73,0,0,1,14.29-8.64,45.38,45.38,0,0,1,17.09-3.23,43.84,43.84,0,0,1,10.64,1.44,31.29,31.29,0,0,1,10.16,4.58,19.92,19.92,0,0,1,6.86,8.22q2.34,5.09.89,12.2a20.6,20.6,0,0,1-6,11.27A35.68,35.68,0,0,1,810.52,160a47.44,47.44,0,0,1-11.63,3.39,67.75,67.75,0,0,1-10.22.93,72,72,0,0,1-11.31-.76c-3.16-.51-5.3-.87-6.44-1.1a23.84,23.84,0,0,0,.82,9.91,15.77,15.77,0,0,0,3.58,6,11.3,11.3,0,0,0,4.72,3,15.67,15.67,0,0,0,4.64.77,38.34,38.34,0,0,0,7.25-.68q3.51-.67,6.35-1.52c1.9-.57,3.7-1.13,5.41-1.7a15.7,15.7,0,0,1,4.88-.84A7.17,7.17,0,0,1,812.78,178.54ZM795.32,129.9a27.3,27.3,0,0,0-4.8.93,19.32,19.32,0,0,0-5.82,2.8,26.63,26.63,0,0,0-5.88,5.76,34.14,34.14,0,0,0-5,9.49,53.15,53.15,0,0,0,7.76,1.61,42.62,42.62,0,0,0,10.43.25,25.87,25.87,0,0,0,9.82-2.88,12,12,0,0,0,6-8,6.8,6.8,0,0,0-2-7.29Q802.68,129.57,795.32,129.9Z"/><path class="cls-3" d="M871.78,180.06a5.53,5.53,0,0,0-.06,1.19,10.08,10.08,0,0,1-.16,2.55,13.09,13.09,0,0,1-2.55,5.5,17,17,0,0,1-4.75,4.15,25.52,25.52,0,0,1-23.81.85,23,23,0,0,1-8.75-7.62,29.85,29.85,0,0,1-4.8-12.63,49.91,49.91,0,0,1,.85-17.71l10.16-49q2.07-10.17,8.66-14.58T864,88.38c-.28.79-.61,1.86-1,3.22s-.8,2.91-1.28,5-1.08,4.83-1.77,8.22l-2,10.67h23.82a21,21,0,0,1-6.93,12.21q-5.39,4.58-13.55,4.57h-6.75l-5.09,24.07a45.64,45.64,0,0,0-1.1,11.95,19,19,0,0,0,2,7.88q3.61,5.76,11.26,5.76a26.63,26.63,0,0,0,6.57-.85C869.45,180.74,870.65,180.4,871.78,180.06Z"/><path class="cls-7" d="M345.26,179a9.31,9.31,0,0,1,3.25,4.06l.43.51-.63.5a55.31,55.31,0,0,1-15.86,9.55,49.06,49.06,0,0,1-18.17,3.47,33.56,33.56,0,0,1-14.69-3.13,30.08,30.08,0,0,1-10.9-8.7,31.31,31.31,0,0,1-5.82-12.77,38,38,0,0,1,.12-15.8,52.36,52.36,0,0,1,16.49-28.74,50.05,50.05,0,0,1,14.25-8.62,45.43,45.43,0,0,1,17-3.21,43.51,43.51,0,0,1,10.61,1.43,31.43,31.43,0,0,1,10.15,4.57,20,20,0,0,1,6.84,8.2q2.33,5.07.88,12.17a20.52,20.52,0,0,1-6,11.24A35.52,35.52,0,0,1,343,160.46a47.12,47.12,0,0,1-11.59,3.38,67.63,67.63,0,0,1-10.21.93,71.55,71.55,0,0,1-11.27-.76q-4.72-.75-6.42-1.1a23.76,23.76,0,0,0,.81,9.89,15.72,15.72,0,0,0,3.57,6,11.33,11.33,0,0,0,4.71,3,15.9,15.9,0,0,0,4.63.76,38.13,38.13,0,0,0,7.23-.67,63.71,63.71,0,0,0,6.34-1.53c1.89-.56,3.68-1.12,5.4-1.69a15.53,15.53,0,0,1,4.86-.84A7.23,7.23,0,0,1,345.26,179Zm-17.41-48.51a27.38,27.38,0,0,0-4.79.93,19.06,19.06,0,0,0-5.8,2.79,26.7,26.7,0,0,0-5.87,5.74,34.26,34.26,0,0,0-4.94,9.47,52.77,52.77,0,0,0,7.74,1.61,42.89,42.89,0,0,0,10.4.25,25.94,25.94,0,0,0,9.8-2.87,12,12,0,0,0,6-7.95,6.79,6.79,0,0,0-2-7.27Q335.19,130.12,327.85,130.46Z"/><path class="cls-11" d="M428.74,124.07A46.13,46.13,0,0,1,438.4,112,38,38,0,0,1,449.83,105a33.22,33.22,0,0,1,11.71-2.25,35,35,0,0,1,7.21.61,46.4,46.4,0,0,1,4.87,1.35c1.39.5,2.66,1,3.81,1.4a12.23,12.23,0,0,0,9.77-.41,8.22,8.22,0,0,0,2.15-1.26,11.88,11.88,0,0,0,1.69-1.62,14,14,0,0,0,1.59-1.84l.68-.93-.47-1a16.31,16.31,0,0,0-2.66-3.71,23,23,0,0,0-5.57-4.38,39.22,39.22,0,0,0-8.5-3.58,42.21,42.21,0,0,0-11.95-1.51,69.76,69.76,0,0,0-21.44,3.47,66,66,0,0,0-19.87,10.44A69.65,69.65,0,0,0,407,117a67.63,67.63,0,0,0-9.55,23.87c-1.84,9-1.9,17.11-.16,24a39.11,39.11,0,0,0,24.95,28.33,56.39,56.39,0,0,0,20.17,3.58,48.54,48.54,0,0,0,12.46-1.49,61.55,61.55,0,0,0,9.72-3.42,37.09,37.09,0,0,0,7.1-4.14,23.86,23.86,0,0,0,4-3.72l.65-.82-.32-1a9.1,9.1,0,0,0-.93-2,11.53,11.53,0,0,0-2.66-3l-.13-.1a8.57,8.57,0,0,0-5-1.43,15.26,15.26,0,0,0-4.91.79c-1.33.44-2.8.91-4.4,1.4s-3.38.93-5.49,1.37a38.13,38.13,0,0,1-7.54.63,25.89,25.89,0,0,1-10.61-2.21,20.36,20.36,0,0,1-8.22-6.72,27.23,27.23,0,0,1-4.6-11.8c-.8-4.82-.5-10.72.88-17.54A59.64,59.64,0,0,1,428.74,124.07Z"/><path class="cls-12" d="M556.17,153.37q3.12-17.12-4.86-27.63a27.67,27.67,0,0,0-10.16-7.86,34.43,34.43,0,0,0-14.35-2.95h-1.51a12.29,12.29,0,0,0-1.55.32,50.06,50.06,0,0,0-16.5,3.89,55.7,55.7,0,0,0-14.31,8.77l-.46.53.22.69a7.6,7.6,0,0,0,2.94,3.9,10.36,10.36,0,0,0,4.59,1,22.63,22.63,0,0,0,4.92-.59q2.6-.6,5.27-1.45c1.77-.56,3.52-.3,5.27-.7s3.44,0,5.13,0h2c1.78,0,3.32-.59,4.62-.31a13.65,13.65,0,0,1,3.56.9,11,11,0,0,1,5.38,7.45,27.88,27.88,0,0,1,.41,9.23A54.88,54.88,0,0,0,519.66,146a58.13,58.13,0,0,0-12.92,1.42A46.82,46.82,0,0,0,495,151.69a29.16,29.16,0,0,0-9.19,7.62,24.15,24.15,0,0,0-5.09,11l-.21,1q-1.27,7.11,1.11,12a15.48,15.48,0,0,0,4.39,6.35,23.86,23.86,0,0,0,6.65,4,26.3,26.3,0,0,0,7.53,2.09,52,52,0,0,0,7.7.4h2.31a14.14,14.14,0,0,0,2.16,0,46.8,46.8,0,0,0,15.35-4.14,49,49,0,0,0,12.9-8.76q11.65-11,15.26-28.62ZM532.22,167.1a27,27,0,0,1-4,6.61,22.89,22.89,0,0,1-2.77,3.13,15.67,15.67,0,0,1-3.53,2.46,19,19,0,0,1-9.25,2.71,10.68,10.68,0,0,1-2.17.17,17,17,0,0,1-7.14-1.19,8.15,8.15,0,0,1-3.58-2.88,6.88,6.88,0,0,1-1.4-3.64,13.49,13.49,0,0,1,.22-3.64,5.27,5.27,0,0,1,.49-1.53,11.86,11.86,0,0,1,1.28-2.79,11.2,11.2,0,0,1,1.88-2.29,17.41,17.41,0,0,1,7.62-4.24,22.36,22.36,0,0,1,4.45-.93,45.26,45.26,0,0,1,4.86-.26,51.34,51.34,0,0,1,5.88.34c1.91.23,3.6.45,5.1.68.78.23,1.46.4,2,.51l1.53.34a.34.34,0,0,1,.25.08.3.3,0,0,0,.25.09A35,35,0,0,1,532.22,167.1Z"/><path class="cls-13" d="M630.94,124.82a25.64,25.64,0,0,0-11.41-5.51,63,63,0,0,0-13.39-1.44,70.87,70.87,0,0,0-14.06,1.44,38.27,38.27,0,0,0-13.39,5.51,40.26,40.26,0,0,0-11.18,11.27q-4.93,7.2-7.24,18.55l-5.06,23.9q-2,10,2.93,14.41t16,4.4c0-.67.1-1.69.26-3s.39-2.94.77-5.08.85-4.92,1.43-8.31l5.35-26.27a41,41,0,0,1,3.84-11.44,23.8,23.8,0,0,1,5.29-6.77,15.85,15.85,0,0,1,6-3.31,23.39,23.39,0,0,1,6.12-.85,20.63,20.63,0,0,1,5.87.85,9.73,9.73,0,0,1,4.84,3.31,13.85,13.85,0,0,1,2.62,6.77,34.7,34.7,0,0,1-.83,11.44l-5,23.9q-2,10,2.92,14.41t15.81,4.4l8-42.71q2.31-11.34.32-18.55A22.11,22.11,0,0,0,630.94,124.82Z"/><path class="cls-14" d="M745.31,140.06a24.52,24.52,0,0,0-6.16-7.09,31.08,31.08,0,0,0-5.4-3.37,35.34,35.34,0,0,0,4.9-5.87,27.12,27.12,0,0,0,4-9.59,25.41,25.41,0,0,0,0-10.53,19.71,19.71,0,0,0-4.76-9.14,25.18,25.18,0,0,0-9.58-6.3,40,40,0,0,0-14.48-2.32q-2.83,0-6.88.07a68.4,68.4,0,0,0-7.54.54,38.32,38.32,0,0,0-9.87,2.05,25.67,25.67,0,0,0-12.18,8.64c-3.15,4.11-5.48,9.77-6.92,16.81l-6.37,31.26c-1.84,9-2.35,16.88-1.5,23.3s3,12,6.23,16.2a28.64,28.64,0,0,0,13.14,9.36,54.09,54.09,0,0,0,18.53,2.9,49.06,49.06,0,0,0,17.19-3,51.43,51.43,0,0,0,14.23-8,48.69,48.69,0,0,0,10.43-11.4A39.28,39.28,0,0,0,748,161.1a34,34,0,0,0,.52-11.59A26.32,26.32,0,0,0,745.31,140.06Zm-50.13-31.61a4.86,4.86,0,0,1,2-3.22,12.27,12.27,0,0,1,4.27-1.54,21.86,21.86,0,0,1,5.1-.3h4.71a15.18,15.18,0,0,1,4.39.34,9.1,9.1,0,0,1,3.51,1.73,6.87,6.87,0,0,1,2,3.08,9.85,9.85,0,0,1,0,5c-.86,4.22-2.77,7.07-5.84,8.77-3.24,1.8-7.55,2.68-12.79,2.68H691.8Zm29,51.85a29,29,0,0,1-2.39,7.08,19.06,19.06,0,0,1-4.1,5.55,19.4,19.4,0,0,1-6.07,3.78,21.81,21.81,0,0,1-8.13,1.41,28.41,28.41,0,0,1-9.79-1.51,11.53,11.53,0,0,1-5.91-4.7c-1.46-2.28-2.26-5.49-2.39-9.54a64.94,64.94,0,0,1,2.1-16.23l1-4.77c1.24,0,2.54,0,3.88,0h6c2.29,0,4.73,0,7.24-.09a32.67,32.67,0,0,1,7.86.73,17.42,17.42,0,0,1,6.67,2.87,11,11,0,0,1,4,5.61C725,153,725,156.28,724.18,160.3Z"/><path class="cls-15" d="M821.32,121.51a31.34,31.34,0,0,0-10.17-4.58,43.77,43.77,0,0,0-10.64-1.44,45.41,45.41,0,0,0-17.09,3.23,49.87,49.87,0,0,0-14.29,8.64,51.84,51.84,0,0,0-10.55,13,52.36,52.36,0,0,0-6,15.85,37.81,37.81,0,0,0-.12,15.84,31.32,31.32,0,0,0,5.83,12.8,30.16,30.16,0,0,0,10.93,8.73A33.71,33.71,0,0,0,784,196.67a49.27,49.27,0,0,0,18.21-3.47,55.69,55.69,0,0,0,15.9-9.58l.64-.5-.43-.51a9.37,9.37,0,0,0-3.26-4.07,7.24,7.24,0,0,0-4.2-1.19,15.73,15.73,0,0,0-4.88.85q-2.58.86-5.41,1.69a64.17,64.17,0,0,1-6.36,1.53,38.23,38.23,0,0,1-7.24.68,16.11,16.11,0,0,1-4.65-.77,11.36,11.36,0,0,1-4.72-3,15.76,15.76,0,0,1-3.57-6,23.69,23.69,0,0,1-.82-9.91c1.13.22,3.28.59,6.43,1.1a72.18,72.18,0,0,0,11.31.76,68,68,0,0,0,10.23-.93A47.24,47.24,0,0,0,812.77,160,35.94,35.94,0,0,0,823,153.2a20.58,20.58,0,0,0,6-11.27q1.46-7.11-.89-12.2A19.9,19.9,0,0,0,821.32,121.51ZM810.11,139.9a12,12,0,0,1-6,8,25.74,25.74,0,0,1-9.83,2.88,42.65,42.65,0,0,1-10.43-.25,53.15,53.15,0,0,1-7.76-1.61,34.41,34.41,0,0,1,5-9.49,26.63,26.63,0,0,1,5.88-5.76,19.55,19.55,0,0,1,5.82-2.8,27.38,27.38,0,0,1,4.81-.93q7.35-.33,10.55,2.71A6.82,6.82,0,0,1,810.11,139.9Z"/><path class="cls-16" d="M860.19,114.93l2-10.4c.69-3.38,1.27-6,1.76-8.07s.91-3.69,1.28-4.93.74-2.39,1-3.18q-10.85,0-17.43,4.42t-8.65,14.58l-10.16,49q-2.07,10.17-.86,17.72A29.86,29.86,0,0,0,834,186.67a23,23,0,0,0,8.75,7.63,25.5,25.5,0,0,0,23.8-.85,17.07,17.07,0,0,0,4.76-4.15,12.94,12.94,0,0,0,2.54-5.51,10,10,0,0,0,.17-2.54,4.49,4.49,0,0,1,.06-1.19c-1.14.34-2.33.68-3.58,1a26.69,26.69,0,0,1-6.57.85q-7.65,0-11.27-5.76a19.32,19.32,0,0,1-2-7.88,40.39,40.39,0,0,1,1.11-11.24l5.08-23.37h6.75c5.45,0,10-2.51,13.55-5.56s5.89-8.86,6.93-13.19Z"/><path class="cls-17" d="M346.3,180.39a9.31,9.31,0,0,1,3.25,4.06l.43.51-.63.5A55.31,55.31,0,0,1,333.49,195a49.1,49.1,0,0,1-18.17,3.47,33.71,33.71,0,0,1-14.69-3.13,30,30,0,0,1-10.9-8.71,31.27,31.27,0,0,1-5.82-12.76,38,38,0,0,1,.12-15.8,52.36,52.36,0,0,1,16.49-28.74,50.05,50.05,0,0,1,14.25-8.62,45.39,45.39,0,0,1,17.05-3.21,43.51,43.51,0,0,1,10.61,1.43,31.32,31.32,0,0,1,10.15,4.57,19.87,19.87,0,0,1,6.83,8.2q2.34,5.07.89,12.17a20.58,20.58,0,0,1-6,11.24,35.87,35.87,0,0,1-10.24,6.76,47.25,47.25,0,0,1-11.59,3.38,67.63,67.63,0,0,1-10.21.93,71.78,71.78,0,0,1-11.28-.76c-3.14-.51-5.28-.87-6.41-1.1a23.76,23.76,0,0,0,.81,9.89,15.59,15.59,0,0,0,3.57,6,11.37,11.37,0,0,0,4.71,3,15.9,15.9,0,0,0,4.63.76,38.2,38.2,0,0,0,7.23-.67,64.39,64.39,0,0,0,6.34-1.53c1.89-.56,3.68-1.12,5.39-1.69a15.64,15.64,0,0,1,4.87-.84A7.18,7.18,0,0,1,346.3,180.39Zm-17.41-48.51a27.38,27.38,0,0,0-4.79.93,19.42,19.42,0,0,0-5.81,2.78,26.74,26.74,0,0,0-5.86,5.75,34.26,34.26,0,0,0-4.94,9.47,52.82,52.82,0,0,0,7.73,1.6,42.47,42.47,0,0,0,10.41.26,26,26,0,0,0,9.8-2.88,11.92,11.92,0,0,0,6-7.94,6.78,6.78,0,0,0-2-7.27Q336.23,131.54,328.89,131.88Z"/></svg>