<?xml version="1.0" encoding="utf-8"?>
<!-- Generator: Adobe Illustrator 22.1.0, SVG Export Plug-In . SVG Version: 6.00 Build 0)  -->
<svg version="1.1" id="Livello_1" xmlns="http://www.w3.org/2000/svg" xmlns:xlink="http://www.w3.org/1999/xlink" x="0px" y="0px"
	 width="218px" height="47.7px" viewBox="0 0 218 47.7" style="enable-background:new 0 0 218 47.7;" xml:space="preserve">
<style type="text/css">
	.st0{fill:#46a0c3;}
	.st1{fill:#46a0c3;}
</style>
<g>
	<title>Logo</title>
	<path class="st0" d="M25.9,6.8v18.8c0,5.1-2.1,12.9-12.9,12.9c-10.8,0-13-7.7-13-12.9V6.8h6.7v18.8c0,1.5,0.3,7.3,6.3,7.3
		s6.2-5.8,6.2-7.3V6.8H25.9z"/>
	<path class="st0" d="M60.1,38.1H53L39.1,17.6v20.5h-6.7V6.8h7.1l13.9,20.6V6.8h6.7V38.1z"/>
	<path class="st0" d="M73.3,38.1h-6.7V20.1l6.7-3.6V38.1z"/>
	<path class="st1" d="M73.3,11.4l-6.7,3.6v-4.9h6.7V11.4z"/>
	<path class="st1" d="M73.3,11.4h-6.7V6.5l6.7,3.6V11.4z"/>
	<path class="st0" d="M107.5,40.9l-4.1-4.5c-2.4,1.6-5.3,2.1-8.5,2.1c-8.9,0-16.1-6.9-16.1-16c0-9.1,7.2-16,16.1-16
		c8.8,0,16.1,6.9,16.1,16c0,3.8-1.3,7.2-3.4,10c1.3,1.4,3,3.2,4.2,4.4L107.5,40.9z M99.2,31.9L95,27.4l4.3-4l3.8,4.3
		c0.7-1.5,1.1-3.4,1.1-5.2c0-5.3-3.8-10.4-9.3-10.4c-5.6,0-9.4,5-9.4,10.4c0,5,3.5,10.5,9.4,10.5C96.4,32.9,97.9,32.7,99.2,31.9z"/>
	<g>
		<path class="st1" d="M136.2,20.5c0-4.6-3.6-8.3-7.9-8.3h-8.8v23h2.4v-6.4h6.4C132.6,28.8,136.2,25.1,136.2,20.5z M121.9,27V14h6.3
			c3.1,0,5.6,2.9,5.6,6.5s-2.5,6.5-5.6,6.5H121.9z"/>
		<polygon class="st1" points="141.5,12.2 141.5,35.2 156.1,35.2 156.1,33.4 144,33.4 144,12.2 		"/>
		<path class="st1" d="M174.2,28.9l2.4,6.3h2.6l-9.5-23h-1.4l-9.5,23h2.6l2.4-6.3H174.2z M169,15.3l4.5,11.8h-8.9L169,15.3z"/>
		<polygon class="st1" points="199.5,12.2 191.8,24 184.1,12.2 181.2,12.2 190.6,26 190.6,35.2 193,35.2 193,26 202.5,12.2 		"/>
	</g>
	<g>
		<path class="st1" d="M209.4,7.7h-2v5.6H206V7.7h-2V6.5h5.4V7.7z"/>
		<path class="st1" d="M218,13.3h-1.4v-4l-2,4h-0.9l-2-4v4h-1.4V6.5h1.6l2.3,4.6c0.8-1.5,1.6-3.1,2.3-4.6h1.6V13.3z"/>
	</g>
</g>
</svg>
