<?xml version="1.0" encoding="utf-8"?>
<!-- Generator: Adobe Illustrator 22.1.0, SVG Export Plug-In . SVG Version: 6.00 Build 0)  -->
<svg version="1.1" id="Layer_1" xmlns="http://www.w3.org/2000/svg" xmlns:xlink="http://www.w3.org/1999/xlink" x="0px" y="0px"
	 width="400px" height="72px" viewBox="0 0 400 72" style="enable-background:new 0 0 400 72;" xml:space="preserve">
<style type="text/css">
	.st0{fill:#7A9199;}
</style>
<g>
	<path class="st0" d="M95.7,48.7c0.2-0.1,0.3-0.2,0.4-0.2c4.1-0.7,5.3-2.1,5.3-6.3c0-7.7,0-15.4,0-23.2c0-3.7-2-5.8-5.7-5.7
		c-6,0-12,0.1-18,0.2c-3.4,0.1-6.3-2.5-6.8-6c-0.4-3.3,1.8-6.5,5-7.2C76.8,0.1,77.7,0,78.5,0C84.4,0,90.2,0,96,0
		c10.7,0.1,18.6,8,18.7,18.6c0,8.1,0,16.3,0,24.4c0,9.1-5.9,16.3-14.8,18.3c-0.2,0-0.4,0.1-0.6,0.1c-2.1,0.3-2.2,0.2-2.2-1.9
		c0-3.5,0.3-6.9-1.3-10.2C95.7,49.1,95.7,48.9,95.7,48.7z"/>
	<path class="st0" d="M53,34.4c0-3.4-0.1-6.7,0-10.1c0.1-3.1,2.5-5.7,5.3-6.2c3.3-0.6,6.2,0.9,7.5,3.9c0.4,0.9,0.5,2,0.5,3.1
		c0,6.1-0.1,12.2-0.1,18.3c0,3,2.1,5,5.1,5.1c3.8,0,7.6,0,11.3,0c5-0.1,7.8,2.6,7.8,7.6c0,3.2,0.1,6.3,0,9.5
		C90.3,69,88.2,71.4,85,72c-2.9,0.5-5.9-1-7.1-3.8c-0.5-1.1-0.6-2.4-0.6-3.7c-0.1-2.8,0-2.8-2.9-2.8c-3.3,0-6.5,0.1-9.6-1.2
		C58,57.8,53.2,51.3,53,44C53,40.8,53,37.6,53,34.4L53,34.4z"/>
	<path class="st0" d="M59.7,0.3c3.8,0,6.5,2.7,6.5,6.4s-2.7,6.5-6.5,6.5c-3.7,0-6.5-2.8-6.4-6.5C53.3,3,56,0.3,59.7,0.3z"/>
</g>
<g>
	<path class="st0" d="M142,14.7v-4.5h7.5v4.5H142z M142,58.4V23h7.5v35.4H142z"/>
	<path class="st0" d="M169.5,23.3c1.4-0.4,2.8-0.6,4.2-0.6c2.8,0,5.5,0.7,8,2c1.4,0.7,2.2,1,2.3,1s0.1-0.5,0.1-1.5v-1.6h7.6v48.5
		h-7.6V55l-2.1,1c-2.9,1.2-5.7,1.9-8.4,1.9c-4.4,0-8.2-1.4-11.5-4.3c-3.2-2.9-5.2-6.5-5.9-10.7c-0.1-1.2-0.2-2.1-0.2-2.7
		c0-3.9,1.2-7.4,3.7-10.5C162.3,26.4,165.5,24.3,169.5,23.3z M183.8,40.3c0-2.4-1-4.7-3-6.8s-4.3-3.2-7-3.2c-0.5,0-1.1,0.1-1.9,0.2
		c-2.5,0.6-4.5,1.8-5.9,3.6s-2.2,3.9-2.2,6.1c0,2.8,1.1,5.3,3.3,7.3c1.9,1.7,4.1,2.6,6.6,2.6c2.4,0,4.7-0.9,6.7-2.8
		C182.7,45.4,183.8,43,183.8,40.3z"/>
	<path class="st0" d="M228.1,1.2c0.8-0.3,1.5-0.4,2.2-0.4c1.2,0,2.2,0.2,3,0.7c0.9,0.7,1.5,1.9,1.7,3.6c0.2,1.8,0.3,6.9,0.3,15.4
		v15.9h2.6v9.1h-2.6v13.2h-9.5V45.5h-24.1l-1.3-1.2c-1.1-1-1.7-2-1.7-3.2c0-0.5,0.2-1.2,0.5-2c0.5-1.1,5.4-7.7,14.5-19.7
		S227.7,1.4,228.1,1.2z M225.8,27.8l-0.1-8.5c-0.1,0-2.2,2.7-6.4,8.2S213,35.8,213,36s2.1,0.3,6.3,0.3h6.5V27.8z"/>
	<path class="st0" d="M244.9,58.4V9.9h7.5V18c0,5.4,0.1,8.1,0.2,8.1c0.1,0,0.9-0.4,2.4-1.1c2.4-1.2,4.9-1.8,7.7-1.8
		c4.7,0,8.8,1.6,12.1,4.7c3.7,3.5,5.5,7.7,5.5,12.8c0,4.9-1.7,9.1-5,12.4c-3.5,3.5-7.6,5.2-12.3,5.2c-2.9,0-5.7-0.7-8.4-2l-2.2-1v3
		h-7.5V58.4z M266.9,31.9c-1.2-0.6-2.7-0.9-4.2-0.9c-2.8,0-5.1,0.9-6.9,2.7c-2,1.8-3,4.2-3,7c0,1.3,0.3,2.6,0.8,3.8
		c1.8,4.1,4.9,6.1,9.1,6.1c2.5,0,4.8-0.9,6.8-2.8c2.1-2,3.2-4.3,3.2-7.1c0-1.8-0.5-3.5-1.6-5.2S268.6,32.6,266.9,31.9z"/>
	<path class="st0" d="M295.8,25.2c2.6-1.3,5.5-2,8.7-2h1.3c5.3,0.3,9.5,2.1,12.6,5.4s4.6,7.8,4.6,13.5v2.8h-13.8
		c-9.1,0-13.7,0.1-13.7,0.2c0,0.1,0.2,0.5,0.5,1.2c1,1.7,2.6,3,4.7,3.8c1.2,0.5,2.6,0.7,4.1,0.7c2.2,0,4.1-0.5,5.7-1.4
		c1-0.5,1.8-0.9,2.3-1c0.6-0.1,1.9-0.2,3.9-0.2c2.9,0,4.3,0.1,4.3,0.3c0,0.3-0.5,1.2-1.5,2.5s-2,2.4-2.8,3.1
		c-2.8,2.6-6.3,3.9-10.5,4.1H305c-5.3,0-9.6-1.6-12.9-4.9c-3.3-3.2-4.9-7.6-4.9-12.9C287.1,33.1,290,28,295.8,25.2z M309.9,31.8
		c-1.4-0.7-3.1-1.1-5-1.1c-3.5,0-6.1,1-7.9,3c-1.4,1.4-2.1,2.5-2.1,3.2c0,0.3,3.2,0.4,9.7,0.4c6.6,0,9.8-0.1,9.8-0.4
		c0-0.7-0.7-1.7-2.1-3.2C311.7,32.8,310.9,32.2,309.9,31.8z"/>
	<path class="st0" d="M334.8,19.7v-9.5h7.5v9.5h5.2v7.5h-5.2v31.2h-7.5V27.1h-4.9v-7.5h4.9V19.7z"/>
</g>
</svg>
