<?xml version="1.0" encoding="utf-8"?>
<!-- Generator: Adobe Illustrator 22.1.0, SVG Export Plug-In . SVG Version: 6.00 Build 0)  -->
<svg version="1.1" id="Layer_1" xmlns="http://www.w3.org/2000/svg" xmlns:xlink="http://www.w3.org/1999/xlink" x="0px" y="0px"
	 width="400px" height="72px" viewBox="0 0 400 72" style="enable-background:new 0 0 400 72;" xml:space="preserve">
<style type="text/css">
	.st0{fill:#4D63A3;}
</style>
<g>
	<path class="st0" d="M52.1,2.4l0,13.6c0,0.4-0.1,0.7-0.4,0.9c-0.3,0.3-0.6,0.4-1,0.4l-15,0l0,50.9c0,0.4-0.1,0.7-0.4,1
		c-0.3,0.3-0.6,0.4-1,0.4l-16.6,0c-0.4,0-0.7-0.1-0.9-0.4c-0.3-0.3-0.4-0.6-0.4-1l0-50.9l-15,0c-0.4,0-0.7-0.1-1-0.4
		c-0.3-0.3-0.4-0.6-0.4-0.9l0-13.6c0-0.4,0.1-0.7,0.4-1C0.7,1.1,1,1,1.5,1l49.3,0c0.4,0,0.7,0.1,1,0.4C52,1.6,52.1,2,52.1,2.4z"/>
	<path class="st0" d="M72,17.4l-16.5,0c-0.4,0-0.7-0.1-1-0.4c-0.3-0.3-0.4-0.6-0.4-1l0-13.6c0-0.4,0.1-0.7,0.4-1
		c0.3-0.3,0.6-0.4,1-0.4L72,1c0.4,0,0.7,0.1,1,0.4c0.3,0.3,0.4,0.6,0.4,1l0,13.6c0,0.4-0.1,0.7-0.4,1C72.7,17.2,72.4,17.4,72,17.4z
		 M72,69.6l-16.5,0c-0.4,0-0.7-0.1-1-0.4c-0.3-0.3-0.4-0.6-0.4-1l0-43.3c0-0.4,0.1-0.7,0.4-1c0.3-0.3,0.6-0.4,1-0.4l16.5,0
		c0.4,0,0.7,0.1,1,0.4c0.3,0.3,0.4,0.6,0.4,1l0,43.3c0,0.4-0.1,0.7-0.4,1C72.7,69.4,72.4,69.6,72,69.6z"/>
	<path class="st0" d="M144.7,69.6l-15.8,0c-0.4,0-0.7-0.1-0.9-0.4c-0.3-0.3-0.4-0.6-0.4-1l0-27.2c0-0.5-0.1-1.1-0.4-1.6
		c-0.6-1.1-1.5-1.6-2.7-1.6c-0.9,0-1.6,0.3-2.2,0.9c-0.6,0.6-0.9,1.4-0.9,2.3l0,27.2c0,0.4-0.1,0.7-0.4,1s-0.6,0.4-1,0.4l-17.2,0
		c-0.4,0-0.7-0.1-0.9-0.4c-0.3-0.3-0.4-0.6-0.4-1l0-27.2c0-0.5-0.1-1.1-0.4-1.6c-0.6-1.1-1.5-1.6-2.7-1.6c-0.9,0-1.6,0.3-2.2,0.9
		c-0.6,0.6-0.9,1.4-0.9,2.3l0,27.2c0,0.4-0.1,0.7-0.4,1c-0.3,0.3-0.6,0.4-1,0.4l-17.2,0c-0.4,0-0.7-0.1-1-0.4
		c-0.3-0.3-0.4-0.6-0.4-1l0-44.4c0-0.4,0.1-0.7,0.4-1c0.3-0.3,0.6-0.4,1-0.4l13.2,0c2.5-0.6,5.1-1,8-1c4.9,0,9.1,1,12.8,2.9
		c3.6-2,7.9-2.9,12.8-2.9c3.6,0,6.9,0.5,9.7,1.6c2.9,1.1,5.2,2.5,7.1,4.3c1.9,1.8,3.3,4,4.2,6.4c1,2.4,1.4,5.1,1.4,7.9l0,26.5
		c0,0.4-0.1,0.7-0.4,1C145.4,69.4,145.1,69.6,144.7,69.6z"/>
	<path class="st0" d="M176.7,21.6c5.8,0.5,10.8,2.8,15.1,6.9c4.2,4.1,6.7,9.1,7.3,14.9c0.4,3.6,0,7.1-1.2,10.5
		c-1.1,3.4-2.8,6.3-5,8.7c-2.2,2.4-4.9,4.4-8.1,5.9c-3.2,1.5-6.6,2.2-10.1,2.2c-2.5,0-5-0.4-7.3-1.1v0.1l-18,0
		c-0.4,0-0.7-0.1-0.9-0.4c-0.3-0.3-0.4-0.6-0.4-0.9l0-66.9c0-0.4,0.1-0.7,0.4-0.9c0.3-0.3,0.6-0.4,0.9-0.4L166,0
		c0.4,0,0.7,0.1,1,0.4c0.3,0.3,0.4,0.6,0.4,0.9l0,21.3C170.3,21.7,173.5,21.3,176.7,21.6z M169.8,50.9c1.3,1.3,2.9,2,4.8,2
		c1.9,0,3.5-0.7,4.9-2s2-3,2-4.9c0-1.9-0.7-3.5-2-4.9c-1.3-1.3-3-2-4.9-2c-1.9,0-3.5,0.7-4.8,2c-1.3,1.3-2,3-2,4.9
		C167.8,48,168.5,49.6,169.8,50.9z"/>
	<path class="st0" d="M247.7,36c1.6,3.5,2.5,7.2,2.7,11.3c0,0.7-0.3,1.2-1,1.3l-26,5.8c1.1,0.6,2.4,0.9,3.7,0.9
		c2.2,0,4.2-0.7,5.9-2.1c0.3-0.3,0.7-0.4,1.1-0.3c0.4,0,0.7,0.2,0.9,0.5l7.1,10.5c0.5,0.7,0.4,1.3-0.2,1.8c-4.6,4-10,6-16,6
		c-4.4,0-8.5-1.1-12.3-3.3c-3.8-2.2-6.7-5.2-8.9-8.9c-2.2-3.8-3.3-7.9-3.3-12.4v-0.1c0-0.6,0-1.3,0.1-2c0.5-6.3,3.1-11.6,7.8-15.9
		c4.7-4.3,10.2-6.5,16.6-6.5c4.8,0,9.1,1.2,13,3.6C242.7,28.5,245.6,31.8,247.7,36z M228.8,37.1c-1.8,0-3.5,0.4-5,1.2
		c-1.6,0.8-2.7,1.8-3.4,3.1c-0.1,0.1-0.1,0.3,0,0.4c0.1,0.1,0.2,0.1,0.3,0.1l12.7-2.7c0.1,0,0.2-0.1,0.2-0.3c0-0.1,0-0.3-0.1-0.3
		C232.3,37.5,230.7,37.1,228.8,37.1z"/>
	<path class="st0" d="M272.8,25.3c3.6-1.2,7.3-1.9,11.2-1.9c0.6,0,1.2,0,1.9,0.1c0.4,0,0.7,0.2,0.9,0.4c0.2,0.3,0.3,0.6,0.3,0.9
		l0,13.8c0,0.4-0.1,0.7-0.4,1c-0.3,0.3-0.6,0.4-1,0.3c-0.6,0-1.1-0.1-1.6-0.1c-2.4,0-4.6,0.5-6.7,1.4c-2,1-3.5,2.2-4.5,3.8l0,23
		c0,0.4-0.1,0.7-0.4,1c-0.3,0.3-0.6,0.4-1,0.4l-17.8,0c-0.4,0-0.7-0.1-1-0.4c-0.3-0.3-0.4-0.6-0.4-1l0-43.3c0-0.4,0.1-0.7,0.4-1
		c0.3-0.3,0.6-0.4,1-0.4l17.8,0c0.4,0,0.7,0.1,0.9,0.4c0.3,0.3,0.4,0.6,0.4,0.9V25.3z"/>
	<path class="st0" d="M307,17.4l-16.5,0c-0.4,0-0.7-0.1-1-0.4c-0.3-0.3-0.4-0.6-0.4-1l0-13.6c0-0.4,0.1-0.7,0.4-1
		c0.3-0.3,0.6-0.4,1-0.4L307,1c0.4,0,0.7,0.1,1,0.4c0.3,0.3,0.4,0.6,0.4,1l0,13.6c0,0.4-0.1,0.7-0.4,1
		C307.7,17.2,307.4,17.4,307,17.4z M307,69.6l-16.5,0c-0.4,0-0.7-0.1-1-0.4c-0.3-0.3-0.4-0.6-0.4-1l0-43.3c0-0.4,0.1-0.7,0.4-1
		c0.3-0.3,0.6-0.4,1-0.4l16.5,0c0.4,0,0.7,0.1,1,0.4c0.3,0.3,0.4,0.6,0.4,1l0,43.3c0,0.4-0.1,0.7-0.4,1
		C307.7,69.4,307.4,69.6,307,69.6z"/>
	<path class="st0" d="M348.7,23.6c0.4,0,0.7,0.1,0.9,0.4c0.3,0.3,0.4,0.6,0.4,1l0,13.6c0,0.4-0.1,0.7-0.4,1
		c-0.3,0.3-0.6,0.4-0.9,0.4l-8.9,0l0,28.3c0,0.4-0.1,0.7-0.4,1c-0.3,0.3-0.6,0.4-0.9,0.4l-16.6,0c-0.4,0-0.7-0.1-0.9-0.4
		c-0.3-0.3-0.4-0.6-0.4-1l0-28.3l-8.9,0c-0.4,0-0.7-0.1-0.9-0.4c-0.3-0.3-0.4-0.6-0.4-1l0-13.6c0-0.4,0.1-0.7,0.4-1
		c0.3-0.3,0.6-0.4,0.9-0.4l8.9,0l0-11.9c0-0.4,0.1-0.7,0.4-0.9c0.3-0.3,0.6-0.4,0.9-0.4l16.6,0c0.4,0,0.7,0.1,0.9,0.4
		c0.3,0.3,0.4,0.6,0.4,0.9l0,11.9L348.7,23.6z"/>
	<path class="st0" d="M363.1,25.7c3.8-2.2,7.9-3.3,12.3-3.3c4.4,0,8.5,1.1,12.3,3.3c3.8,2.2,6.8,5.2,8.9,8.9
		c2.2,3.8,3.3,7.9,3.3,12.3c0,4.5-1.1,8.6-3.3,12.3c-2.2,3.7-5.2,6.7-8.9,8.9c-3.8,2.2-7.9,3.3-12.3,3.3c-4.4,0-8.5-1.1-12.3-3.3
		c-3.8-2.2-6.8-5.2-8.9-8.9c-2.2-3.7-3.3-7.9-3.3-12.3c0-4.5,1.1-8.6,3.3-12.3C356.4,30.9,359.4,27.9,363.1,25.7z M370.6,51.9
		c1.3,1.3,2.9,2,4.9,2c1.9,0,3.5-0.7,4.9-2c1.3-1.3,2-3,2-4.9c0-1.9-0.7-3.5-2-4.9c-1.3-1.3-2.9-2-4.9-2c-1.9,0-3.5,0.7-4.9,2
		c-1.3,1.3-2,3-2,4.9C368.6,48.9,369.3,50.6,370.6,51.9z"/>
</g>
</svg>
