<?xml version="1.0" encoding="utf-8"?>
<!-- Generator: Adobe Illustrator 22.1.0, SVG Export Plug-In . SVG Version: 6.00 Build 0)  -->
<svg version="1.1" id="Layer_1" xmlns="http://www.w3.org/2000/svg" xmlns:xlink="http://www.w3.org/1999/xlink" x="0px" y="0px"
	 width="1878.5px" height="425.6px" viewBox="0 0 1878.5 425.6" style="enable-background:new 0 0 1878.5 425.6;"
	 xml:space="preserve">
<style type="text/css">
	.st0{fill:none;}
	.st1{fill:#6f6f6f;}
	.st2{fill:#6f6f6f;}
	
</style>
<title>01_BetuniQ-Logo-crop</title>
<g>
	<path class="st0" d="M86.1,285.2c8.9,3.6,16.4,3.9,24,3.9c14.8,0,39.8-7.9,39.8-42.1c0-20.4-6.9-48-31.8-65.4
		c-6.9-4.9-14.5-7.2-27.3-7.9c-5.9-0.3-9.2-0.3-14.1-0.3c-1.3,0-2,0.7-2,2.3v77.9C74.6,275.4,75.6,281,86.1,285.2z"/>
	<path class="st0" d="M1399.6,372.1c-0.9-0.3-2.5-0.5-4.8-0.5h-14.3l-3.1,14.8h8.1c3.8,0,6.2-0.1,7.4-0.2c2.2-0.2,4-0.7,5.4-1.5
		c1.4-0.8,2.5-1.8,3.3-3.1c0.8-1.3,1.2-2.7,1.2-4.3c0-1.3-0.3-2.4-0.9-3.3C1401.3,373.1,1400.5,372.4,1399.6,372.1z"/>
	<path class="st0" d="M194,371.6c-1,2.5-2.5,5.5-4.4,9l-7.2,13h14.5l-1.7-11C194.5,378.1,194.1,374.5,194,371.6z"/>
	<path class="st0" d="M76.9,159.1c3,0.7,7.9,1,15.4,1c10.8,0,18.1-1.3,23.7-6.2c8.6-6.9,13.5-18.7,13.5-34.8c0-22-12.8-51-41.1-51
		c-4.6,0-7.6,0-10.8,0.7c-2.3,0.7-3,2-3,5.6v81.2C74.6,158.1,75.6,158.7,76.9,159.1z"/>
	<path class="st0" d="M1709.7,22.4c0-4.2-3-6-7.5-6.1c-2,0-3.5,0.2-4.2,0.4v11.9h4.3C1706.8,28.6,1709.7,26.1,1709.7,22.4z"/>
	<path class="st0" d="M1703.2,58.2c15,0,27.1-12.1,27.1-27.1c0-14.9-12.1-27.1-27.1-27.1c-14.9,0-27,12.1-27,27.1
		C1676.2,46.1,1688.3,58.2,1703.2,58.2z M1693.8,13.8c2.1-0.4,5.2-0.7,8.1-0.7c4.5,0,7.4,0.8,9.4,2.6c1.6,1.5,2.5,3.7,2.5,6.2
		c0,4.3-2.7,7.1-6.1,8.3v0.2c2.5,0.9,4,3.2,4.8,6.6c1.1,4.5,1.9,7.7,2.5,8.9h-4.3c-0.5-0.9-1.3-3.7-2.2-7.8c-1-4.5-2.7-6.2-6.5-6.3
		h-4v14.1h-4.2V13.8z"/>
	<path class="st0" d="M1490.6,40.7c-46.5,0-88.1,29.9-88.1,112.3c0,84.6,51.2,131.5,108.4,131.5c28.4,0,82.1-12.4,82.1-116.5
		C1592.9,81.9,1539.7,40.7,1490.6,40.7z"/>
	<path class="st1" d="M102.5,304c60.5,0,87.7-36.5,87.7-71.6c0-38.4-32.9-61.8-59.8-71c18.1-14.4,33.5-30.6,33.5-57.5
		c0-17.4-10.5-49.3-70-49.3c-11.2,0-24,1-40.1,1c-6.6,0-27.3-1-44.7-1c-4.9,0-7.2,0.7-7.2,3c0,2.3,2,3,5.6,3c4.6,0,10.2,0.3,12.8,1
		c10.8,2.3,13.5,7.6,14.1,18.7c0.7,10.5,0.7,19.7,0.7,69.7v57.8c0,30.2,0,56.2-1.6,70c-1.3,9.5-3,16.8-9.5,18.1
		c-3,0.7-6.9,1.3-11.8,1.3c-3.9,0-5.3,1-5.3,2.6c0,2.3,2.3,3.3,6.6,3.3c6.6,0,15.1-0.7,22.7-0.7c7.9-0.3,15.1-0.3,18.7-0.3
		c4.9,0,14.8,0.3,24.6,1C89.1,303.3,98.6,304,102.5,304z M74.6,74.3c0-3.6,0.6-4.9,3-5.6C80.9,68,83.8,68,88.4,68
		c28.3,0,41.1,28.9,41.1,51c0,16.1-4.9,27.9-13.5,34.8c-5.6,4.9-12.8,6.2-23.7,6.2c-7.6,0-12.5-0.3-15.4-1c-1.3-0.3-2.3-1-2.3-3.6
		V74.3z M74.6,175.8c0-1.6,0.6-2.3,2-2.3c4.9,0,8.2,0,14.1,0.3c12.8,0.7,20.4,3,27.3,7.9c25,17.4,31.8,45,31.8,65.4
		c0,34.2-24.9,42.1-39.8,42.1c-7.6,0-15.1-0.3-24-3.9c-10.5-4.3-11.5-9.9-11.5-31.5V175.8z"/>
	<path class="st1" d="M382.8,253c-2.3,0-3,1.3-3.6,4.9c-2.3,13.5-6.3,20.4-14.8,24.3c-8.5,3.9-22.3,3.9-30.9,3.9
		c-33.5,0-38.8-4.9-39.4-27.6c-0.3-9.6,0-39.8,0-51v-25.9c0-2,0.3-3.3,2-3.3c7.9,0,40.4,0.3,46.7,1c12.2,1.3,16.8,6.2,18.4,12.8
		c1,4.3,1,8.5,1.3,11.8c0,1.7,0.7,3,3,3c3,0,3-3.6,3-6.2c0-2.3,1-15.4,1.3-22c1.3-16.8,2.6-22,2.6-24c0-2-1-2.6-2.3-2.6
		c-1.6,0-3,1.7-5.3,4.3c-3,3.3-7.9,4.3-15.8,4.9c-7.6,0.6-45.3,0.6-52.6,0.6c-2,0-2.3-1.3-2.3-3.6V75.3c0-2.3,0.7-3.3,2.3-3.3
		c6.6,0,41.1,0.7,46.7,1.3c16.4,2,19.7,5.9,22,11.8c1.6,3.9,2,9.5,2,11.8c0,3,0.7,4.6,3,4.6c2.3,0,3-2,3.3-3.6
		c0.7-3.9,1.3-18.4,1.6-21.7c1-15.1,2.6-19.1,2.6-21.4c0-1.6-0.3-3-2-3c-1.6,0-3.6,1-5.3,1.3c-2.6,0.6-7.9,1.3-14.1,2
		c-6.3,0.3-71.6,0.3-82.2,0.3c-4.6,0-12.1-0.3-20.7-0.7c-8.2,0-17.7-0.3-26.6-0.3c-4.9,0-7.2,0.7-7.2,3c0,2.3,2,3,5.6,3
		c4.6,0,10.2,0.3,12.8,1c10.8,2.3,13.5,7.6,14.1,18.7c0.6,10.5,0.6,19.7,0.6,69.7v57.8c0,30.2,0,56.2-1.6,70
		c-1.3,9.5-3,16.8-9.5,18.1c-3,0.7-6.9,1.3-11.8,1.3c-3.9,0-5.3,1-5.3,2.6c0,2.3,2.3,3.3,6.6,3.3c6.6,0,15.1-0.7,22.7-0.7
		c7.9-0.3,15.1-0.3,18.8-0.3c9.9,0,20.1,0.3,34.2,1c14.1,0.3,32.2,1,56.9,1c12.5,0,15.4,0,17.7-8.5c1.7-6.6,4.3-28.9,4.3-36.5
		C385.5,255.7,385.5,253,382.8,253z"/>
	<path class="st1" d="M624,97.3c0-8.5,1-31.2,1-38.1c0-4.9-0.3-6.9-2.6-6.9c-1.3,0-4,0.7-8.9,1.6c-4.9,0.7-12.2,1.7-22.7,1.7H460.7
		c-10.9,0-23.3-0.7-32.9-1.7c-8.2-0.6-11.5-3.9-14.1-3.9c-2,0-3,2-3.9,6.3c-0.6,2.6-6.9,32.5-6.9,37.8c0,3.6,0.7,5.2,3,5.2
		c2,0,3-1.3,3.6-3.9c0.6-2.6,2.3-6.6,5.6-11.5c4.9-7.2,12.8-8.9,31.9-9.6l49-1.3v134.7c0,30.2,0,56.2-1.6,70c-1,9.5-3,16.8-9.5,18.1
		c-3,0.7-6.9,1.3-11.8,1.3c-3.9,0-5.3,1-5.3,2.6c0,2.3,2.3,3.3,6.6,3.3c13.1,0,33.8-1,41.4-1c9.2,0,29.9,1,51.6,1
		c3.6,0,6.2-1,6.2-3.3c0-1.7-1.6-2.6-5.2-2.6c-4.9,0-12.2-0.6-16.8-1.3c-9.9-1.3-11.8-8.5-12.8-17.7c-1.6-14.1-1.6-40.1-1.6-70.3V73
		l41.4,1c29.2,0.7,38.1,9.9,38.8,18.4l0.3,3.6c0.3,4.9,1,6.6,3.6,6.6C623,102.5,623.7,100.6,624,97.3z"/>
	<path class="st2" d="M886.2,54.6c-12.8,0-33.5,1-37.5,1c-0.3,0-21-1-37.8-1c-4.6,0-6.9,0.7-6.9,3c0,2.3,2,3,5.6,3
		c3.6,0,9.2,0.3,11.8,1c10.9,2.3,13.5,7.6,14.2,18.7c0.6,10.5,0.6,19.7,0.6,69.7v41.1c0,33.8-1,63.4-19.1,81.5
		c-13.2,13.2-30.9,17.7-45.3,17.7c-11.2,0-26.3-1.3-41.1-13.5c-16.1-13.1-25.6-33.2-25.6-80.8v-46c0-50,0-59.1,0.6-69.7
		c0.7-11.5,3.3-17.1,12.2-18.7c3.9-0.6,5.9-1,9.5-1c3.3,0,5.3-0.7,5.3-3c0-2.3-2.3-3-7.2-3c-11.8,0-32.5,1-40.4,1
		c-9.9,0-30.6-1-48-1c-4.9,0-7.2,0.7-7.2,3c0,2.3,2,3,5.6,3c4.6,0,10.2,0.3,12.8,1c10.8,2.3,13.5,7.6,14.1,18.7
		c0.7,10.5,0.7,19.7,0.7,69.7v48c0,47.6,12.5,72,29.2,87.1c24,21.7,55.5,22.7,73,22.7c21.3,0,45-3.6,68.3-23.7
		c27.6-23.7,31.2-62.4,31.2-98.9v-35.2c0-50,0-59.1,0.7-69.7c0.7-11.5,3.3-17.1,12.2-18.7c3.9-0.6,5.9-1,9.5-1c3.9,0,5.9-0.7,5.9-3
		C893.1,55.2,890.8,54.6,886.2,54.6z"/>
	<path class="st2" d="M1179.3,54.6c-16.1,0-28.6,1-32.2,1c-6.9,0-22.7-1-39.8-1c-4.9,0-8.6,0.3-8.6,3c0,2,1.3,3,5.3,3
		c4.6,0,12.5,0,17.4,2c7.9,3.3,10.9,9.5,11.2,29.6l3.3,147.5h-1.6c-5.6-5.3-50-52.6-72.3-74.9C1014,117,964.1,63.4,960.1,59.2
		C954.5,53.3,951.6,49,948,49c-3.3,0-4.3,4.6-4.3,11.2l-3,194.5c-0.3,28.6-1.6,38.1-10.2,40.8c-4.6,1.3-10.5,1.6-14.8,1.6
		c-3.3,0-5.3,0.7-5.3,2.6c0,3,3,3.3,7.2,3.3c17.1,0,32.5-1,35.5-1c6.2,0,19.4,1,40.8,1c4.6,0,7.5-0.7,7.5-3.3c0-2-2-2.6-5.6-2.6
		c-5.3,0-11.5-0.3-17.1-2.3c-6.6-2.3-10.9-10.8-11.5-36.5l-3.6-138h1c5.9,6.2,42.4,47.3,78.2,82.8c34.2,33.9,76.2,76.9,96.9,96.6
		c3.6,3.6,7.6,7.2,11.2,7.2c3,0,4.3-3,4.3-10.2l3.6-207.3c0.3-18.4,3-25.3,12.2-27.9c3.9-1,6.6-1,9.9-1c3.9,0,5.9-1,5.9-3
		C1186.9,54.9,1183.6,54.6,1179.3,54.6z"/>
	<path class="st2" d="M1323.9,297.1c-4.9,0-12.2-0.6-16.8-1.3c-9.9-1.3-12.2-7.2-13.2-16.1c-1.3-14.1-1.3-40.1-1.3-72v-57.8
		c0-50,0-59.1,0.7-69.7c0.6-11.5,3.3-17.1,12.2-18.7c3.9-0.6,6.6-1,9.9-1c3.3,0,5.3-0.7,5.3-3.3c0-2-2.6-2.6-6.9-2.6
		c-12.5,0-31.9,1-40.1,1c-9.5,0-30.2-1-42.7-1c-5.2,0-7.9,0.7-7.9,2.6c0,2.6,1.9,3.3,5.2,3.3c3.9,0,8.2,0.3,11.8,1.3
		c7.2,1.6,10.5,7.2,11.2,18.4c0.6,10.5,0.6,19.7,0.6,69.7v57.8c0,31.9,0,57.8-1.6,71.6c-1,9.5-3,15.1-9.5,16.4
		c-3,0.7-6.9,1.3-11.8,1.3c-3.9,0-5.2,1-5.2,2.6c0,2.3,2.3,3.3,6.6,3.3c13.2,0,33.9-1,41.4-1c8.9,0,29.6,1,51.3,1
		c3.6,0,6.2-1,6.2-3.3C1329.1,298.1,1327.5,297.1,1323.9,297.1z"/>
	<path class="st2" d="M1873.3,339.9c-1.4,0-3.2,1.1-5.3,1.8c-24.5,9.6-50.8,12.4-69.3,12.4c-24.1,0-71.4-3.9-146.4-42.3l-71.4-36.6
		c22.4-14.9,61.8-54.3,61.8-116.9c0-83.1-59-134.7-143.9-134.7c-104.1,0-145.7,79.6-145.7,137.5c0,63.9,40.5,141.1,144.6,141.1
		c18.8,0,41.6-3.9,55.8-9.2l55.8,32.7c58.6,34.4,96.6,48.3,150.3,48.3c51.2,0,91.3-16.3,112.6-26.6c2.5-1.1,4.3-2.1,4.3-4.3
		C1876.5,341.3,1875.1,339.9,1873.3,339.9z M1510.9,284.4c-57.2,0-108.4-46.9-108.4-131.5c0-82.4,41.6-112.3,88.1-112.3
		c49,0,102.3,41.2,102.3,127.2C1592.9,272,1539.3,284.4,1510.9,284.4z"/>
	<path class="st1" d="M88.7,373.5c2.8-1.7,5.7-2.6,8.9-2.6c3.1,0,5.6,0.8,7.5,2.4c1.9,1.6,3.2,3.9,3.8,6.9l5.8-0.6
		c-0.6-3-1.5-5.5-2.8-7.4c-1.3-1.9-3.2-3.4-5.7-4.5c-2.5-1.1-5.3-1.7-8.4-1.7c-4.3,0-8.3,1-11.8,3.1c-3.5,2.1-6.5,5.3-8.8,9.6
		c-2.3,4.3-3.5,9.1-3.5,14.4c0,5.1,1.3,9.3,4,12.6c3.1,3.8,7.9,5.8,14.3,5.8c3,0,6-0.5,9.1-1.4c3.1-1,5.9-2.2,8.3-3.7l3.7-17.9H93.9
		l-1,5h13.3l-2,9.4c-4.4,2.5-8.5,3.8-12.3,3.8c-3.8,0-6.8-1.1-9-3.4c-2.2-2.3-3.3-5.6-3.3-10c0-4.4,0.8-8.4,2.5-11.9
		C83.7,377.8,85.9,375.2,88.7,373.5z"/>
	<path class="st1" d="M191.3,366.8l-24.9,43.9h6.4l7-12.6h17.8l2.1,12.6h5.7l-7.2-43.9H191.3z M182.4,393.5l7.2-13
		c1.9-3.4,3.4-6.4,4.4-9c0.2,2.9,0.6,6.6,1.2,10.9l1.7,11H182.4z"/>
	<path class="st1" d="M312.9,394c-2.9,5.1-4.9,9.1-6.1,12c-0.2-3.4-0.6-7-1.1-10.8l-4.4-28.4h-7.2l-9.1,43.9h5.7l5.8-28
		c0.5-2.3,1-5.3,1.5-9.2c0.2,3.4,0.5,6.4,0.9,9l4.4,28.1h5.7l16.3-28.7c1.9-3.3,3.4-6.4,4.7-9.2c-2,6.1-3.5,11.6-4.5,16.6l-4.6,21.3
		h5.8l9.2-43.9h-7.3L312.9,394z"/>
	<polygon class="st1" points="410.3,410.7 416.1,410.7 425.3,366.8 419.4,366.8 	"/>
	<path class="st1" d="M532.6,392.6c-0.8,3.9-1.5,7.7-2,11.4c-1-3.4-1.9-6.1-2.6-8.1c-1.3-3.4-3.1-7.6-5.4-12.7l-7.4-16.5h-5.7
		l-9.2,43.9h5.7l5.6-26.7c0.9-4.2,1.4-7.7,1.7-10.5c1.1,3.4,2.6,7.4,4.5,11.8l10.9,25.4h5.8l9.2-43.9H538L532.6,392.6z"/>
	<path class="st1" d="M636.2,373.5c2.7-1.7,5.7-2.6,8.9-2.6c3.1,0,5.5,0.8,7.5,2.4c1.9,1.6,3.2,3.9,3.8,6.9l5.7-0.6
		c-0.6-3-1.5-5.5-2.8-7.4c-1.3-1.9-3.2-3.4-5.7-4.5c-2.5-1.1-5.3-1.7-8.4-1.7c-4.3,0-8.3,1-11.8,3.1c-3.5,2.1-6.5,5.3-8.8,9.6
		c-2.3,4.3-3.5,9.1-3.5,14.4c0,5.1,1.3,9.3,4,12.6c3.1,3.8,7.9,5.8,14.3,5.8c3,0,6-0.5,9.1-1.4c3.1-1,5.8-2.2,8.3-3.7l3.7-17.9
		h-19.2l-1,5h13.3l-2,9.4c-4.4,2.5-8.5,3.8-12.3,3.8c-3.8,0-6.8-1.1-9-3.4c-2.2-2.3-3.3-5.6-3.3-10c0-4.4,0.8-8.4,2.5-11.9
		C631.2,377.8,633.4,375.2,636.2,373.5z"/>
	<path class="st1" d="M843.7,390.9c-0.9,4.4-1.9,7.6-3,9.5c-1.1,2-2.6,3.5-4.6,4.6c-1.9,1-4,1.5-6.2,1.5c-2.8,0-5.2-0.7-7-2.2
		c-1.9-1.4-2.8-3.3-2.8-5.7c0-1.1,0.2-2.7,0.7-5l5.6-27h-5.8l-5,24c-0.8,3.7-1.2,6.4-1.2,7.9c0,2.5,0.6,4.7,1.8,6.6
		c1.2,1.9,3,3.5,5.4,4.5c2.4,1.1,5.3,1.6,8.6,1.6c3.5,0,6.6-0.8,9.2-2.3c2.6-1.5,4.7-3.6,6.2-6.2c1.5-2.6,2.7-6,3.6-10.4l5.4-25.8
		h-5.9L843.7,390.9z"/>
	<path class="st1" d="M961.5,392.6c-0.8,3.9-1.5,7.7-2,11.4c-1-3.4-1.9-6.1-2.6-8.1c-1.3-3.4-3.1-7.6-5.3-12.7l-7.4-16.5h-5.7
		l-9.2,43.9h5.7l5.6-26.7c0.9-4.2,1.4-7.7,1.7-10.5c1.1,3.4,2.6,7.4,4.5,11.8l10.9,25.4h5.8l9.2-43.9h-5.7L961.5,392.6z"/>
	<polygon class="st1" points="1047.6,410.7 1053.4,410.7 1062.6,366.8 1056.8,366.8 	"/>
	<path class="st1" d="M1159.4,395.5c-1.2,2.2-2.7,5.2-4.5,8.9c-0.3-2.9-0.9-6.7-1.8-11.5l-5.1-26.2h-5.7l8.4,43.9h6.3l24.1-43.9h-6
		L1159.4,395.5z"/>
	<polygon class="st1" points="1251.9,410.7 1285.4,410.7 1286.4,405.7 1258.8,405.7 1262,390.4 1287.1,390.4 1288.2,385.4 
		1263,385.4 1265.9,371.8 1291.7,371.8 1292.8,366.8 1261.1,366.8 	"/>
	<path class="st1" d="M1408.4,377.5c0-2.5-0.6-4.7-1.6-6.3c-1.1-1.7-2.6-2.8-4.4-3.4c-1.9-0.6-4.6-0.9-8.3-0.9h-18.4l-9.2,43.9h5.9
		l4.1-19.5h6.8c2.3,0,4,0.2,5.1,0.7c1,0.5,2.1,1.5,3.1,3c1.4,2.2,2.7,4.7,3.9,7.7l3.1,8.2h6.6l-3.3-8.3c-1.1-2.7-2.6-5.4-4.4-8
		c-0.8-1.1-2-2.3-3.6-3.5c5.2-0.7,9-2.2,11.3-4.6C1407.2,384,1408.4,381,1408.4,377.5z M1401.6,381.6c-0.8,1.3-1.9,2.4-3.3,3.1
		c-1.4,0.8-3.2,1.3-5.4,1.5c-1.1,0.1-3.6,0.2-7.4,0.2h-8.1l3.1-14.8h14.3c2.2,0,3.8,0.2,4.8,0.5c0.9,0.3,1.7,1,2.3,1.9
		c0.6,1,0.9,2.1,0.9,3.3C1402.8,378.9,1402.4,380.3,1401.6,381.6z"/>
	<path class="st1" d="M1515.6,367.8c-2.5-1.2-5.5-1.8-9-1.8c-3,0-5.7,0.5-8.1,1.4c-2.4,1-4.2,2.3-5.5,4.2c-1.2,1.8-1.9,3.8-1.9,6.1
		c0,2,0.5,3.7,1.4,5.2c0.9,1.5,2.4,3,4.4,4.2c1.3,0.8,3.6,1.9,7.1,3.4c4.4,1.9,7.1,3.4,8.1,4.5c1,1.1,1.5,2.4,1.5,3.8
		c0,2-0.9,3.7-2.8,5.3c-1.8,1.5-4.5,2.3-8,2.3c-2.5,0-4.6-0.4-6.4-1.1c-1.8-0.8-3.1-1.9-3.9-3.3c-0.8-1.4-1.2-3-1.2-4.6l0.1-1.5
		l-5.8,0.6c0,5.6,1.6,9.5,4.7,11.7c3.1,2.2,7.2,3.2,12.2,3.2c3.3,0,6.2-0.6,8.8-1.6c2.6-1.1,4.6-2.6,6-4.7c1.5-2,2.2-4.2,2.2-6.6
		c0-1.9-0.4-3.6-1.3-5.1c-0.9-1.5-2.1-2.8-3.7-3.9c-1.2-0.8-3.4-1.9-6.5-3.3c-3.9-1.7-6.3-2.9-7.4-3.4c-1.5-0.8-2.5-1.6-3.1-2.5
		c-0.6-0.9-0.8-1.8-0.8-2.9c0-1.8,0.7-3.3,2.1-4.4c1.8-1.4,4.3-2.2,7.5-2.2c1.8,0,3.4,0.2,4.9,0.8c1.5,0.5,2.6,1.2,3.5,2
		c0.9,0.8,1.5,1.9,1.9,3.1c0.2,0.7,0.3,1.7,0.3,2.9l5.6-0.5c0-0.4,0.1-0.7,0.1-0.9c0-1.8-0.6-3.7-1.7-5.7
		C1519.8,370.6,1518.1,369,1515.6,367.8z"/>
	<polygon class="st1" points="1598.7,410.7 1632.2,410.7 1633.2,405.7 1605.6,405.7 1608.8,390.4 1633.9,390.4 1634.9,385.4 
		1609.8,385.4 1612.7,371.8 1638.5,371.8 1639.5,366.8 1607.9,366.8 	"/>
	<path class="st1" d="M1703.2,62.3c17.2,0,31.2-13.9,31.2-31.1c0-17.2-13.9-31.1-31.2-31.1c-17.2,0-31.2,13.9-31.2,31.1
		C1672.1,48.4,1686,62.3,1703.2,62.3z M1703.2,4.1c15,0,27.1,12.1,27.1,27.1c0,14.9-12.1,27.1-27.1,27.1c-14.9,0-27-12.1-27-27.1
		C1676.2,16.2,1688.3,4.1,1703.2,4.1z"/>
	<path class="st1" d="M1698.1,31.8h4c3.8,0.1,5.5,1.8,6.5,6.3c0.9,4.1,1.7,6.8,2.2,7.8h4.3c-0.7-1.2-1.4-4.4-2.5-8.9
		c-0.7-3.4-2.3-5.7-4.8-6.6v-0.2c3.4-1.1,6.1-4,6.1-8.3c0-2.5-0.9-4.7-2.5-6.2c-2-1.8-4.9-2.6-9.4-2.6c-2.9,0-5.9,0.2-8.1,0.7v32
		h4.2V31.8z M1698.1,16.7c0.7-0.2,2.1-0.4,4.2-0.4c4.4,0,7.5,1.9,7.5,6.1c0,3.7-2.8,6.2-7.3,6.2h-4.3V16.7z"/>
	<polygon class="st1" points="27.3,411.4 33.1,411.4 38.5,382.5 32.7,382.5 	"/>
	<polygon class="st1" points="33.8,376.1 39.7,376.1 40.5,371.8 34.7,371.8 	"/>
</g>
</svg>
