<?xml version="1.0" encoding="utf-8"?>
<!-- Generator: Adobe Illustrator 23.0.1, SVG Export Plug-In . SVG Version: 6.00 Build 0)  -->
<svg version="1.1" id="Layer_1" xmlns="http://www.w3.org/2000/svg" xmlns:xlink="http://www.w3.org/1999/xlink" x="0px" y="0px"
	 width="180px" height="70px" viewBox="0 0 180 70" style="enable-background:new 0 0 180 70;" xml:space="preserve">
<style type="text/css">
	.st0{fill:none;}
	.st1{fill:#7C9199;}
	.st2{fill-rule:evenodd;clip-rule:evenodd;fill:#7C9199;}
</style>
<rect class="st0" width="180" height="70"/>
<g>
	<polygon class="st1" points="42.7,62.1 48.7,60 48.9,19.6 42.7,21.9 	"/>
	<path class="st1" d="M74.6,35.3c-0.4,0.1-0.7,0-0.8-0.3c-0.1-0.2-0.2-0.7-0.2-1.4v-6.1l2.6-0.8v-4.8l-2.6,0.8V16l-4.7,4.8v3.2
		l-1.7,0.5v4.8l1.7-0.5V35c0,1.9,0.1,3.3,0.4,4.1c0.3,0.8,0.7,1.3,1.2,1.6c0.6,0.3,1.4,0.2,2.6-0.2c1-0.3,2.1-0.8,3.3-1.5l-0.3-4.5
		C75.4,34.9,75,35.2,74.6,35.3z"/>
	<path class="st1" d="M60.9,26.1c-1,0.3-1.8,0.8-2.5,1.5c-0.7,0.7-1.3,1.7-2,3.1v-2.8l-4.4,1.3v17.3l4.7-1.4v-8.3
		c0-1.6,0.2-2.7,0.5-3.4c0.4-0.7,0.8-1.2,1.4-1.3c0.5-0.2,0.9-0.1,1.2,0.3c0.3,0.4,0.4,1.1,0.4,2.2v9.5l4.7-1.4v-11
		c0-2.3-0.4-3.9-1.1-4.7C63.3,25.9,62.3,25.7,60.9,26.1z"/>
	<path class="st1" d="M118.3,22.7v-7.6c0-0.8-0.1-1.6-0.3-2.5c-0.2-0.8-0.6-1.4-1-1.8c-0.6-0.5-1.3-0.8-2.1-0.7
		c-0.9,0-2,0.3-3.4,0.7c-0.9,0.3-1.7,0.6-2.5,1c-0.8,0.4-1.4,0.9-1.8,1.3c-0.6,0.7-1.1,1.3-1.4,2.1c-0.3,0.7-0.6,1.7-0.7,2.8
		l4.5-0.7c0.2-0.8,0.4-1.4,0.7-1.8c0.4-0.5,1-0.8,1.7-1c0.6-0.2,1-0.1,1.3,0.1c0.2,0.3,0.4,0.8,0.4,1.6c-0.6,0.5-1.1,0.9-1.7,1.3
		c-0.5,0.4-1.7,1.1-3.4,2.1c-1.5,0.9-2.5,1.8-3,2.8c-0.6,1-0.8,2.2-0.8,3.5c0,1.4,0.4,2.5,1.1,3.2c0.8,0.7,1.9,0.9,3.3,0.4
		c1.1-0.3,2.1-0.9,2.9-1.6c0.6-0.5,1.2-1.3,1.8-2.3c0.1,0.5,0.1,0.8,0.2,1.1c0.1,0.2,0.2,0.5,0.3,0.9l4.4-1.3
		c-0.2-0.6-0.4-1.2-0.5-1.6C118.3,24.2,118.3,23.5,118.3,22.7z M113.7,20.7c0,0.8-0.1,1.5-0.3,2.1c-0.2,0.6-0.5,1.1-1,1.6
		c-0.5,0.5-0.9,0.8-1.5,1c-0.5,0.2-0.9,0.1-1.1-0.1c-0.3-0.3-0.4-0.6-0.4-1.2c0-0.5,0.1-0.9,0.4-1.3c0.3-0.4,0.9-1,1.8-1.6
		c0.7-0.5,1.4-1,2-1.5V20.7z"/>
	<path class="st1" d="M89,18.7c-1-0.4-2.4-0.4-4.2,0.1c-2.2,0.7-3.9,2-5.1,4.1c-1.2,2-1.8,4.4-1.8,7.1c0,1.9,0.3,3.5,0.9,4.7
		c0.6,1.2,1.4,2,2.3,2.4c0.9,0.4,2.2,0.3,3.9-0.2c1.9-0.6,3.3-1.4,4.3-2.4c1-1.1,1.9-2.6,2.6-4.5l-4.7,0.8c-0.3,0.6-0.6,1.1-0.8,1.3
		c-0.4,0.5-0.9,0.7-1.3,0.9c-0.7,0.2-1.3,0-1.8-0.6c-0.3-0.4-0.5-1.2-0.6-2.2l9.5-2.9v-0.8c0-2.3-0.3-4-0.8-5.3
		C90.8,20,90.1,19.1,89,18.7z M82.7,27c0.1-1.1,0.3-1.9,0.5-2.5c0.5-1,1-1.6,1.8-1.8c0.6-0.2,1.2-0.1,1.6,0.4
		c0.4,0.4,0.6,1.3,0.7,2.5L82.7,27z"/>
	<path class="st1" d="M130.3,16c-0.2,1-0.5,1.8-0.9,2.3c-0.4,0.6-0.9,1-1.6,1.1c-0.7,0.2-1.4,0-1.8-0.6c-0.5-0.6-0.7-1.6-0.7-3
		c0-1.6,0.2-2.9,0.7-3.8c0.5-0.9,1.1-1.5,1.9-1.8c0.6-0.2,1.1-0.2,1.5,0.1c0.4,0.3,0.6,0.7,0.8,1.4l4.4-2.2
		c-0.4-1.8-1.2-3.1-2.2-3.8c-1.1-0.7-2.6-0.7-4.6-0.1c-1.4,0.4-2.6,1.1-3.5,1.9c-0.6,0.5-1.1,1.2-1.7,2.1c-0.6,0.9-1,1.8-1.3,2.7
		c-0.4,1.3-0.6,2.9-0.6,4.6c0,1.7,0.2,3,0.5,3.9c0.4,0.9,0.8,1.7,1.5,2.3c0.6,0.6,1.4,0.9,2.2,1c0.9,0.1,2-0.1,3.3-0.5
		c1.4-0.4,2.5-1,3.3-1.8c0.9-0.8,1.6-1.8,2.2-2.9c0.6-1.1,1-2.4,1.2-3.8L130.3,16z"/>
	<path class="st1" d="M101.8,13.7c-0.7,0.2-1.2,0.6-1.7,1.2c-0.5,0.6-0.9,1.6-1.3,2.9V15l-4.4,1.3v17.3l4.7-1.4v-5.8
		c0-2.8,0.2-4.7,0.7-5.9c0.3-0.8,0.8-1.3,1.4-1.5c0.3-0.1,0.8-0.1,1.3,0.1l1.5-5.2C103.3,13.6,102.5,13.5,101.8,13.7z"/>
</g>
<path class="st2" d="M39.8,64.3c1.7-0.4,10.1-3.1,11.2-3.7v4.3h9.7V54.2v-3.7c0-2.9-3.3-3.7-4.8-3.7c-2.3,0-4.8,2.1-4.8,3.7V59
	c-0.8,0.4-1.4,0.6-2.3,1V19.6l14.7-5c1.4-0.4,1.7,0.8,1.7,1.5v36.4c0,1.2-2.3,2.1-3.7,2.5v9.9h13.4c-1.9-3.7-6.3-8.4-8.3-11.1V15.3
	c0-1.9-1.4-2.5-3.1-2.1c-2.5,0.8-16.8,5.6-24.4,8.7c-2.1,1-2.5,2.1-2.5,3.1v37.4C36.5,64.7,39.2,64.5,39.8,64.3z M37.6,25.4
	c0-1.9,2.9-2.7,5-3.5v40.3c-0.8,0.4-2.7,1.2-3.5,1.2c-0.8,0-1.5-0.2-1.5-1.2V25.4z"/>
<path class="st2" d="M50.2,64.9v-3c-1.7,0.7-5.5,1.3-7.3,3H50.2z"/>
</svg>
