<?xml version="1.0" encoding="utf-8"?>
<!-- Generator: Adobe Illustrator 22.1.0, SVG Export Plug-In . SVG Version: 6.00 Build 0)  -->
<svg version="1.1" id="Layer_1" xmlns="http://www.w3.org/2000/svg" xmlns:xlink="http://www.w3.org/1999/xlink" x="0px" y="0px"
	 width="180px" height="70px" viewBox="0 0 180 70" style="enable-background:new 0 0 180 70;" xml:space="preserve">
<style type="text/css">
	.st0{fill:none;}
	.st1{fill:#7C9199;}
</style>
<rect y="0" class="st0" width="180" height="70"/>
<g>
	<path class="st1" d="M97.9,13.5c-0.6-0.1-1.1-0.2-1.7-0.2c-4.4-0.2-8.8,0.3-13.1,1.2c-0.5,0.1-1,0.3-1.4,0.4c0,0.1,0,0.2,0,0.4
		c1.1,0.2,2.3,0.3,3.4,0.5c1.4,0.3,2.9,0.7,4.3,1.1c1,0.3,1.4,1.1,1.4,2.1c0,0.6,0,1.1-0.1,1.7c-0.7,3.1-2.4,5.8-4.1,8.5
		c-1.1,1.9-2.2,3.7-3.3,5.6c0.1,0,0.3,0,0.4,0c0.5-0.4,1.1-0.9,1.6-1.3c4.4-4,8.2-8.5,11.6-13.4c0.9-1.3,1.6-2.9,2.2-4.4
		C99.6,14.4,99.1,13.8,97.9,13.5z"/>
	<circle class="st1" cx="100" cy="8.3" r="3.7"/>
	<g>
		<path class="st1" d="M10.4,39.6V64h-5V39.6H10.4z"/>
		<path class="st1" d="M19.3,50.1V64h-4.8V45.9l4-1l0.4,1.7c1.6-1,3.5-1.7,5.1-1.7c3.9,0,5.9,2.3,5.9,6.4V64H25V52.2
			c0-1.8-0.8-2.9-2.6-2.9C21.5,49.3,20.4,49.6,19.3,50.1z"/>
		<path class="st1" d="M39.2,64.5c-2.3,0-5-1.4-5-5.3v-9.4h-1.6v-4.5h1.6V41l4.8-1.1v5.4h3.8l-0.3,4.5h-3.5v9.1
			c0,1.3,0.7,1.8,1.4,1.8c0.6,0,1.2-0.1,1.8-0.4l1,3.6C41.9,64.2,40.5,64.5,39.2,64.5z"/>
		<path class="st1" d="M53.7,64.5c-6.2,0-8.4-2.5-8.4-6.8v-6.4c0-4.1,2.1-6.5,7.9-6.5c5.5,0,7.6,2.3,7.6,6.5v5.4H50.1v0.9
			c0,1.6,1,2.4,3.6,2.4c2.1,0,4.5-0.2,6-0.6l0.7,4.4C58.7,64.2,56,64.5,53.7,64.5z M50.1,52.5h5.8v-1c0-1.5-0.8-2.2-2.7-2.2
			c-2.2,0-3,0.7-3,2.2V52.5z"/>
		<path class="st1" d="M69.2,52v12h-4.8V45.9l4-1l0.6,2.5c1-1.4,2.2-2.5,4.6-2.5c0.5,0,1.2,0.1,1.7,0.3l-0.6,4.3
			c-0.3-0.1-0.7-0.1-1.1-0.1C71.4,49.3,70,50.3,69.2,52z"/>
		<path class="st1" d="M77.5,50.5c0-3.7,2.4-5.7,7.2-5.7c2,0,4.5,0.3,6,0.7L89.9,50c-1.2-0.4-3-0.7-4.5-0.7c-2,0-3.1,0.3-3.1,1.4
			c0,1,2,1.5,4.5,2.4c3.2,1,4.4,2.3,4.4,5.7c0,3.5-2.8,5.7-8.1,5.7c-2.1,0-4.6-0.3-6.2-0.7l0.6-4.5c1.3,0.3,3.2,0.7,4.9,0.7
			c2.5,0,3.9-0.4,3.9-1.5c0-1.1-0.9-1.1-4.9-2.6C78.1,54.8,77.5,52.6,77.5,50.5z"/>
		<path class="st1" d="M98.3,64l-5.6-18.8h5.1l2.7,11.6l3.1-11.6h4.5l2.9,11.6l3-11.6h5.2L113.4,64h-4.7l-2.9-11.9L102.4,64H98.3z"
			/>
		<path class="st1" d="M121.5,64V46l4.9-1.2V64H121.5z"/>
		<path class="st1" d="M135.8,64.5c-2.3,0-5-1.4-5-5.3v-9.4h-1.6v-4.5h1.6V41l4.8-1.1v5.4h3.8l-0.3,4.5h-3.5v9.1
			c0,1.3,0.7,1.8,1.4,1.8c0.6,0,1.2-0.1,1.8-0.4l1,3.6C138.5,64.2,137.1,64.5,135.8,64.5z"/>
		<path class="st1" d="M146.7,52.2V57c0,2,1.1,2.9,3.4,2.9c1.6,0,3.6-0.2,4.8-0.6l0.7,4.4c-1.6,0.5-4.2,0.7-6.3,0.7
			c-5.4,0-7.5-2.4-7.5-6.7v-6.3c0-4.3,2.1-6.7,7.5-6.7c2.1,0,4.7,0.3,6.3,0.7l-0.7,4.3c-1.3-0.3-3.2-0.6-4.9-0.6
			C147.8,49.3,146.7,50.1,146.7,52.2z"/>
		<path class="st1" d="M164,49.8V64h-4.8V38.2l4.8-1.1v8.8c1.5-0.7,3.1-1.1,4.5-1.1c4.1,0,6.1,2.1,6.1,5.9V64h-4.9V52.3
			c0-2.2-0.9-3-2.8-3C166.2,49.3,165.1,49.5,164,49.8z"/>
	</g>
</g>
</svg>
