<?xml version="1.0" encoding="utf-8"?>
<!-- Generator: Adobe Illustrator 22.1.0, SVG Export Plug-In . SVG Version: 6.00 Build 0)  -->
<svg version="1.1" id="Layer_1" xmlns="http://www.w3.org/2000/svg" xmlns:xlink="http://www.w3.org/1999/xlink" x="0px" y="0px"
	 width="180px" height="70px" viewBox="0 0 180 70" style="enable-background:new 0 0 180 70;" xml:space="preserve">
<style type="text/css">
	.st0{fill:none;}
	.st1{fill:#6f6f6f;}
</style>
<rect class="st0" width="180" height="70"/>
<g id="xQw5PZ.tif">
	<g>
		<path class="st1" d="M91.5,41.9c0.3,2.2,2.4,4,4.6,4.1c1.4,0.1,2.8,0,3.9-1c0.1-0.1,0.3-0.1,0.5-0.1c2.1,0.6,4.2,1.2,6.4,1.8
			c-1.6,2.8-3.9,4.6-6.9,5.3c-7,1.7-13.9-1.8-15.5-9.4c-1.2-5.5,0.6-10.9,5.1-14c4.9-3.3,12-2.5,15.7,1.9c1.6,1.9,2.4,4.2,2.6,6.7
			c0.1,1.1,0.1,2.2,0,3.3c0,1.1-0.2,1.2-1.3,1.2c-4.7,0-9.5,0-14.2,0C92.2,41.9,91.9,41.9,91.5,41.9z M91.8,36.1c2.9,0,5.9,0,8.8,0
			c0-1.7-2-3.1-3.9-3.2C94.2,32.9,92.1,34.2,91.8,36.1z"/>
		<path class="st1" d="M138,52.4c-7.2,0-12.6-5.5-12.6-12.9s5.4-12.9,12.7-12.9c7.2,0,12.6,5.5,12.6,12.9
			C150.7,47,145.3,52.4,138,52.4z M143.5,39.6c-0.1-0.7-0.1-1.4-0.3-2.1c-0.5-2.4-2.3-4-4.8-4.3c-2.3-0.2-4.3,1-5.3,3.2
			c-0.7,1.6-0.7,3.2-0.4,4.9c0.5,2.6,2.6,4.4,5,4.5c2.6,0.1,4.8-1.5,5.5-4.1C143.4,41,143.4,40.3,143.5,39.6z"/>
		<path class="st1" d="M81.7,17.7c0,0.5,0,0.8,0,1.1c0,7.3,0,14.6,0,21.8c0,5.9-3.8,10.5-9.6,11.6c-6.6,1.3-13.2-3.8-13.5-10.6
			c0-0.6,0.1-0.8,0.7-0.8c2.6,0,5.1,0,7.7,0c0.1,0.2,0.1,0.4,0.2,0.6c0.4,1.5,1.8,2.5,3.3,2.3s2.5-1.4,2.5-3c0-7.4,0-14.8,0-22.1
			c0-1,0-1,1-1c2.3,0,4.5,0,6.8,0C81.1,17.7,81.4,17.7,81.7,17.7z"/>
		<path class="st1" d="M5,35.8c0-2.5-0.1-2,1.5-2.5c9.8-2.6,19.6-5.2,29.4-7.9c0.7-0.2,1-0.1,1.4,0.5c1.8,3,2.6,6.2,2.5,9.7
			c0,0.6-0.3,0.7-0.8,0.9c-9.3,2.5-18.6,5-28,7.5c-0.8,0.2-1.6,0.4-2.3,0.6c-0.6,0.2-0.9,0-1.2-0.5C5.9,41.5,5.1,38.6,5,35.8z"/>
		<path class="st1" d="M160.1,51.8c-2.3,0-4.5,0-6.7,0c-0.1,0-0.3-0.2-0.4-0.4c-0.1-0.2,0-0.4,0-0.6c0-7.5,0-15,0-22.4c0-1,0-1,1-1
			c2,0,3.9,0,5.9,0c0,0.4,0.1,0.8,0.1,1.3c0.3-0.2,0.5-0.3,0.7-0.5c3.5-2.3,8.8-1.9,11.6,1.1c1.5,1.6,2.2,3.6,2.5,5.8
			c0.1,1.2,0.2,2.3,0.2,3.5c0,4.1,0,8.2,0,12.3c0,0.3,0,0.5,0,0.8c-2.4,0-4.7,0-7.2,0c0-0.3,0-0.6,0-0.8c0-4.4,0-8.9,0-13.3
			c0-0.8-0.3-1.7-0.5-2.5c-0.4-1-1.2-1.5-2.2-1.6c-3-0.4-4.8,1.1-4.8,4.3c0,4.4,0,8.7,0,13.1C160.1,51.1,160.1,51.4,160.1,51.8z"/>
		<path class="st1" d="M123.7,27.4c0,2.2,0,4.3,0,6.5c-0.3,0-0.5,0.1-0.8,0.1c-1.1,0-2.2,0-3.3,0c-0.4,0-0.6,0.1-0.6,0.6
			c0,3.1,0,6.3,0,9.4c0,1.1,0.5,1.6,1.6,1.6c1,0,2-0.1,3.1-0.2c0,0.2,0,0.4,0,0.6c0,1.6,0,3.2,0,4.8c0,0.4-0.1,0.7-0.5,0.8
			c-2.5,0.8-5,0.9-7.5-0.2c-2.4-1.1-3.7-3.2-3.8-5.8c-0.1-3.5-0.1-7.1-0.1-10.6c0-1,0-1-1-1c-0.6,0-1.2,0-1.8,0c0-2.2,0-4.3,0-6.5
			c0.7,0,1.4,0,2,0s0.7-0.2,0.7-0.8c0-1.8,0-3.6,0-5.4c0-0.6,0.2-0.8,0.8-0.8c1.9,0,3.7,0,5.6,0c0.6,0,0.8,0.2,0.7,0.7
			c0,1.8,0,3.7,0,5.5c0,0.5,0.2,0.7,0.7,0.7C121,27.3,122.3,27.4,123.7,27.4z"/>
		<path class="st1" d="M7.9,26.9c-0.5,0-0.7-0.4-0.3-0.8c1-1.3,2-2.8,3.3-3.9c5.3-4.9,13.2-5.8,19.6-2.5c0.1,0.1,0.3,0.1,0.4,0.2
			s0.4,0.4,0.3,0.5c-0.1,0.2-0.3,0.4-0.5,0.4c-1.8,0.5-3.7,1-5.5,1.5c-5.6,1.5-11.1,3-16.7,4.5C8.2,26.8,8,26.8,7.9,26.9z"/>
		<path class="st1" d="M22.7,52.4c-3.2,0-5.9-0.7-8.5-2c-0.2-0.1-0.4-0.4-0.6-0.6c0.2-0.1,0.4-0.4,0.7-0.4c7.4-2,14.9-4,22.3-6
			c0.2-0.1,0.5,0,0.7,0.1c0,0.2,0,0.5-0.1,0.7c-2.8,4.4-6.8,7.1-12,8c-0.3,0.1-0.7,0.1-1,0.1C23.6,52.4,23,52.4,22.7,52.4z"/>
		<path class="st1" d="M50.3,58.3c-0.8,0-1.4,0-2.1,0c0-0.3-0.1-0.6-0.1-0.9c0-14.9,0-29.7,0-44.6c0-1,0-1,1-1
			c1.4,0,1.2-0.1,1.2,1.2c0,14.7,0,29.4,0,44.1C50.3,57.6,50.3,57.9,50.3,58.3z"/>
	</g>
</g>
</svg>
