<svg xmlns="http://www.w3.org/2000/svg" height="339" width="1010" viewBox="0 0 946.99996 317.99998"><g fill="#ee8d02"><path d="M121.89 119l69.622.1781c.24588 51.467-37.119 83.454-84.413 81.429-57.36-2.4556-87.209-44.534-86.89-84.464.39616-49.642 41.072-84.333 90.967-83.929 38.53.31194 60.673 21.911 70.041 30.894-4.8416 4.6813-4.9539 4.6128-12.366 11.756-22.927-27.485-88.939-46.416-122.96 9.2003-22.527 36.829 1.2168 96.441 61.115 100.09 29.797 1.817 60.273-11.833 65.15-48.727l-50.386-.72216c.17888-7.6391.21655-8.257.11971-15.709z"/><g fill-rule="evenodd"><path d="M405.53 36.478v160.36h77.15l-.25253-16.415-60.609-.12627-.12627-143.82zM508.19 36.352l-.12696 159.98 58.59-.008c54.644.44322 75.413-40.192 75.521-76.838.14928-55.093-33.373-80.906-81.078-82.506zm19.93 16.018c10.707-.01639 22.192.487 32.543.99805 34.461 1.7014 65.283 23.075 65.205 65.959.36202 30.526-18.511 63.387-65.705 61.551l-36.55.18-.01-128.61c1.4824-.054842 2.9918-.081643 4.5215-.083984zM673.22 35.973v160.24h90.914v-15.784h-74.625v-62.377h74.751v-16.415h-74.668V52.29h75.047V35.977zM791.89 35.786v160.76h17.143V75.426l104.64 121.22h3.9286V36.136h-16.482l.0631 121.49-105.72-121.88z"/></g></g><path d="M298.847 17.831l-1.4648 1.5449-70.297 73.166c-22.657 25.181-24.304 59.423-2.334 79.836 2.026 1.8824 4.1256 3.524 6.2754 4.9473v.0703l.0586-.0312c27.556 18.183 63.56-.50311 65.143-35.557l.96289-.52539c.44212-.49213 1.0317-.7895 1.666-.84961.63434.06011 1.2239.35748 1.666.84961l.96289.52539c1.5821 35.054 37.587 53.74 65.143 35.555l.05859.0332v-.0723c2.1491-1.423 4.248-3.0634 6.2734-4.9453 21.964-20.407 20.319-54.649-2.338-79.831l-70.297-73.166-1.4648-1.5449-.0098.0098-.0098-.0098z" fill-rule="evenodd" fill="red"/><path d="M298.904 77.877c-1.5228.0063-3.0553.22604-4.5527.70508v.02148c-4.6677 1.3278-8.7704 4.3135-10.904 7.4512-6.4792 9.5269-5.2857 16.152-3.6133 23.611-13.543-2.2912-29.106 13.982-21.182 31.109 4.4191 9.5505 11.99 12.996 18.438 13.156 8.0656.19993 15.012-5.0289 19.189-13.156h5.7109c4.1772 8.1273 11.124 13.356 19.189 13.156 6.447-.15981 14.018-3.6057 18.438-13.156 7.9243-17.125-7.6388-33.399-21.182-31.108 1.672-7.459 2.866-14.084-3.613-23.611-2.135-3.138-6.236-6.125-10.905-7.453v-.01953c-1.5732-.50328-3.1843-.71121-4.7832-.69531-.07704-.000766-.15338-.01009-.23047-.0098z" fill-rule="evenodd" fill="#fff"/><g fill="red"><path d="M282.781 186.682l16.267 19.357 16.03-19.416-16.104-18.957zM75.64 215.782v82.143h27.143c32.104-3.7771 30.137-38.227 10.18-45.357 9.6697-4.2344 16.252-31.16-12.5-36.428l-24.82-.35zm15.562 15.068l6.7363.0879c11.946 2.1016 7.7203 15.636.39062 16.641l-7.1309-.0117.004-16.717zm.54883 31.531l9.5957.17774c11.123.81409 15.094 18.127 0 19.951h-9.5957v-20.129z" fill-rule="evenodd"/><path d="M248.702 213.252a42.931 43.689 0 0 0-42.93 43.689 42.931 43.689 0 0 0 42.93 43.689 42.931 43.689 0 0 0 42.932-43.689 42.931 43.689 0 0 0-42.932-43.689zm0 15.934a27.274 27.755 0 0 1 27.275 27.756 27.274 27.755 0 0 1-27.275 27.756 27.274 27.755 0 0 1-27.273-27.756 27.274 27.755 0 0 1 27.273-27.756z"/><path d="M373.676 215.782h15.714v50.952c-1.154 24.713 26.228 22.569 25 .88388v-51.479h14.643v58.929c-3.6168 36.242-54.32 31.195-54.643 0zM515.82 215.432v82.5h16.25v-53.036l34.286 52.679h15.536v-82.143h-16.071v53.929l-35-53.929z" fill-rule="evenodd"/><path d="M709.48 213.822c-24.902-.00029-45.09 19.188-45.09 42.857-.10979 23.831 19.593 44.324 45.112 43.415 13.476-.0129 26.218-6.3127 34.773-16.21l-10.777-10.955.002-.20312c-5.8667 6.8448-14.466 11.855-24.02 11.875-17.103.68083-28.933-12.721-28.98-27.922-.0552-17.654 13.616-29.189 28.98-27.92 9.7423.01 18.593 4.2314 24.05 11.902l10.785-10.432c-8.2024-8.6815-21.703-16.166-34.835-16.408z"/><path d="M826.51 215.782v82.075h44.447v-15.279h-28.916v-21.845h28.916v-15.531h-28.916v-14.268h28.916v-15.279z" fill-rule="evenodd"/></g></svg>