<?xml version="1.0" encoding="utf-8"?>
<!-- Generator: Adobe Illustrator 22.1.0, SVG Export Plug-In . SVG Version: 6.00 Build 0)  -->
<svg version="1.1" id="Layer_1" xmlns="http://www.w3.org/2000/svg" xmlns:xlink="http://www.w3.org/1999/xlink" x="0px" y="0px"
	 width="400px" height="72px" viewBox="0 0 400 72" style="enable-background:new 0 0 400 72;" xml:space="preserve">
<style type="text/css">
	.st0{fill:#47BFB6;}
	.st1{fill:#F2F2F2;}
</style>
<g>
	<path class="st0" d="M41.3,35.9h2.5c0.7,0,1.3-0.6,1.3-1.3v-2.5c0-0.7-0.6-1.3-1.3-1.3h-2.5c-0.7,0-1.3,0.6-1.3,1.3v2.5
		C40.1,35.3,40.6,35.9,41.3,35.9z M41.2,32H44v2.8h-2.8V32z"/>
	<path class="st0" d="M95.5,32.6h-2.5c-0.7,0-1.3,0.6-1.3,1.3v0.4c-0.1,0-0.1,0-0.2,0h-9.8v-7.5c0-0.5,0-1,0-1.4h3.6
		c0.3,0,0.6-0.2,0.6-0.6s-0.2-0.6-0.6-0.6h-3.7c-0.2-2.3-0.5-4.4-1.1-6.3c-0.7-2.5-1.9-4.6-3.5-6.4l3-3l3.4,3.4L83,12.4
		c-0.5,0.5-0.5,1.3,0,1.8l1.9,1.9c0.5,0.5,1.3,0.5,1.8,0l1.9-1.9c0.5-0.5,0.5-1.3,0-1.8l-1.9-1.9c-0.5-0.5-1.3-0.5-1.8,0L84.4,11
		l-3.8-3.8c-0.2-0.2-0.6-0.2-0.9,0l-3.4,3.4c-0.9-0.8-1.9-1.6-3-2.3l3-3l0.6,0.6c0.5,0.5,1.3,0.5,1.8,0L80.5,4
		c0.5-0.5,0.5-1.3,0-1.8l-1.9-1.9c-0.5-0.5-1.3-0.5-1.8,0L75,2.2c-0.5,0.5-0.5,1.3,0,1.8l0.4,0.4l-3.3,3.3c-0.7-0.3-1.3-0.6-2.1-0.9
		c-2.8-1-6.2-1.5-10.2-1.5H37.3V2.6C37.3,2.2,37,2,36.7,2h-5.2c-0.3,0-0.6,0.2-0.6,0.6s0.2,0.6,0.6,0.6h4.7v2.2H36
		c-4,0-7.4,0.5-10.3,1.5c-2.8,1-5.1,2.4-6.8,4.3c-1.7,1.9-3,4.1-3.8,6.7c-0.6,2.1-1,4.4-1.1,6.9h-3.4v-4.6c0-0.2-0.1-0.3-0.2-0.4
		h1.1c0.7,0,1.3-0.6,1.3-1.3V16c0-0.7-0.6-1.3-1.3-1.3H9c-0.7,0-1.3,0.6-1.3,1.3v2.6c0,0.6,0.5,1.2,1.2,1.2h0.7
		c-0.1,0.1-0.2,0.2-0.2,0.4v5.1c0,0.3,0.3,0.6,0.6,0.6h3.9c0,0.3,0,0.6,0,0.8V27H5.2c-0.1,0-0.1,0-0.1,0v-1c0-0.7-0.6-1.3-1.3-1.3
		H1.3C0.6,24.8,0,25.3,0,26v2.5c0,0.7,0.6,1.3,1.3,1.3h2.5c0.7,0,1.3-0.6,1.3-1.3v-0.4c0,0,0.1,0,0.1,0h8.8v1.1h-3
		c-0.3,0-0.6,0.2-0.6,0.6s0.2,0.6,0.6,0.6h3v7.5c0,1.7,0.1,3.2,0.3,4.7h-2.5v-0.4c0-0.7-0.6-1.3-1.3-1.3H7.9c-0.7,0-1.3,0.6-1.3,1.3
		v2.5c0,0.7,0.6,1.3,1.3,1.3h2.5c0.7,0,1.3-0.6,1.3-1.3v-1h2.7c0.2,1,0.4,1.9,0.6,2.8H5.2c-0.1,0-0.1,0-0.1,0v-0.4
		c0-0.7-0.6-1.3-1.3-1.3H1.3c-0.7,0-1.3,0.6-1.3,1.3v2.5c0,0.7,0.6,1.3,1.3,1.3h2.5c0.7,0,1.3-0.6,1.3-1.3v-1c0,0,0.1,0,0.1,0h10.3
		c0.8,2.3,1.9,4.2,3.5,5.9c1.7,1.9,4,3.3,6.8,4.3c2.8,1,6.2,1.5,10.3,1.5h1.9V52h1.4l6.6,13.4h2v1.7h-0.5c-0.6,0-1.1,0.6-1.1,1.3
		v2.5c0,0.7,0.5,1.3,1.1,1.3h2.2c0.6,0,1.1-0.6,1.1-1.3v-2.5c0-0.7-0.5-1.3-1.1-1.3H49v-1.7h7.2v3.3c0,0.3,0.3,0.6,0.6,0.6h5.1
		c0.2,0,0.3-0.1,0.4-0.2v1.2c0,0.6,0.5,1.2,1.2,1.2h2.6c0.7,0,1.3-0.6,1.3-1.3v-2.5c0-0.7-0.6-1.3-1.3-1.3h-2.5
		c-0.7,0-1.3,0.6-1.3,1.3v0.6c-0.1-0.1-0.2-0.2-0.4-0.2h-4.6v-2.8h7.8v-0.8l-3.3-7V57c3.4-0.1,6.4-0.6,8.9-1.4
		c2.5-0.8,4.6-1.9,6.2-3.5c1.7-1.5,2.9-3.4,3.7-5.8c0.7-1.9,1-4.1,1.2-6.6h3.6c0.1,0,0.2,0,0.3-0.1v0.5c0,0.7,0.6,1.3,1.3,1.3h2.5
		c0.7,0,1.3-0.6,1.3-1.3v-2.5c0-0.7-0.6-1.3-1.3-1.3h-2.5c-0.7,0-1.3,0.6-1.3,1.3v1.1c-0.1-0.1-0.2-0.1-0.3-0.1h-3.6
		c0-0.3,0-0.5,0-0.8v-2.5h9.8c0.1,0,0.1,0,0.2,0v1c0,0.7,0.6,1.3,1.3,1.3h2.5c0.7,0,1.3-0.6,1.3-1.3v-2.5
		C96.8,33.1,96.2,32.6,95.5,32.6z M87.5,13.3l-1.8,1.8l-1.8-1.8l1.8-1.8L87.5,13.3z M77.8,1.3l1.8,1.8l-1.8,1.8l-1.8-1.8L77.8,1.3z
		 M8.9,18.7v-2.8h2.8v2.8H8.9z M3.9,28.7H1.1v-2.8h2.8V28.7z M10.6,44.8H7.8V42h2.8V44.8z M3.9,48.7H1.1v-2.8h2.8V48.7z M49.6,68.2
		V71h-2.5v-2.8H49.6z M63.4,67.6h2.8v2.8h-2.8V67.6z M66.8,34.6c0,2-0.1,3.8-0.3,5.2c-0.2,1.4-0.6,2.5-1.2,3.3
		c-0.6,0.8-1.4,1.4-2.5,1.8c-1.1,0.3-2.4,0.5-4,0.5h-5.3v-7.2h4.7c0.1,0,0.2,0,0.3-0.1v0.5c0,0.7,0.6,1.3,1.3,1.3h2.5
		c0.7,0,1.3-0.6,1.3-1.3V36c0-0.7-0.6-1.3-1.3-1.3h-2.5c-0.7,0-1.3,0.6-1.3,1.3v1.1c-0.1-0.1-0.2-0.1-0.3-0.1h-5.2
		c-0.3,0-0.6,0.3-0.6,0.6v7.7h-1.1V28.2c0.2-0.3-0.1-0.6-0.4-0.6h-19c-0.3,0-0.6,0.3-0.6,0.6s0.3,0.6,0.6,0.5h18.3v16.7H49V33.7
		c0-0.3-0.3-0.6-0.6-0.6h-2.7c-0.3,0-0.6,0.2-0.6,0.6c0,0.3,0.2,0.6,0.6,0.6h2.2v11.1h-1.1v-3.8c0-0.3-0.3-0.6-0.6-0.6h-4.3
		c0,0-0.1,0-0.1,0v-1c0-0.7-0.6-1.3-1.3-1.3H38c-0.7,0-1.3,0.6-1.3,1.3v2.5c0,0.7,0.6,1.3,1.3,1.3h2.5c0.7,0,1.3-0.6,1.3-1.3V42
		c0,0,0.1,0,0.1,0h3.8v3.3h-5.8c-1.9,0-3.5-0.1-4.8-0.3c-1.3-0.2-2.4-0.6-3.2-1.3c-0.8-0.6-1.4-1.5-1.8-2.7
		c-0.4-1.1-0.6-2.7-0.6-4.6v-7.2c0-2,0.1-3.8,0.3-5.1c0.2-1.4,0.6-2.5,1.2-3.3c0.6-0.8,1.4-1.4,2.5-1.8c1.1-0.3,2.4-0.5,4-0.5h10.3
		v3.9h-4.6c-0.2,0-0.3,0.1-0.4,0.2v-1.1c0-0.7-0.6-1.3-1.3-1.3h-2.5c-0.7,0-1.3,0.6-1.3,1.3V24c0,0.7,0.6,1.3,1.3,1.3h2.4
		c0.7,0,1.3-0.6,1.3-1.3v-0.6c0.1,0.1,0.2,0.2,0.4,0.2h5.1c0.3,0,0.6-0.3,0.6-0.6v-4.4h7.2v8.9h-0.4c-0.7,0-1.3,0.6-1.3,1.3v2.5
		c0,0.7,0.6,1.3,1.3,1.3h2.5c0.7,0,1.3-0.6,1.3-1.3v-2.5c0-0.7-0.6-1.3-1.3-1.3h-1v-8.9h1.4c2.9,0,5,0.6,6.2,1.9
		c1.2,1.2,1.8,3.5,1.8,6.9V34.6z M59.5,38.7v-2.8h2.8v2.8H59.5z M40.6,39.8v2.8h-2.8v-2.8H40.6z M41.7,21.4v2.8h-2.8v-2.8H41.7z
		 M58.4,28.7v2.8h-2.8v-2.8H58.4z M86.8,37.6h2.8v2.8h-2.8V37.6z M95.7,36.5h-2.8v-2.8h2.8V36.5z"/>
</g>
<g>
	<g>
		<path class="st1" d="M113,33.5h-0.3v12.4h-8V18.7c0-0.8,0.4-1.2,1.1-1.2h22c1.9,0,3.6,0.2,4.9,0.7c1.3,0.5,2.4,1.1,3.3,2
			c0.8,0.9,1.4,1.9,1.8,3.2c0.4,1.2,0.6,2.6,0.6,4.2v2.3c0,3.2-0.8,5.7-2.4,7.3c-1.6,1.6-4.2,2.4-7.8,2.4h-12.8L113,33.5z
			 M113.2,24.7c-0.3,0-0.5,0.2-0.5,0.5v7.6h14.1c1.3,0,2.2-0.3,2.7-0.8c0.5-0.5,0.8-1.4,0.8-2.5V28c0-1.3-0.3-2.2-0.8-2.7
			c-0.5-0.5-1.4-0.7-2.7-0.7H113.2z"/>
		<path class="st1" d="M149.1,17.6v20c0,0.3,0.1,0.5,0.2,0.7c0.1,0.2,0.4,0.2,0.7,0.2h22.2v7.4h-29.1c-0.8,0-1.3-0.2-1.6-0.6
			c-0.3-0.4-0.5-0.9-0.5-1.6V17.6H149.1z"/>
		<path class="st1" d="M182.6,45.9h-9.3v-0.3l14.2-27.1c0.2-0.4,0.4-0.6,0.5-0.7c0.2-0.1,0.5-0.2,0.9-0.2h9.8c0.4,0,0.8,0.1,1,0.2
			c0.2,0.1,0.4,0.4,0.6,0.7l14.1,27.1v0.3h-24.3l-2.3-6.2V39h7.9c0.8,0,1.6,0,2.2,0c0.6,0,1.1,0,1.6,0c0.5,0,0.9,0,1.2,0.1
			c0.4,0,0.7,0.1,1.1,0.1l0.1-0.3c-0.2-0.3-0.3-0.6-0.5-0.8c-0.2-0.3-0.4-0.6-0.6-1c-0.2-0.4-0.5-0.9-0.7-1.4
			c-0.3-0.5-0.6-1.2-1.1-2.1l-4.5-9c-0.1-0.2-0.3-0.3-0.5-0.3h-0.5c-0.2,0-0.4,0.1-0.5,0.3L182.6,45.9z"/>
		<path class="st1" d="M242.4,17.6v0.3l-13.9,17.1v11h-8V34.8l-13.8-16.9v-0.3h9.2l8.3,10.4c0.1,0.1,0.1,0.1,0.1,0.1
			c0,0,0.1,0.1,0.3,0.1h0.3c0.2,0,0.3-0.1,0.4-0.2l8.1-10.4H242.4z"/>
		<path class="st1" d="M252.4,17.6v20c0,0.3,0.1,0.5,0.2,0.7c0.1,0.2,0.4,0.2,0.7,0.2h22.2v7.4h-29.1c-0.8,0-1.3-0.2-1.6-0.6
			c-0.3-0.4-0.5-0.9-0.5-1.6V17.6H252.4z"/>
		<path class="st1" d="M312.6,34.7c0,1.7-0.2,3.3-0.6,4.7c-0.4,1.4-1.1,2.6-2,3.5c-0.9,1-2.1,1.7-3.6,2.3c-1.5,0.5-3.3,0.8-5.4,0.8
			h-12.6c-2.1,0-3.9-0.3-5.4-0.8c-1.5-0.5-2.7-1.3-3.6-2.3c-0.9-1-1.6-2.2-2-3.5c-0.4-1.4-0.6-2.9-0.6-4.7v-5.8
			c0-1.7,0.2-3.3,0.6-4.7c0.4-1.4,1.1-2.6,2-3.5c0.9-1,2.1-1.7,3.6-2.3c1.5-0.5,3.3-0.8,5.4-0.8h12.6c2.1,0,3.9,0.3,5.4,0.8
			c1.5,0.5,2.7,1.3,3.6,2.3c0.9,1,1.6,2.2,2,3.5c0.4,1.4,0.6,2.9,0.6,4.7V34.7z M284.9,34c0,1,0.1,1.8,0.3,2.4
			c0.2,0.6,0.5,1.1,0.9,1.4c0.4,0.3,1,0.5,1.7,0.7c0.7,0.1,1.5,0.2,2.6,0.2h10c0.9,0,1.6-0.1,2.1-0.3c0.6-0.2,1-0.5,1.3-0.9
			c0.3-0.4,0.5-1,0.6-1.7c0.1-0.7,0.2-1.6,0.2-2.7v-3.7c0-1.7-0.3-2.9-1-3.6c-0.6-0.6-1.7-1-3.3-1h-11.2c-0.9,0-1.6,0.1-2.1,0.3
			c-0.6,0.2-1,0.5-1.3,0.9c-0.3,0.4-0.5,1-0.6,1.7c-0.1,0.7-0.2,1.6-0.2,2.7V34z"/>
		<path class="st1" d="M341.7,33.8c0-0.4,0-0.9-0.1-1.3c0-0.5-0.1-0.9-0.1-1.2v-0.4h7.9v13.9c0,0.7-0.3,1.1-1,1.1h-21.3
			c-2.1,0-3.9-0.3-5.4-0.8c-1.5-0.5-2.7-1.3-3.6-2.3c-0.9-1-1.6-2.2-2-3.5c-0.4-1.4-0.6-2.9-0.6-4.7v-5.8c0-1.7,0.2-3.3,0.6-4.7
			c0.4-1.4,1.1-2.6,2-3.5c0.9-1,2.1-1.7,3.6-2.3c1.5-0.5,3.3-0.8,5.4-0.8h21.2c0.8,0,1.1,0.4,1.1,1.2v6.1l-7.4,2.7h-0.3v-2.7
			c0-0.3-0.1-0.4-0.4-0.4h-13.6c-0.8,0-1.4,0.1-2,0.2c-0.5,0.1-1,0.4-1.3,0.7c-0.3,0.4-0.6,0.8-0.7,1.4c-0.2,0.6-0.2,1.3-0.2,2.2v5
			c0,1.7,0.3,2.9,1,3.6c0.6,0.7,1.7,1,3.3,1h13.4c0.3,0,0.4-0.2,0.4-0.5V33.8z"/>
		<path class="st1" d="M353,45.9V17.6h8v28.4H353z"/>
		<path class="st1" d="M385.6,52.3l-8.5-13.2h-0.3v6.7h-1c-2.1,0-3.9-0.3-5.4-0.8c-1.5-0.5-2.7-1.3-3.6-2.3c-0.9-1-1.6-2.2-2-3.5
			c-0.4-1.4-0.6-2.9-0.6-4.7v-5.8c0-1.7,0.2-3.3,0.6-4.7c0.4-1.4,1.1-2.6,2-3.5c0.9-1,2.1-1.7,3.6-2.3c1.5-0.5,3.3-0.8,5.4-0.8h12.6
			c2.1,0,3.9,0.3,5.4,0.8c1.5,0.5,2.7,1.3,3.6,2.3c0.9,1,1.6,2.2,2,3.5c0.4,1.4,0.6,2.9,0.6,4.7v5.8c0,1.7-0.2,3.2-0.6,4.5
			c-0.4,1.2-1.1,2.2-1.9,3c-0.9,0.8-2,1.4-3.3,1.8c-1.3,0.4-2.9,0.7-4.7,0.7V45l4.9,7v0.3H385.6z M372.3,34c0,1,0.1,1.8,0.3,2.4
			c0.2,0.6,0.5,1.1,0.9,1.4c0.4,0.3,1,0.5,1.7,0.7c0.7,0.1,1.5,0.2,2.6,0.2h10c0.9,0,1.6-0.1,2.1-0.3c0.6-0.2,1-0.5,1.3-0.9
			c0.3-0.4,0.5-1,0.6-1.7c0.1-0.7,0.2-1.6,0.2-2.7v-3.7c0-1.7-0.3-2.9-1-3.6c-0.6-0.6-1.7-1-3.3-1h-11.2c-0.9,0-1.6,0.1-2.1,0.3
			c-0.6,0.2-1,0.5-1.3,0.9c-0.3,0.4-0.5,1-0.6,1.7c-0.1,0.7-0.2,1.6-0.2,2.7V34z"/>
	</g>
	<g>
		<path class="st1" d="M232.3,59v-1.5h1.9V59H232.3z M232.3,65.6v-5.7h1.9v5.7H232.3z"/>
		<path class="st1" d="M242,62.4c0-0.1,0-0.2,0-0.3c0-0.1,0-0.2,0-0.3v-0.1h2.1v3.7c0,0.2-0.1,0.3-0.3,0.3h-5.7
			c-0.6,0-1-0.1-1.4-0.2c-0.4-0.1-0.7-0.3-1-0.6c-0.2-0.3-0.4-0.6-0.5-0.9c-0.1-0.4-0.2-0.8-0.2-1.2v-1.6c0-0.5,0.1-0.9,0.2-1.2
			c0.1-0.4,0.3-0.7,0.5-0.9c0.2-0.3,0.6-0.5,1-0.6c0.4-0.1,0.9-0.2,1.4-0.2h5.7c0.2,0,0.3,0.1,0.3,0.3V60l-2,0.7H242V60
			c0-0.1,0-0.1-0.1-0.1h-3.6c-0.2,0-0.4,0-0.5,0.1c-0.1,0-0.3,0.1-0.3,0.2c-0.1,0.1-0.2,0.2-0.2,0.4c0,0.2-0.1,0.3-0.1,0.6v1.3
			c0,0.5,0.1,0.8,0.3,1c0.2,0.2,0.5,0.3,0.9,0.3h3.6c0.1,0,0.1,0,0.1-0.1V62.4z"/>
		<path class="st1" d="M245,61.3v-1.4h5.3c0.4,0,0.7,0.1,0.8,0.3c0.2,0.2,0.3,0.5,0.3,0.9v4.2c0,0.2-0.1,0.2-0.2,0.2h-5
			c-0.2,0-0.4,0-0.6-0.1c-0.2-0.1-0.3-0.1-0.4-0.3c-0.1-0.1-0.2-0.3-0.3-0.5s-0.1-0.5-0.1-0.8v-0.4c0-0.5,0.1-0.9,0.3-1.2
			c0.2-0.2,0.6-0.3,1-0.3h2.9l0.4,0.8h0.1v-1.2c0-0.2,0-0.3-0.1-0.3c-0.1-0.1-0.2-0.1-0.3-0.1H245z M249.4,64.2c0.1,0,0.1,0,0.1-0.1
			v-0.9h-2.5c-0.1,0-0.2,0-0.3,0.1c-0.1,0.1-0.1,0.2-0.1,0.3v0.2c0,0.1,0,0.2,0.1,0.3c0.1,0.1,0.1,0.1,0.3,0.1H249.4z"/>
		<path class="st1" d="M258.2,59.9h2.9c0.4,0,0.8,0.1,1.1,0.2c0.3,0.1,0.5,0.3,0.7,0.5c0.2,0.2,0.3,0.4,0.4,0.7s0.1,0.6,0.1,0.9v3.4
			h-1.9v-3.3c0-0.3-0.1-0.6-0.2-0.7s-0.3-0.2-0.6-0.2H259c0.1,0.2,0.1,0.5,0.1,0.8v3.4h-1.9v-3.3c0-0.3-0.1-0.6-0.2-0.7
			c-0.1-0.1-0.3-0.2-0.6-0.2h-1.8l-0.3-0.8h-0.1v5h-1.9v-5.7h4.4c0.4,0,0.7,0.1,1,0.2c0.3,0.1,0.5,0.3,0.7,0.4l0,0
			c-0.1-0.1-0.1-0.2-0.2-0.2C258.3,60.2,258.2,60.1,258.2,59.9L258.2,59.9z"/>
		<path class="st1" d="M264.4,59v-1.5h1.9V59H264.4z M264.4,65.6v-5.7h1.9v5.7H264.4z"/>
		<path class="st1" d="M267.2,59.9h4.7c0.4,0,0.8,0.1,1.1,0.2c0.3,0.1,0.5,0.3,0.7,0.5c0.2,0.2,0.3,0.4,0.4,0.7s0.1,0.6,0.1,0.9v3.4
			h-1.9v-3.3c0-0.3-0.1-0.6-0.2-0.7c-0.1-0.1-0.3-0.2-0.6-0.2h-2l-0.3-0.8h-0.1v5h-1.9V59.9z"/>
		<path class="st1" d="M275.3,66.4h4.1c0.3,0,0.5-0.1,0.6-0.2c0.1-0.1,0.2-0.3,0.2-0.6v-0.5h-2.8c-0.9,0-1.5-0.2-1.8-0.5
			c-0.4-0.3-0.5-0.9-0.5-1.6v-0.9c0-0.3,0-0.7,0.1-0.9s0.2-0.5,0.4-0.7c0.2-0.2,0.4-0.4,0.7-0.5c0.3-0.1,0.7-0.2,1.1-0.2h4.2
			c0.3,0,0.5,0.2,0.5,0.5v5.3c0,0.3,0,0.6-0.1,0.9c-0.1,0.3-0.2,0.5-0.4,0.7c-0.2,0.2-0.4,0.3-0.7,0.5c-0.3,0.1-0.7,0.2-1.1,0.2
			h-4.4V66.4z M280.1,64.9L280.1,64.9l0.1-3.4c0-0.1-0.1-0.2-0.2-0.2h-2.2c-0.3,0-0.5,0.1-0.6,0.2s-0.2,0.4-0.2,0.7v0.5
			c0,0.3,0.1,0.5,0.2,0.6c0.1,0.1,0.3,0.2,0.6,0.2h1.8L280.1,64.9z"/>
		<path class="st1" d="M289.5,61.2L289.5,61.2l-0.1,2.3c0,0.1,0,0.1,0.1,0.1h6.4v2h-8.4c-0.2,0-0.3-0.1-0.3-0.3v-7
			c0-0.2,0.1-0.3,0.3-0.3h8.1c0.2,0,0.3,0.1,0.3,0.3v2l-2,0.7H294v-1c0-0.1,0-0.1-0.1-0.1h-4.3c-0.1,0-0.1,0-0.1,0c0,0,0,0.1,0,0.1
			V61h3.5v1.5h-3L289.5,61.2z"/>
		<path class="st1" d="M299.1,59.9l1.7,1.7l1.8-1.7h2.2V60l-2.8,2.6l3,2.9v0.1h-2.3l-1.9-2l-2,2h-2.2v-0.1l3-2.9l-2.8-2.6v-0.1
			H299.1z"/>
		<path class="st1" d="M307.5,64.2L307.5,64.2l-0.1,3.8h-1.9v-7.5c0-0.4,0.2-0.6,0.6-0.6h4.1c0.4,0,0.8,0.1,1.1,0.2
			c0.3,0.1,0.5,0.3,0.7,0.5c0.2,0.2,0.3,0.4,0.4,0.7c0.1,0.3,0.1,0.6,0.1,0.9v1.2c0,0.3,0,0.7-0.1,0.9c-0.1,0.3-0.2,0.5-0.4,0.7
			c-0.2,0.2-0.4,0.4-0.7,0.5c-0.3,0.1-0.7,0.2-1.1,0.2h-2.1L307.5,64.2z M307.6,61.4c-0.1,0-0.2,0.1-0.2,0.2v2.3h2.4
			c0.3,0,0.5-0.1,0.6-0.2c0.1-0.1,0.2-0.3,0.2-0.7v-0.8c0-0.3-0.1-0.6-0.2-0.7s-0.3-0.2-0.6-0.2H307.6z"/>
		<path class="st1" d="M315.3,62.4L315.3,62.4l-0.1,0.9c0,0.3,0.1,0.5,0.2,0.7c0.1,0.1,0.3,0.2,0.6,0.2h4.1v1.5h-4.4
			c-0.4,0-0.8-0.1-1.1-0.2c-0.3-0.1-0.5-0.3-0.7-0.5c-0.2-0.2-0.3-0.4-0.4-0.7c-0.1-0.3-0.1-0.6-0.1-0.9v-1.2c0-0.3,0-0.7,0.1-0.9
			s0.2-0.5,0.4-0.7c0.2-0.2,0.4-0.4,0.7-0.5c0.3-0.1,0.7-0.2,1.1-0.2h3.3c0.4,0,0.7,0.1,0.9,0.3c0.2,0.2,0.3,0.6,0.3,1.1v0.6
			c0,0.4-0.1,0.8-0.3,1c-0.2,0.3-0.5,0.4-0.9,0.4h-3.3L315.3,62.4z M315.2,62.1h2.9c0.2,0,0.3-0.1,0.3-0.3v-0.2c0-0.1,0-0.2-0.1-0.2
			c-0.1,0-0.1-0.1-0.2-0.1H316c-0.3,0-0.5,0.1-0.6,0.2C315.3,61.5,315.2,61.7,315.2,62.1L315.2,62.1z"/>
		<path class="st1" d="M325.8,62.3L325.8,62.3l-0.1-0.8c0-0.1,0-0.1-0.1-0.1h-2.3c-0.2,0-0.3,0-0.4,0.1c-0.1,0.1-0.1,0.2-0.1,0.4
			v3.7h-1.9v-4.1c0-0.5,0.1-0.9,0.4-1.2c0.3-0.3,0.7-0.4,1.2-0.4h4.6c0.2,0,0.3,0.1,0.3,0.3v1.5L325.8,62.3z"/>
		<path class="st1" d="M328.1,59v-1.5h1.9V59H328.1z M328.1,65.6v-5.7h1.9v5.7H328.1z"/>
		<path class="st1" d="M332.9,62.4L332.9,62.4l-0.1,0.9c0,0.3,0.1,0.5,0.2,0.7c0.1,0.1,0.3,0.2,0.6,0.2h4.1v1.5h-4.4
			c-0.4,0-0.8-0.1-1.1-0.2c-0.3-0.1-0.5-0.3-0.7-0.5c-0.2-0.2-0.3-0.4-0.4-0.7c-0.1-0.3-0.1-0.6-0.1-0.9v-1.2c0-0.3,0-0.7,0.1-0.9
			s0.2-0.5,0.4-0.7c0.2-0.2,0.4-0.4,0.7-0.5c0.3-0.1,0.7-0.2,1.1-0.2h3.3c0.4,0,0.7,0.1,0.9,0.3c0.2,0.2,0.3,0.6,0.3,1.1v0.6
			c0,0.4-0.1,0.8-0.3,1c-0.2,0.3-0.5,0.4-0.9,0.4h-3.3L332.9,62.4z M332.8,62.1h2.9c0.2,0,0.3-0.1,0.3-0.3v-0.2c0-0.1,0-0.2-0.1-0.2
			c-0.1,0-0.1-0.1-0.2-0.1h-2.1c-0.3,0-0.5,0.1-0.6,0.2C332.9,61.5,332.8,61.7,332.8,62.1L332.8,62.1z"/>
		<path class="st1" d="M338.5,59.9h4.7c0.4,0,0.8,0.1,1.1,0.2c0.3,0.1,0.5,0.3,0.7,0.5c0.2,0.2,0.3,0.4,0.4,0.7s0.1,0.6,0.1,0.9v3.4
			h-1.9v-3.3c0-0.3-0.1-0.6-0.2-0.7c-0.1-0.1-0.3-0.2-0.6-0.2h-2l-0.3-0.8h-0.1v5h-1.9V59.9z"/>
		<path class="st1" d="M351.6,62.3L351.6,62.3l-0.1-0.8c0-0.1,0-0.1-0.1-0.1h-2.3c-0.3,0-0.5,0.1-0.6,0.2c-0.1,0.1-0.2,0.4-0.2,0.7
			v0.8c0,0.3,0.1,0.5,0.2,0.7c0.1,0.1,0.3,0.2,0.6,0.2h4.1v1.7h-4.4c-0.4,0-0.8-0.1-1.1-0.2c-0.3-0.1-0.5-0.3-0.7-0.5
			c-0.2-0.2-0.3-0.4-0.4-0.7c-0.1-0.3-0.1-0.6-0.1-0.9v-1.2c0-0.3,0-0.7,0.1-0.9c0.1-0.3,0.2-0.5,0.4-0.7c0.2-0.2,0.4-0.4,0.7-0.5
			c0.3-0.1,0.7-0.2,1.1-0.2h4.2c0.2,0,0.3,0.1,0.3,0.3v1.5L351.6,62.3z"/>
		<path class="st1" d="M355.9,62.4L355.9,62.4l-0.1,0.9c0,0.3,0.1,0.5,0.2,0.7c0.1,0.1,0.3,0.2,0.6,0.2h4.1v1.5h-4.4
			c-0.4,0-0.8-0.1-1.1-0.2c-0.3-0.1-0.5-0.3-0.7-0.5c-0.2-0.2-0.3-0.4-0.4-0.7c-0.1-0.3-0.1-0.6-0.1-0.9v-1.2c0-0.3,0-0.7,0.1-0.9
			s0.2-0.5,0.4-0.7c0.2-0.2,0.4-0.4,0.7-0.5c0.3-0.1,0.7-0.2,1.1-0.2h3.3c0.4,0,0.7,0.1,0.9,0.3c0.2,0.2,0.3,0.6,0.3,1.1v0.6
			c0,0.4-0.1,0.8-0.3,1c-0.2,0.3-0.5,0.4-0.9,0.4h-3.3L355.9,62.4z M355.9,62.1h2.9c0.2,0,0.3-0.1,0.3-0.3v-0.2c0-0.1,0-0.2-0.1-0.2
			c-0.1,0-0.1-0.1-0.2-0.1h-2.1c-0.3,0-0.5,0.1-0.6,0.2C355.9,61.5,355.9,61.7,355.9,62.1L355.9,62.1z"/>
	</g>
</g>
</svg>
