<svg id="Layer_1" data-name="Layer 1" xmlns="http://www.w3.org/2000/svg" viewBox="0 0 481 121"><defs><style>.cls-1{fill:#fff;}.cls-2{fill:#f3be37;}.cls-3{fill:none;}</style></defs><title>BETBUQ LOGO_final</title><path class="cls-1" d="M73.53,69.61q0,11.91-17.92,11.91H7.28V20.69h52.1q13.67,0,13.67,11.79V39.9q0,9-10.49,10.26,11,1.42,11,11.67ZM60,40.73V34.95q0-4.36-6.48-4.36H21.19v14.5h32.3Q60,45.09,60,40.73Zm.35,24.4v-4.6q0-3.42-1.59-4.42a10.29,10.29,0,0,0-5.25-1H21.19V70.55h32.3a10.27,10.27,0,0,0,5.25-1Q60.33,68.55,60.33,65.13Z"/><path class="cls-1" d="M143.46,81.51H80.63V20.69h62.24V31.06H94.77V44.62h28.06V55H94.77V70.08h48.69Z"/><path class="cls-1" d="M221.19,31.53H193.14v50H179v-50H151.05V20.69h70.14Z"/><path class="cls-2" d="M295.08,69.61q0,11.91-17.92,11.91H228.83V20.69h52.1q13.67,0,13.68,11.79V39.9q0,9-10.49,10.26,11,1.42,11,11.67ZM281.53,40.73V34.95q0-4.36-6.48-4.36h-32.3v14.5H275Q281.52,45.09,281.53,40.73Zm.35,24.4v-4.6q0-3.42-1.59-4.42a10.29,10.29,0,0,0-5.24-1h-32.3V70.55H275a10.26,10.26,0,0,0,5.24-1Q281.88,68.55,281.88,65.13Z"/><path class="cls-2" d="M373.05,67.13q0,8.49-3.24,11.43T358,81.51H319.53q-8.61,0-11.85-2.95t-3.24-11.43V20.69h14.15V70.08h40.32V20.69h14.15Z"/><path class="cls-2" d="M457.22,67.13q0,10.73-6,13.2-2.83,1.18-15.68,1.18l19.91,32.29H436.82L422.33,81.51h-25q-8.61,0-11.85-2.95t-3.24-11.43V35.07q0-8.49,3.24-11.44t11.85-2.95h44.79q8.61,0,11.85,2.95t3.24,11.44Zm-14.15,2.95V31.53H396.39V70.08h20.87l-5.66-13.2,10.26-4.13,8.25,17.33Z"/><path class="cls-1" d="M468.65,5.58a7.55,7.55,0,1,0,7.55,7.55,7.56,7.56,0,0,0-7.55-7.55Zm0,13a5.47,5.47,0,1,1,5.47-5.47,5.48,5.48,0,0,1-5.47,5.47Zm2.74-6.46c0-1.52-1.07-2.47-2.79-2.47h-2.55v6.91h1.46V14.66h1.29l1.41,1.93H472l-1.72-2.35a2.35,2.35,0,0,0,1.09-2.08Zm-2.79,1h-1.09V11.14h1.09c1.33,0,1.33.76,1.33,1s0,1-1.33,1Zm0,0"/><path class="cls-3" d="M358.36,100.36a4.07,4.07,0,0,0-1.22-.13h-3.66l-.79,3.79h2.07c1,0,1.59,0,1.88,0a3.64,3.64,0,0,0,1.39-.38,2.16,2.16,0,0,0,.85-.8,2.12,2.12,0,0,0,.3-1.09,1.63,1.63,0,0,0-.22-.85A1.14,1.14,0,0,0,358.36,100.36Z"/><path class="cls-3" d="M49.93,100.22a20.16,20.16,0,0,1-1.11,2.29L47,105.84h3.72L50.24,103C50.08,101.9,50,101,49.93,100.22Z"/><path class="cls-1" d="M23,100.72a4.21,4.21,0,0,1,2.27-.66,2.94,2.94,0,0,1,1.92.61,3,3,0,0,1,1,1.77l1.47-.16a4.85,4.85,0,0,0-.73-1.89,3.53,3.53,0,0,0-1.45-1.16,5.12,5.12,0,0,0-2.15-.43,5.9,5.9,0,0,0-3,.79A6.08,6.08,0,0,0,20,102a7.63,7.63,0,0,0-.89,3.68,4.91,4.91,0,0,0,1,3.21,4.46,4.46,0,0,0,3.66,1.48,7.79,7.79,0,0,0,2.33-.37,8.9,8.9,0,0,0,2.12-.95l1-4.57H24.32l-.27,1.27h3.41l-.5,2.41a6.41,6.41,0,0,1-3.15,1,3.06,3.06,0,0,1-2.3-.86,3.56,3.56,0,0,1-.83-2.56,7,7,0,0,1,.63-3A4.58,4.58,0,0,1,23,100.72Z"/><path class="cls-1" d="M49.24,99l-6.37,11.23h1.65l1.8-3.23h4.55l.54,3.23h1.45L51,99ZM47,105.84l1.85-3.32a20.16,20.16,0,0,0,1.11-2.29c0,.74.15,1.68.31,2.8l.44,2.82Z"/><path class="cls-1" d="M80.34,106A29.64,29.64,0,0,0,78.78,109c0-.88-.14-1.8-.29-2.75L77.35,99H75.5l-2.34,11.23h1.46l1.49-7.16q.19-.87.38-2.34c0,.88.12,1.65.22,2.31l1.13,7.2h1.45l4.18-7.34q.72-1.27,1.2-2.36a43.84,43.84,0,0,0-1.16,4.24l-1.18,5.46h1.48L86.15,99H84.28Z"/><polygon class="cls-1" points="105.26 110.23 106.76 110.23 109.1 99 107.61 99 105.26 110.23"/><path class="cls-1" d="M136.57,105.6c-.21,1-.38,2-.52,2.92-.25-.87-.48-1.55-.67-2.07q-.51-1.31-1.37-3.24L132.11,99h-1.45l-2.35,11.23h1.47l1.42-6.82q.33-1.6.44-2.69a32.25,32.25,0,0,0,1.15,3l2.79,6.49h1.49L139.41,99h-1.47Z"/><path class="cls-1" d="M163.06,100.72a4.19,4.19,0,0,1,2.27-.66,2.92,2.92,0,0,1,1.92.61,3,3,0,0,1,1,1.77l1.47-.16a4.8,4.8,0,0,0-.73-1.89,3.51,3.51,0,0,0-1.45-1.16,5.1,5.1,0,0,0-2.15-.43,5.92,5.92,0,0,0-3,.79A6.12,6.12,0,0,0,160.1,102a7.71,7.71,0,0,0-.89,3.68,4.91,4.91,0,0,0,1,3.21,4.46,4.46,0,0,0,3.66,1.48,7.79,7.79,0,0,0,2.33-.37,9,9,0,0,0,2.11-.95l1-4.57h-4.91l-.27,1.27h3.41l-.5,2.41a6.4,6.4,0,0,1-3.15,1,3.07,3.07,0,0,1-2.31-.86,3.56,3.56,0,0,1-.83-2.56,7,7,0,0,1,.63-3A4.58,4.58,0,0,1,163.06,100.72Z"/><path class="cls-1" d="M216.15,105.18a9.28,9.28,0,0,1-.78,2.44,2.86,2.86,0,0,1-1.17,1.17,3.36,3.36,0,0,1-1.6.39,2.85,2.85,0,0,1-1.8-.55,1.76,1.76,0,0,1-.71-1.46,7.32,7.32,0,0,1,.17-1.27l1.44-6.9h-1.5l-1.28,6.13a11.07,11.07,0,0,0-.32,2,3.11,3.11,0,0,0,.47,1.69,3,3,0,0,0,1.39,1.16,5.36,5.36,0,0,0,2.21.42,4.63,4.63,0,0,0,2.37-.59,4.31,4.31,0,0,0,1.59-1.57,9,9,0,0,0,.93-2.67L218.94,99h-1.5Z"/><path class="cls-1" d="M246.28,105.6c-.21,1-.38,2-.52,2.92-.26-.87-.48-1.55-.67-2.07q-.51-1.31-1.37-3.24L241.83,99h-1.45L238,110.23h1.46l1.43-6.82q.33-1.6.45-2.69a30.6,30.6,0,0,0,1.16,3l2.78,6.49h1.49L249.13,99h-1.47Z"/><polygon class="cls-1" points="268.3 110.23 269.8 110.23 272.14 99 270.65 99 268.3 110.23"/><path class="cls-1" d="M296.9,106.35c-.3.57-.69,1.32-1.15,2.28q-.1-1.12-.47-2.94L294,99h-1.45l2.16,11.23h1.61L302.45,99H300.9Z"/><polygon class="cls-1" points="320.57 110.23 329.14 110.23 329.41 108.95 322.33 108.95 323.15 105.05 329.58 105.05 329.84 103.77 323.41 103.77 324.15 100.28 330.75 100.28 331.02 99 322.92 99 320.57 110.23"/><path class="cls-1" d="M360.59,101.73a3,3,0,0,0-.41-1.62,2.09,2.09,0,0,0-1.13-.88,7.27,7.27,0,0,0-2.11-.23h-4.71l-2.36,11.23h1.5l1-5h1.74a3.48,3.48,0,0,1,1.3.18,2.12,2.12,0,0,1,.79.76,10.2,10.2,0,0,1,1,2l.8,2.09h1.68l-.85-2.11a10.34,10.34,0,0,0-1.13-2,4.39,4.39,0,0,0-.93-.89,4.85,4.85,0,0,0,2.89-1.17A3.1,3.1,0,0,0,360.59,101.73Zm-1.73,1.07a2.16,2.16,0,0,1-.85.8,3.64,3.64,0,0,1-1.39.38c-.29,0-.92,0-1.88,0h-2.07l.79-3.79h3.66a4.07,4.07,0,0,1,1.22.13,1.14,1.14,0,0,1,.58.49,1.63,1.63,0,0,1,.22.85A2.12,2.12,0,0,1,358.86,102.8Z"/><path class="cls-1" d="M388,99.27a5.25,5.25,0,0,0-2.31-.46,5.45,5.45,0,0,0-2.06.37,3,3,0,0,0-1.39,1.07,2.69,2.69,0,0,0-.47,1.56,2.46,2.46,0,0,0,.36,1.34,3.54,3.54,0,0,0,1.12,1.09,16,16,0,0,0,1.81.88,7.15,7.15,0,0,1,2.08,1.16,1.45,1.45,0,0,1,.37,1,1.73,1.73,0,0,1-.71,1.35,3.12,3.12,0,0,1-2,.59,4.24,4.24,0,0,1-1.64-.29,2,2,0,0,1-1-.84,2.42,2.42,0,0,1-.3-1.19l0-.4-1.47.14a3.39,3.39,0,0,0,1.21,3,5.38,5.38,0,0,0,3.12.83A5.62,5.62,0,0,0,387,110a3.54,3.54,0,0,0,1.54-1.19,2.79,2.79,0,0,0,.56-1.68,2.6,2.6,0,0,0-.33-1.31,3,3,0,0,0-.94-1,14,14,0,0,0-1.67-.84c-1-.44-1.62-.73-1.89-.88a2.17,2.17,0,0,1-.78-.64,1.31,1.31,0,0,1-.21-.74,1.34,1.34,0,0,1,.53-1.12,3,3,0,0,1,1.91-.55,3.78,3.78,0,0,1,1.25.19,2.29,2.29,0,0,1,.89.52,1.94,1.94,0,0,1,.48.79,2.62,2.62,0,0,1,.08.74l1.44-.12c0-.11,0-.18,0-.23a3,3,0,0,0-.43-1.47A3,3,0,0,0,388,99.27Z"/><polygon class="cls-1" points="409.28 110.23 417.85 110.23 418.12 108.95 411.05 108.95 411.86 105.05 418.29 105.05 418.56 103.77 412.13 103.77 412.87 100.28 419.46 100.28 419.74 99 411.63 99 409.28 110.23"/><polygon class="cls-1" points="7.28 110.42 8.78 110.42 10.16 103.02 8.67 103.02 7.28 110.42"/><polygon class="cls-1" points="8.88 101.2 10.33 101.2 10.53 100.13 9.08 100.13 8.88 101.2"/></svg>