<?xml version="1.0" encoding="utf-8"?>
<!-- Generator: Adobe Illustrator 23.0.1, SVG Export Plug-In . SVG Version: 6.00 Build 0)  -->
<svg version="1.1" id="Layer_1" xmlns="http://www.w3.org/2000/svg" xmlns:xlink="http://www.w3.org/1999/xlink" x="0px" y="0px"
	 width="1878.5px" height="425.6px" viewBox="0 0 1878.5 425.6" style="enable-background:new 0 0 1878.5 425.6;"
	 xml:space="preserve">
<style type="text/css">
	.st0{fill:#F1BC46;}
	.st1{fill:#FFFFFF;}
</style>
<title>01_BetuniQ-Logo-crop</title>
<g>
	<path class="st0" d="M313.3,1.5l-10.2,34.2c0,0.1-0.1,0.2-0.1,0.2l-12.1,15.3l-40.4,52.3c-0.3,0.4,0,1.1,0.5,1.1l30.4,1.2
		c0.4,0,0.8,0.5,0.6,0.9l-34.3,115.7l-9.3,31.2l-2.7,9l-11.7,39.5c-0.1,0.3-0.4,0.5-0.7,0.5H66.3l0-0.2c-0.1,0-0.2,0-0.3,0
		c-32.9,2.7-62.6-22.4-65.8-55.2c-0.7-7.5-0.2-14.7,1.5-21.5l0-0.2l1-3.2l0.5-1.7l0.1-0.4l32.9-111.1L68.5,0.9
		c1.9-0.2,3.8-0.3,5.7-0.3H155c0.5,0,0.8,0.4,0.7,0.9L99.4,191.3l-9,30.2c-0.1,0.4,0.2,0.9,0.7,0.9h61c0.3,0,0.6-0.2,0.7-0.5
		l12.4-41.8l53.1-179c0.1-0.3,0.4-0.5,0.7-0.5h93.8C313.1,0.6,313.4,1,313.3,1.5z"/>
	<path class="st0" d="M531.8,0.2l-0.3,0.8V0h-75.2h-90l-11.6,39v0l2,10.2l10.4,44.9v0l3.5,14.9l-17.7-0.7l-18.5-0.7l-33.8,114
		L276.8,302l-0.1,0.4l-32.3,109c10.8,9,24.6,14.4,39.7,14.4c6.1,0,12.1-0.9,17.7-2.6c18.2-5.4,32.9-19,39.8-36.4l0-0.1l3.2-10.6v0
		l7.3-24.6c0.3-1.3,0.3-1.5,0.4-2.2c1.2-7.9,3-15.6,6.9-22.1l0-0.1c8.8-15,25.1-25,43.8-25h39.5c20.2,0,39.2-5.1,55.8-14.1
		c26.1-14.1,46.2-37.7,55.8-66.2h0.3l39.9-134.4l4.9-16.6c0.4-2.9,0.6-5.8,0.6-8.9C600,26,569-2.8,531.8,0.2z M499.3,109.8l-0.4,1.4
		l-32.8,110.6h-75.5l45.7-154h75.5l-5.2,17.7L499.3,109.8z"/>
	<g>
		<path class="st1" d="M833.4,169.2c0,65.8-47.6,113.8-108.3,113.8c-30.2,0-53.1-10.5-65.4-32l-5.8,29.1H600l45.9-229.9
			c4.6-23.1,24.9-39.8,48.5-39.8h16.2l-18.2,90.9c14.9-12.4,33.8-19.6,56.3-19.6C794.1,81.6,833.4,113.6,833.4,169.2z M776,171.8
			c0-26.5-16.4-43.3-44.7-43.3c-33.1,0-57.1,26.2-57.1,64.3c0,26.5,16,43.2,44.3,43.2C752,236.1,776,209.9,776,171.8z"/>
		<path class="st1" d="M1059.8,197.6H910c1.8,26.5,18.2,40,50.5,40c10.5,0,20.8-1.8,30-5.2c14.5-5.4,30.8,0.5,39,13.6l6.9,10.9
			c-22.5,18.2-52,26.2-81.8,26.2c-61.1,0-99.9-34.5-99.9-87.6C854.8,130,902,81.6,970,81.6c57.1,0,93,33.8,93,86.1
			C1063,178.3,1061.6,188.5,1059.8,197.6z M914,164.5h97c0-25.8-17.4-40.3-43.6-40.3C940.2,124.2,921.6,140.1,914,164.5z"/>
		<path class="st1" d="M1156,211c-0.7,2.9-0.7,5.5-0.7,8c0,12,6.5,18.9,20.7,18.9c7.6,0,15.6-2.5,22.9-6.9l8.4,40.3
			c-14.2,8.7-31.6,11.6-48.7,11.6c-36.3,0-61-20.3-61-54.5c0-5.5,0.7-11.3,1.8-17.1l15.6-78.9h-30.2l8.7-43.6h30.2l9.5-47.6h56.7
			l-9.4,47.6h17.6c16.1,0,28.2,14.7,25,30.5l-2.6,13.1h-48.7L1156,211z"/>
	</g>
</g>
</svg>
