<?xml version="1.0" encoding="utf-8"?>
<!-- Generator: Adobe Illustrator 22.1.0, SVG Export Plug-In . SVG Version: 6.00 Build 0)  -->
<svg version="1.1" id="Layer_1" xmlns="http://www.w3.org/2000/svg" xmlns:xlink="http://www.w3.org/1999/xlink" x="0px" y="0px"
	 width="400px" height="72px" viewBox="0 0 400 72" style="enable-background:new 0 0 400 72;" xml:space="preserve">
<style type="text/css">
	.st0{fill:#F9F9F9;}
	.st1{fill-rule:evenodd;clip-rule:evenodd;fill:#02EC00;}
	.st2{fill-rule:evenodd;clip-rule:evenodd;fill:#152C52;}
	.st3{fill-rule:evenodd;clip-rule:evenodd;fill:#FFFFFF;}
</style>
<g>
	<path class="st0" d="M132.2,9.1l0,10.5c0,0.3-0.1,0.5-0.3,0.7c-0.2,0.2-0.5,0.3-0.7,0.3l-11.6,0l0,39.2c0,0.3-0.1,0.6-0.3,0.8
		c-0.2,0.2-0.5,0.3-0.7,0.3l-12.8,0c-0.3,0-0.5-0.1-0.7-0.3c-0.2-0.2-0.3-0.4-0.3-0.8l0-39.2l-11.6,0c-0.3,0-0.6-0.1-0.8-0.3
		c-0.2-0.2-0.3-0.4-0.3-0.7l0-10.5c0-0.3,0.1-0.6,0.3-0.8C92.6,8.1,92.8,8,93.1,8l38,0c0.3,0,0.5,0.1,0.7,0.3
		C132,8.5,132.2,8.7,132.2,9.1z"/>
	<path class="st0" d="M147.5,20.6l-12.7,0c-0.3,0-0.6-0.1-0.8-0.3c-0.2-0.2-0.3-0.5-0.3-0.7l0-10.5c0-0.3,0.1-0.6,0.3-0.8
		c0.2-0.2,0.4-0.3,0.8-0.3l12.7,0c0.3,0,0.5,0.1,0.7,0.3c0.2,0.2,0.3,0.4,0.3,0.8l0,10.5c0,0.3-0.1,0.5-0.3,0.7
		C148,20.5,147.7,20.6,147.5,20.6z M147.5,60.8l-12.7,0c-0.3,0-0.6-0.1-0.8-0.3c-0.2-0.2-0.3-0.4-0.3-0.8l0-33.4
		c0-0.3,0.1-0.5,0.3-0.7c0.2-0.2,0.4-0.3,0.8-0.3l12.7,0c0.3,0,0.5,0.1,0.7,0.3c0.2,0.2,0.3,0.5,0.3,0.7l0,33.4
		c0,0.3-0.1,0.6-0.3,0.8C148,60.7,147.7,60.8,147.5,60.8z"/>
	<path class="st0" d="M203.4,60.8l-12.2,0c-0.3,0-0.5-0.1-0.7-0.3s-0.3-0.5-0.3-0.7l0-21c0-0.4-0.1-0.8-0.3-1.2
		c-0.5-0.8-1.1-1.3-2.1-1.3c-0.7,0-1.2,0.2-1.7,0.7c-0.5,0.5-0.7,1.1-0.7,1.8l0,21c0,0.3-0.1,0.5-0.3,0.7c-0.2,0.2-0.5,0.3-0.7,0.3
		l-13.3,0c-0.3,0-0.5-0.1-0.7-0.3c-0.2-0.2-0.3-0.5-0.3-0.7l0-21c0-0.4-0.1-0.8-0.3-1.2c-0.5-0.8-1.1-1.3-2.1-1.3
		c-0.7,0-1.2,0.2-1.7,0.7c-0.5,0.5-0.7,1.1-0.7,1.8l0,21c0,0.3-0.1,0.6-0.3,0.8c-0.2,0.2-0.5,0.3-0.7,0.3l-13.3,0
		c-0.3,0-0.6-0.1-0.8-0.3c-0.2-0.2-0.3-0.4-0.3-0.8l0-34.2c0-0.3,0.1-0.5,0.3-0.7c0.2-0.2,0.4-0.3,0.8-0.3l10.2,0
		c1.9-0.5,3.9-0.7,6.1-0.7c3.8,0,7,0.8,9.8,2.3c2.8-1.5,6.1-2.3,9.9-2.3c2.8,0,5.3,0.4,7.5,1.2c2.2,0.8,4,1.9,5.5,3.3
		c1.4,1.4,2.5,3.1,3.2,4.9c0.7,1.9,1.1,3.9,1.1,6.1l0,20.4c0,0.3-0.1,0.6-0.3,0.8C204,60.7,203.7,60.8,203.4,60.8z"/>
	<path class="st0" d="M228.1,23.8c4.5,0.4,8.3,2.2,11.6,5.3c3.3,3.2,5.1,7,5.6,11.5c0.3,2.8,0,5.5-0.9,8.1c-0.9,2.6-2.2,4.8-3.9,6.7
		c-1.7,1.9-3.8,3.4-6.3,4.5c-2.5,1.1-5.1,1.7-7.8,1.7c-1.9,0-3.8-0.3-5.6-0.8v0.1l-13.8,0c-0.3,0-0.5-0.1-0.7-0.3
		c-0.2-0.2-0.3-0.4-0.3-0.7l0-51.5c0-0.3,0.1-0.5,0.3-0.7c0.2-0.2,0.4-0.3,0.7-0.3l12.8,0c0.3,0,0.5,0.1,0.7,0.3
		c0.2,0.2,0.3,0.4,0.3,0.7l0,16.4C223.2,23.9,225.6,23.7,228.1,23.8z M222.8,46.5c1,1,2.3,1.6,3.7,1.6c1.5,0,2.7-0.5,3.7-1.6
		c1-1,1.6-2.3,1.6-3.7c0-1.5-0.5-2.7-1.6-3.7c-1-1-2.3-1.6-3.7-1.6c-1.5,0-2.7,0.5-3.7,1.6c-1,1-1.5,2.3-1.5,3.7
		C221.2,44.2,221.7,45.4,222.8,46.5z"/>
	<path class="st0" d="M282.7,34.9c1.3,2.7,2,5.6,2.1,8.7c0,0.6-0.2,0.9-0.8,1l-20,4.4c0.9,0.5,1.8,0.7,2.9,0.7
		c1.7,0,3.2-0.5,4.5-1.6c0.2-0.2,0.5-0.3,0.8-0.3c0.3,0,0.5,0.2,0.7,0.4l5.5,8.1c0.4,0.5,0.3,1-0.2,1.4c-3.6,3.1-7.7,4.6-12.4,4.6
		c-3.4,0-6.6-0.8-9.5-2.5c-2.9-1.7-5.2-4-6.9-6.9c-1.7-2.9-2.5-6.1-2.5-9.5v-0.1c0-0.5,0-1,0.1-1.5c0.4-4.9,2.4-8.9,6-12.3
		c3.6-3.3,7.9-5,12.8-5c3.7,0,7,0.9,10,2.8C278.9,29.1,281.2,31.7,282.7,34.9z M268.2,35.8c-1.4,0-2.7,0.3-3.9,0.9s-2.1,1.4-2.6,2.4
		c-0.1,0.1-0.1,0.2,0,0.3c0.1,0.1,0.2,0.1,0.3,0.1l9.8-2.1c0.1,0,0.2-0.1,0.2-0.2c0-0.1,0-0.2-0.1-0.3
		C270.9,36.1,269.6,35.8,268.2,35.8z"/>
	<path class="st0" d="M302.1,26.7c2.7-1,5.6-1.4,8.6-1.4c0.5,0,0.9,0,1.4,0.1c0.3,0,0.5,0.2,0.7,0.3c0.2,0.2,0.3,0.4,0.3,0.7l0,10.6
		c0,0.3-0.1,0.5-0.3,0.7c-0.2,0.2-0.5,0.3-0.8,0.3c-0.5,0-0.9-0.1-1.3-0.1c-1.9,0-3.6,0.4-5.1,1.1c-1.5,0.7-2.7,1.7-3.5,2.9l0,17.7
		c0,0.3-0.1,0.6-0.3,0.8c-0.2,0.2-0.5,0.3-0.7,0.3l-13.7,0c-0.3,0-0.6-0.1-0.8-0.3c-0.2-0.2-0.3-0.4-0.3-0.8l0-33.4
		c0-0.3,0.1-0.5,0.3-0.7c0.2-0.2,0.4-0.3,0.8-0.3l13.7,0c0.3,0,0.5,0.1,0.7,0.3c0.2,0.2,0.3,0.4,0.3,0.7V26.7z"/>
	<path class="st0" d="M328.4,20.6l-12.7,0c-0.3,0-0.6-0.1-0.8-0.3c-0.2-0.2-0.3-0.5-0.3-0.7l0-10.5c0-0.3,0.1-0.6,0.3-0.8
		c0.2-0.2,0.4-0.3,0.8-0.3l12.7,0c0.3,0,0.5,0.1,0.7,0.3c0.2,0.2,0.3,0.4,0.3,0.8l0,10.5c0,0.3-0.1,0.5-0.3,0.7
		C328.9,20.5,328.7,20.6,328.4,20.6z M328.4,60.8l-12.7,0c-0.3,0-0.6-0.1-0.8-0.3c-0.2-0.2-0.3-0.4-0.3-0.8l0-33.4
		c0-0.3,0.1-0.5,0.3-0.7c0.2-0.2,0.4-0.3,0.8-0.3l12.7,0c0.3,0,0.5,0.1,0.7,0.3c0.2,0.2,0.3,0.5,0.3,0.7l0,33.4
		c0,0.3-0.1,0.6-0.3,0.8C328.9,60.7,328.7,60.8,328.4,60.8z"/>
	<path class="st0" d="M360.5,25.4c0.3,0,0.5,0.1,0.7,0.3c0.2,0.2,0.3,0.5,0.3,0.7l0,10.5c0,0.3-0.1,0.5-0.3,0.7s-0.4,0.3-0.7,0.3
		l-6.9,0l0,21.8c0,0.3-0.1,0.6-0.3,0.8c-0.2,0.2-0.4,0.3-0.7,0.3l-12.8,0c-0.3,0-0.5-0.1-0.7-0.3c-0.2-0.2-0.3-0.4-0.3-0.8l0-21.8
		l-6.9,0c-0.3,0-0.5-0.1-0.7-0.3c-0.2-0.2-0.3-0.5-0.3-0.7l0-10.5c0-0.3,0.1-0.5,0.3-0.7c0.2-0.2,0.4-0.3,0.7-0.3l6.9,0l0-9.2
		c0-0.3,0.1-0.5,0.3-0.7c0.2-0.2,0.4-0.3,0.7-0.3l12.8,0c0.3,0,0.5,0.1,0.7,0.3c0.2,0.2,0.3,0.4,0.3,0.7l0,9.2L360.5,25.4z"/>
	<path class="st0" d="M371.6,27.1c2.9-1.7,6.1-2.5,9.5-2.5c3.4,0,6.6,0.8,9.5,2.5c2.9,1.7,5.2,4,6.9,6.9c1.7,2.9,2.5,6.1,2.5,9.5
		c0,3.4-0.8,6.6-2.5,9.5c-1.7,2.9-4,5.2-6.9,6.9c-2.9,1.7-6.1,2.5-9.5,2.5c-3.4,0-6.6-0.8-9.5-2.5c-2.9-1.7-5.2-4-6.9-6.9
		c-1.7-2.9-2.5-6-2.5-9.5c0-3.4,0.8-6.6,2.5-9.5C366.4,31,368.7,28.7,371.6,27.1z M377.3,47.2c1,1,2.3,1.6,3.7,1.6
		c1.5,0,2.7-0.5,3.7-1.6c1-1,1.5-2.3,1.5-3.7c0-1.5-0.5-2.7-1.5-3.7c-1-1-2.3-1.6-3.7-1.6c-1.5,0-2.7,0.5-3.7,1.6
		c-1,1-1.5,2.3-1.5,3.7C375.8,44.9,376.3,46.2,377.3,47.2z"/>
</g>
<g>
	<g>
		<path class="st1" d="M71.2,14.1c5.9,2,10.7,5.9,13.8,10.7c-2.8-3.9-6.9-7-11.8-8.6c-0.4-0.1-0.7-0.2-1.1-0.3
			C84.1,20.5,90.4,33.7,86.2,46c-4.1,12.3-17.1,19-29.4,15.5c0.4,0.1,0.7,0.3,1.1,0.4c4.9,1.7,10,1.6,14.6,0.2
			C67.1,64,61,64.2,55,62.2c-2.3-0.8-4.4-1.8-6.3-3.1c1.9,0.6,3.8,1,5.8,1.2L62,14.4c-4,0.3-7.3,0.5-10.1,0.6
			C57.7,12.4,64.6,11.9,71.2,14.1L71.2,14.1z"/>
		<path class="st1" d="M49.9,54.2c-2.8-0.2-10.7-3.3-13.7-6c3.7,6.3,14.1,11.6,22.6,13.3C56.9,60.7,51.3,55.6,49.9,54.2L49.9,54.2z
			 M48.2,21.4c4.5,0.2,11.5-2.1,15-6.9C57.1,14,46.4,20.3,38,15C39.8,17.9,44.6,20.9,48.2,21.4L48.2,21.4z M45.2,33.5
			c3.1-4.5,3.3-7.8,0.6-10c-4.1-0.7-9.6-3.5-15.1-7.2c1.8,3.1,6.8,6.4,11,8.3c-5.6-1.1-12.6-6.3-14.5-8.9
			C29.3,22.4,38.5,29,45.2,33.5L45.2,33.5z M49.2,38.5c-0.5,2.8-1,8.3-0.6,14.2C29.5,40.4,31.3,27.8,17.4,20.3
			c3.5,1.1,6.7,2.1,11.4,6.3c-3.7-5.4-8.2-7.2-15.3-8.5c9.3-0.4,13.7,3.5,17.5,7C36.2,29.9,39.7,35.3,49.2,38.5L49.2,38.5z
			 M39.1,47.2C29.5,39.7,25.5,28.1,17.7,23c4.2,3.8,6.9,12.4,12.7,18c-4.1-1.9-10.1-11.3-13.4-16.3C12.1,17,9.2,14.6,0,16.9
			c7.4,0.9,8.9,4.8,12.2,9.4C17.3,33.4,23.4,42.6,39.1,47.2L39.1,47.2z"/>
		<path class="st1" d="M70.7,15.7c12.4,4.2,19.1,17.6,14.9,30.1C81.4,58.2,68,64.9,55.5,60.7S36.4,43,40.6,30.6
			C44.8,18.2,58.3,11.5,70.7,15.7L70.7,15.7z"/>
	</g>
	<path class="st2" d="M59.8,16.6c12.3-1.6,23.5,7,25.1,19.3c1.6,12.3-7,23.5-19.3,25.1c-12.3,1.6-23.5-7-25.1-19.3
		C38.9,29.4,47.5,18.2,59.8,16.6L59.8,16.6z"/>
	<path class="st3" d="M60.7,19.3c10.5-1.4,20.1,6,21.4,16.5c1.4,10.5-6,20.1-16.5,21.4c-10.5,1.4-20.1-6-21.4-16.5
		C42.9,30.2,50.2,20.6,60.7,19.3L60.7,19.3z"/>
	<path class="st2" d="M61.1,54c-3.8-0.9-7.6-3.2-10.3-5.8C52.9,51.9,56.8,54.2,61.1,54L61.1,54z M62.1,52.4
		c-3.8-0.8-7.6-3.1-10.3-5.8C53.9,50,57.8,52.3,62.1,52.4L62.1,52.4z"/>
	<path class="st2" d="M77.5,45.2c-2.1,3.3-5.4,6.2-8.8,8C72.9,52.4,76.3,49.4,77.5,45.2L77.5,45.2z M76.3,43.7c-2,3.4-5.3,6.3-8.8,8
		C71.5,50.8,74.8,47.8,76.3,43.7L76.3,43.7z"/>
	<path class="st2" d="M49.5,29.6c-1.7,3.5-2.3,7.9-2,11.7C46,37.3,46.7,32.8,49.5,29.6L49.5,29.6z M51.5,29.8
		c-1.8,3.5-2.4,7.8-2,11.7C48.1,37.7,48.8,33.2,51.5,29.8L51.5,29.8z"/>
	<path class="st2" d="M65.8,31.2l3.6-6.8c-1.2-1.6-2.4-3-3.8-3.9c-0.1,0-0.2,0-0.3,0c-1.5-0.2-3-0.2-4.5,0c-1.8,0.2-3.5,0.7-5.1,1.5
		c-1,1.3-1.9,2.8-2.5,4.6l5.2,5.7C60.8,31.5,63.3,31.2,65.8,31.2L65.8,31.2z M69.8,58.1c6.4-2.5,10.7-6.8,12.2-11.7
		c1.2-2.1,1.8-4.4,1.8-7c-0.3-2-0.9-3.6-2.4-4.6c-0.4-2.2-1.2-4.2-2.3-6c-0.6-1-1.3-2-2.1-2.9c0.1-1.1,0-2.2-0.6-3.1
		c-2-2-4.5-3.4-7.5-4.1c-1.5,0-2.8,0.3-3.9,1.1c-1.4-0.1-2.8-0.1-4.3,0.1c-1.5,0.2-3,0.6-4.4,1.1c-1.4-0.5-2.8-0.5-4.2-0.1
		c-2.7,1.4-4.7,3.5-6.1,5.9l0,0c-3.6,4.7-4.6,10.7-2.9,18c0.7,2.5,1.9,4.6,3.6,6.3c3,4.6,8,7.4,14.8,8.2
		C64,59.3,67.3,58.9,69.8,58.1L69.8,58.1z M46.7,51.1c0,0-0.1,0-0.1,0C46.6,51,46.7,51.1,46.7,51.1L46.7,51.1z M76.6,26.3
		c-1.9-1-4-1.5-6.3-1.5l-3.7,6.7c1.5,2.1,2.6,4.5,3.4,7.1l7.6,1.3c1.2-1.2,2.5-2.9,3.2-5c-0.4-2.1-1.2-4-2.2-5.8
		C78,28.1,77.3,27.2,76.6,26.3L76.6,26.3z M78.2,47.6c0-2.4-0.2-4.5-0.8-6.5l-7.7-1.6c-1.9,2.2-3.8,3.9-5.6,5.2l1.5,8.3
		c1.7,0.6,3.6,0.9,5.6,1c1.4-0.7,2.8-1.7,3.9-2.8C76.3,50.2,77.3,48.9,78.2,47.6L78.2,47.6z M64.1,53.2l-0.7-8.4
		c-2.1-0.8-4.4-2-6.8-3.7l-6.9,3.8c0,1.7,0.3,3.6,0.7,5.6c1.2,1.2,2.6,2.3,4.1,3.1c1.5,0.9,3.2,1.5,5,1.9
		C61.2,54.9,62.8,54.2,64.1,53.2L64.1,53.2z M45.5,40.6c1.1,1.3,2.3,2.2,3.4,2.9l7.3-3c0.1-2.7,0.6-5.3,1.5-7.8l-5.3-5.5
		c-1.7,0.4-3.2,1.1-4.5,2c-0.6,1-1.1,2-1.5,3.1C45.5,34.9,45.2,37.7,45.5,40.6L45.5,40.6L45.5,40.6z"/>
	<path class="st1" d="M71.8,55c-0.1,0.4-0.3,0.8-0.5,1.2c-0.4,0.7-0.9,1.3-1.5,1.8c1.4-0.3,2.6-1.3,3.3-2.6c2.4-0.9,4.3-3.5,5.2-5.8
		c-0.7,0.9-1.4,1.7-2.2,2.5C74.7,53.3,73.3,54.2,71.8,55L71.8,55z"/>
	<path class="st3" d="M81.5,37.6c0.4,0.2,1,0.8,1.4,1.3c-0.4-1.2-0.9-2.1-1.6-2.7c-0.7,2-1.7,3.2-2.9,4.6c0.8,2.3,0.8,4.3,0.7,6.2
		c0.8-1.6,0.9-4.4,0.3-6C80.3,39.9,81.1,38.8,81.5,37.6L81.5,37.6z"/>
	<path class="st3" d="M83.8,39.4c-0.1-7.3-2.9-12.8-7.4-16.6c0.5,0.9,0.7,2,0.6,3.1c0.8,0.9,1.5,1.9,2.2,2.9c1.1,1.8,1.8,3.8,2.3,6
		C82.9,35.8,83.5,37.3,83.8,39.4C83.8,39.3,83.8,39.3,83.8,39.4L83.8,39.4z"/>
	<path class="st3" d="M56.3,21c-1.4-0.5-3.3-0.5-4.7-0.1c5.3-3.3,11.6-4,17.4-2.2c-1.5,0-2.8,0.3-3.9,1.1c-1.4-0.1-2.8-0.1-4.3,0.1
		C59.1,20,57.7,20.4,56.3,21L56.3,21z"/>
	<path class="st3" d="M53.5,22c-0.4-0.2-1.4-0.3-2-0.3c1.3-0.3,2.3-0.4,3.1-0.1c-1.3,1.6-1.9,2.8-2.5,4.6c-2.3,0.6-4,1.4-5.5,2.5
		c0.9-1.6,3.1-2.8,4.8-3.2C51.9,24.1,52.7,22.9,53.5,22L53.5,22z"/>
	<path class="st1" d="M46.1,30c-1.6,2-3.2,5.4-2.8,8.8c-0.8,1.4-1,3.4-0.2,5.9c-0.2-2.1-0.1-3.8,1.2-5.2c-0.2-2.7,0.2-5.3,1.1-7.6
		C45.5,31.3,45.8,30.6,46.1,30L46.1,30z"/>
	<path class="st1" d="M49,51c-0.7,0.1-1.5,0.2-2.4,0.1c0.7,0.4,1.3,0.7,2.2,0.8c1.6,2.6,5.9,5.2,10.4,5.9c0.5,0.5,1.1,0.9,1.7,1.2
		c-0.6-0.7-0.9-1.3-1.2-2c-2.1-0.4-4-1.1-5.8-2.1C52,53.8,50.3,52.5,49,51L49,51z"/>
	<path class="st1" d="M66.2,59.7c-12.3,1.6-23.5-7-25.1-19.3c-0.5-4,0-7.9,1.5-11.3c-1.8,3.8-2.6,8.1-2,12.6
		c0.3,1.9,0.7,3.8,1.4,5.5c3.7,9.2,13.3,15.2,23.7,13.8c4-0.5,7.5-2,10.5-4.3c3.3-2.4,5.8-5.7,7.3-9.5
		C80.3,53.8,73.9,58.7,66.2,59.7L66.2,59.7z"/>
</g>
<path class="st1" d="M64.4,38.9c0,0-0.1-0.1-0.1-0.1c-0.2-0.2-0.4-0.2-0.6-0.2c0,0,0,0,0,0l0.6,1.4c0,0,0.1-0.1,0.1-0.1
	c0.1-0.1,0.2-0.3,0.2-0.5C64.6,39.2,64.5,39,64.4,38.9L64.4,38.9z M63.2,40.2c0.2,0.1,0.3,0.1,0.5,0.1L63,38.6
	c-0.4,0-0.8-0.1-1.2-0.1c-0.3-0.1-0.5-0.1-0.7-0.2c-0.2-0.1-0.3-0.3-0.4-0.5c-0.2-0.3-0.2-0.7-0.1-1c0.1-0.3,0.2-0.7,0.4-1
	c0.2-0.2,0.3-0.4,0.6-0.5l-0.2-0.6c0-0.1,0-0.2,0-0.2c0-0.1,0.1-0.1,0.2-0.2c0.1,0,0.2,0,0.2,0c0.1,0,0.1,0.1,0.2,0.2l0.2,0.6
	c0.4-0.1,0.9-0.1,1.3,0c0.4,0.1,0.7,0.4,0.9,0.9c0.1,0.1,0,0.3,0,0.4c-0.1,0.1-0.2,0.2-0.3,0.3c-0.1,0.1-0.3,0.1-0.4,0
	c-0.1,0-0.2-0.1-0.3-0.2c0-0.1-0.1-0.2-0.2-0.3c-0.1-0.1-0.2-0.1-0.3-0.2c-0.1,0-0.2,0-0.2,0c-0.1,0-0.1,0-0.2,0l0.7,1.7
	c0.1,0,0.2,0,0.3,0c0.5,0,1.1,0,1.6,0.4c0.2,0.1,0.3,0.3,0.4,0.5c0.2,0.3,0.2,0.7,0.1,1c-0.1,0.3-0.2,0.7-0.4,1
	c-0.2,0.2-0.3,0.4-0.6,0.5l0.2,0.6c0,0.1,0,0.2,0,0.2c0,0.1-0.1,0.1-0.2,0.2c-0.1,0-0.2,0-0.2,0c-0.1,0-0.1-0.1-0.2-0.2L64,41.2
	c-0.4,0.1-0.9,0.1-1.3,0c-0.4-0.1-0.7-0.4-0.9-0.9c-0.1-0.1,0-0.3,0-0.4c0.1-0.1,0.2-0.2,0.3-0.3c0.1-0.1,0.3-0.1,0.4,0
	c0.1,0,0.2,0.1,0.3,0.2C62.9,40,63,40.1,63.2,40.2L63.2,40.2z M62.2,37.5c0.1,0,0.2,0,0.4,0.1L62,36.2c0,0-0.1,0.1-0.1,0.1
	c-0.1,0.1-0.2,0.3-0.2,0.5c0,0.2,0,0.3,0.1,0.5c0,0,0.1,0.1,0.1,0.1C61.9,37.4,62.1,37.5,62.2,37.5z"/>
<path class="st1" d="M72.9,21.5c0,0-0.1,0-0.1,0c-0.2,0-0.2,0.1-0.3,0.2c0,0,0,0,0,0l0.8,0.3c0,0,0-0.1,0-0.1c0-0.1-0.1-0.2-0.1-0.3
	C73.1,21.6,73,21.5,72.9,21.5L72.9,21.5z M72.9,22.6c0.1,0,0.2-0.1,0.2-0.2l-1-0.4c-0.2,0.1-0.4,0.3-0.5,0.4
	c-0.2,0.1-0.3,0.2-0.4,0.2c-0.1,0-0.2,0-0.3,0c-0.2-0.1-0.4-0.2-0.5-0.4c-0.1-0.2-0.2-0.4-0.2-0.6c0-0.2,0-0.3,0-0.5L69.9,21
	c0,0-0.1-0.1-0.1-0.1c0,0,0-0.1,0-0.1c0,0,0-0.1,0.1-0.1c0,0,0.1,0,0.1,0l0.3,0.1c0.1-0.2,0.3-0.4,0.6-0.5c0.2-0.1,0.5-0.1,0.7,0
	c0.1,0,0.1,0.1,0.2,0.2c0,0.1,0,0.2,0,0.2c0,0.1-0.1,0.1-0.1,0.2c-0.1,0-0.1,0-0.2,0c-0.1,0-0.1,0-0.2,0c-0.1,0-0.1,0-0.2,0.1
	c0,0-0.1,0-0.1,0.1c0,0,0,0-0.1,0.1l1,0.4c0,0,0.1-0.1,0.1-0.1c0.2-0.2,0.5-0.5,0.8-0.5c0.1,0,0.2,0,0.3,0c0.2,0.1,0.4,0.2,0.5,0.4
	c0.1,0.2,0.2,0.4,0.2,0.6c0,0.2,0,0.3,0,0.5l0.3,0.1c0,0,0.1,0.1,0.1,0.1c0,0,0,0.1,0,0.1s0,0.1-0.1,0.1c0,0-0.1,0-0.1,0l-0.3-0.1
	c-0.1,0.2-0.3,0.4-0.6,0.5c-0.2,0.1-0.5,0.1-0.7,0c-0.1,0-0.1-0.1-0.2-0.2c0-0.1,0-0.2,0-0.2c0-0.1,0.1-0.1,0.1-0.2
	c0.1,0,0.1,0,0.2,0C72.7,22.6,72.8,22.6,72.9,22.6L72.9,22.6z M71.4,21.9c0.1,0,0.1-0.1,0.2-0.1l-0.8-0.4c0,0,0,0.1,0,0.1
	c0,0.1,0.1,0.2,0.1,0.3c0.1,0.1,0.1,0.1,0.2,0.2c0,0,0.1,0,0.1,0C71.3,21.9,71.3,21.9,71.4,21.9z"/>
<path class="st1" d="M66.1,55.8c0,0-0.1,0-0.1,0c-0.1,0.1-0.2,0.2-0.2,0.3c0,0,0,0,0,0l0.9-0.1c0,0,0-0.1-0.1-0.1
	c-0.1-0.1-0.1-0.2-0.2-0.2C66.2,55.8,66.1,55.8,66.1,55.8L66.1,55.8z M66.5,56.8c0.1-0.1,0.1-0.2,0.1-0.3l-1.1,0.1
	c-0.1,0.2-0.2,0.4-0.3,0.6c-0.1,0.2-0.2,0.3-0.3,0.3c-0.1,0.1-0.2,0.1-0.3,0.1c-0.2,0-0.4,0-0.6-0.1c-0.2-0.1-0.3-0.2-0.5-0.4
	c-0.1-0.1-0.2-0.3-0.2-0.4l-0.4,0c0,0-0.1,0-0.1,0c0,0-0.1-0.1-0.1-0.1c0,0,0-0.1,0-0.1c0,0,0.1-0.1,0.1-0.1l0.4,0
	c0-0.3,0.1-0.5,0.2-0.7c0.2-0.2,0.4-0.3,0.6-0.3c0.1,0,0.2,0,0.2,0.1c0.1,0.1,0.1,0.1,0.1,0.2c0,0.1,0,0.2,0,0.2
	c0,0.1-0.1,0.1-0.2,0.1c-0.1,0-0.1,0-0.2,0.1c-0.1,0-0.1,0.1-0.1,0.1c0,0,0,0.1-0.1,0.1c0,0,0,0.1,0,0.1l1.1-0.1c0,0,0-0.1,0-0.1
	c0.1-0.3,0.2-0.6,0.5-0.8c0.1-0.1,0.2-0.1,0.3-0.1c0.2,0,0.4,0,0.6,0.1c0.2,0.1,0.3,0.2,0.5,0.4c0.1,0.1,0.2,0.3,0.2,0.4l0.4,0
	c0,0,0.1,0,0.1,0c0,0,0.1,0.1,0.1,0.1c0,0,0,0.1,0,0.1c0,0-0.1,0.1-0.1,0.1l-0.4,0c0,0.3-0.1,0.5-0.2,0.7c-0.2,0.2-0.4,0.3-0.6,0.3
	c-0.1,0-0.2,0-0.2-0.1c-0.1-0.1-0.1-0.1-0.1-0.2c0-0.1,0-0.2,0-0.2c0-0.1,0.1-0.1,0.2-0.1C66.4,56.9,66.5,56.8,66.5,56.8L66.5,56.8z
	 M64.9,56.8c0-0.1,0.1-0.1,0.1-0.2l-0.9,0.1c0,0,0,0.1,0.1,0.1c0.1,0.1,0.1,0.2,0.2,0.2c0.1,0,0.2,0.1,0.3,0c0,0,0.1,0,0.1,0
	C64.8,56.9,64.8,56.9,64.9,56.8z"/>
<path class="st1" d="M46.6,46.4C46.6,46.4,46.6,46.3,46.6,46.4c-0.1-0.2-0.2-0.2-0.4-0.2c0,0,0,0,0,0l0.2,0.7c0,0,0.1,0,0.1-0.1
	c0.1-0.1,0.1-0.1,0.1-0.2C46.6,46.6,46.6,46.5,46.6,46.4L46.6,46.4z M45.9,47C46,47,46,47,46.1,47l-0.2-0.9c-0.2,0-0.4-0.1-0.6-0.1
	c-0.1,0-0.3-0.1-0.3-0.2c-0.1-0.1-0.1-0.2-0.2-0.2c-0.1-0.2-0.1-0.3,0-0.5c0-0.2,0.1-0.3,0.3-0.5c0.1-0.1,0.2-0.2,0.3-0.2l-0.1-0.3
	c0,0,0-0.1,0-0.1c0,0,0.1-0.1,0.1-0.1c0,0,0.1,0,0.1,0c0,0,0.1,0,0.1,0.1l0.1,0.3c0.2,0,0.5,0,0.7,0.1c0.2,0.1,0.3,0.3,0.4,0.5
	c0,0.1,0,0.1,0,0.2c0,0.1-0.1,0.1-0.2,0.1c-0.1,0-0.1,0-0.2,0c-0.1,0-0.1-0.1-0.1-0.1c0-0.1,0-0.1-0.1-0.1c0,0-0.1-0.1-0.1-0.1
	c0,0-0.1,0-0.1,0c0,0-0.1,0-0.1,0l0.2,0.9c0,0,0.1,0,0.1,0c0.3,0,0.5,0.1,0.7,0.3c0.1,0.1,0.1,0.2,0.2,0.2c0.1,0.2,0.1,0.3,0,0.5
	c0,0.2-0.1,0.3-0.3,0.5c-0.1,0.1-0.2,0.2-0.3,0.2l0.1,0.3c0,0,0,0.1,0,0.1c0,0-0.1,0.1-0.1,0.1c0,0-0.1,0-0.1,0c0,0-0.1,0-0.1-0.1
	l-0.1-0.3c-0.2,0-0.5,0-0.7-0.1c-0.2-0.1-0.3-0.3-0.4-0.5c0-0.1,0-0.1,0-0.2c0-0.1,0.1-0.1,0.2-0.1c0.1,0,0.1,0,0.2,0
	c0.1,0,0.1,0.1,0.1,0.1C45.7,46.8,45.8,46.9,45.9,47L45.9,47z M45.6,45.6c0.1,0,0.1,0,0.2,0l-0.2-0.7c0,0-0.1,0-0.1,0.1
	c-0.1,0.1-0.1,0.1-0.1,0.2c0,0.1,0,0.2,0,0.2c0,0,0,0.1,0.1,0.1C45.5,45.5,45.5,45.5,45.6,45.6z"/>
<path class="st1" d="M49.3,24.6C49.3,24.5,49.3,24.5,49.3,24.6c0.1-0.2,0.1-0.3,0-0.4c0,0,0,0,0,0l-0.6,0.4c0,0,0.1,0,0.1,0
	c0.1,0,0.2,0.1,0.3,0C49.2,24.6,49.2,24.6,49.3,24.6L49.3,24.6z M48.5,24.1c0,0.1,0,0.2,0,0.3l0.7-0.5c0-0.2-0.1-0.4-0.1-0.6
	c0-0.2,0-0.3,0-0.4c0-0.1,0.1-0.2,0.2-0.2c0.1-0.1,0.3-0.2,0.5-0.2c0.2,0,0.4,0,0.5,0.1c0.1,0.1,0.2,0.1,0.3,0.2l0.3-0.2
	c0,0,0.1,0,0.1,0c0,0,0.1,0,0.1,0.1c0,0,0,0.1,0,0.1c0,0,0,0.1-0.1,0.1L50.9,23c0.1,0.2,0.2,0.4,0.2,0.6c0,0.2-0.1,0.4-0.3,0.5
	c-0.1,0-0.1,0.1-0.2,0c-0.1,0-0.1,0-0.2-0.1c0-0.1-0.1-0.1-0.1-0.2c0-0.1,0-0.1,0.1-0.2c0,0,0.1-0.1,0.1-0.1c0,0,0-0.1,0-0.2
	c0,0,0-0.1,0-0.1c0,0,0-0.1,0-0.1l-0.7,0.5c0,0,0,0.1,0,0.1c0.1,0.3,0.1,0.5,0,0.8c0,0.1-0.1,0.2-0.2,0.2c-0.1,0.1-0.3,0.2-0.5,0.2
	c-0.2,0-0.4,0-0.5-0.1c-0.1-0.1-0.2-0.1-0.3-0.2L48.1,25c0,0-0.1,0-0.1,0c0,0-0.1,0-0.1-0.1c0,0,0-0.1,0-0.1c0,0,0-0.1,0.1-0.1
	l0.3-0.2C48,24.4,48,24.2,48,24c0-0.2,0.1-0.4,0.3-0.5c0.1,0,0.1-0.1,0.2,0c0.1,0,0.1,0,0.2,0.1c0,0.1,0.1,0.1,0.1,0.2
	c0,0.1,0,0.1-0.1,0.2C48.6,23.9,48.5,24,48.5,24.1L48.5,24.1z M49.7,23.3c0,0.1,0,0.1,0,0.2l0.6-0.5c0,0-0.1,0-0.1,0
	c-0.1,0-0.2-0.1-0.3,0c-0.1,0-0.2,0-0.2,0.1c0,0,0,0-0.1,0.1C49.7,23.2,49.7,23.2,49.7,23.3z"/>
<path class="st1" d="M81.8,42.7C81.8,42.7,81.8,42.6,81.8,42.7c-0.1-0.2-0.1-0.2-0.2-0.3c0,0,0,0,0,0L81.5,43c0,0,0.1,0,0.1,0
	c0.1,0,0.1-0.1,0.2-0.1C81.8,42.8,81.8,42.8,81.8,42.7L81.8,42.7z M81.1,42.9c0,0.1,0.1,0.1,0.2,0.1l0.1-0.7
	c-0.1-0.1-0.3-0.2-0.4-0.3c-0.1-0.1-0.2-0.2-0.2-0.2c0-0.1,0-0.2,0-0.2c0-0.1,0.1-0.3,0.2-0.4c0.1-0.1,0.2-0.2,0.4-0.2
	c0.1,0,0.2-0.1,0.3-0.1l0-0.3c0,0,0-0.1,0.1-0.1c0,0,0.1,0,0.1,0c0,0,0.1,0,0.1,0c0,0,0,0.1,0,0.1l0,0.3c0.2,0,0.4,0.1,0.5,0.3
	c0.1,0.1,0.2,0.3,0.1,0.5c0,0.1,0,0.1-0.1,0.1c0,0-0.1,0-0.2,0c-0.1,0-0.1,0-0.1-0.1c0,0-0.1-0.1,0-0.1c0,0,0-0.1,0-0.1
	c0,0,0-0.1-0.1-0.1c0,0,0,0-0.1-0.1c0,0,0,0-0.1,0L81.7,42c0,0,0.1,0,0.1,0.1c0.2,0.1,0.4,0.2,0.5,0.5c0,0.1,0,0.2,0,0.2
	c0,0.1-0.1,0.3-0.2,0.4c-0.1,0.1-0.2,0.2-0.4,0.2c-0.1,0-0.2,0.1-0.3,0.1l0,0.3c0,0,0,0.1-0.1,0.1c0,0-0.1,0-0.1,0c0,0-0.1,0-0.1,0
	c0,0,0-0.1,0-0.1l0-0.3c-0.2,0-0.4-0.1-0.5-0.3c-0.1-0.1-0.2-0.3-0.1-0.5c0-0.1,0-0.1,0.1-0.1c0,0,0.1,0,0.2,0c0.1,0,0.1,0,0.1,0.1
	c0,0,0.1,0.1,0,0.1C81,42.7,81,42.8,81.1,42.9L81.1,42.9z M81.3,41.7c0,0,0.1,0.1,0.1,0.1l0.1-0.6c0,0-0.1,0-0.1,0
	c-0.1,0-0.1,0.1-0.2,0.1c0,0.1-0.1,0.1-0.1,0.2c0,0,0,0.1,0,0.1C81.2,41.6,81.3,41.7,81.3,41.7z"/>
</svg>
