<?xml version="1.0" encoding="utf-8"?>
<!-- Generator: Adobe Illustrator 22.1.0, SVG Export Plug-In . SVG Version: 6.00 Build 0)  -->
<svg version="1.1" id="Layer_1" xmlns="http://www.w3.org/2000/svg" xmlns:xlink="http://www.w3.org/1999/xlink" x="0px" y="0px"
	 width="180px" height="70px" viewBox="0 0 180 70" style="enable-background:new 0 0 180 70;" xml:space="preserve">
<style type="text/css">
	.st0{fill:none;}
	.st1{fill:#7C9199;}
</style>
<rect class="st0" width="180" height="70"/>
<g>
	<path class="st1" d="M29.9,38.4c-0.6-0.6-1.2-1.2-1.8-1.8c-2.1-2.1-4.3-4.3-6.4-6.4c-0.7-0.7-1.4-1.4-2.1-2.1
		c-0.2-0.2-0.4-0.3-0.7-0.1c-2.1,1.5-4.2,2.9-6.3,4.4C10.7,33.7,8.9,35,7,36.3c-0.2,0.2-0.4,0.1-0.5-0.1c-1.1-2-1.5-4.2-1.1-6.5
		c0.5-2.8,2-5,4.3-6.7c1.4-1.1,3-1.9,4.7-2.3c2.1-0.6,4.2-0.7,6.4-0.4c2.1,0.3,4.1,0.9,5.9,2c2,1.2,3.5,2.7,4.6,4.7
		c0.5,0.9,0.9,1.8,1,2.9c0.1,1.1,0.2,2.1,0.1,3.2c-0.2,1.7-0.9,3.3-2,4.7C30.2,37.9,30.1,38.1,29.9,38.4z"/>
	<path class="st1" d="M19.3,31.6c0.1,0.1,0.3,0.2,0.4,0.3c2.4,2.4,4.7,4.7,7.1,7.1c1,1,1.9,1.9,2.9,2.9c0.2,0.2,0.4,0.2,0.6,0.1
		c1.8-1.3,3.6-2.5,5.4-3.8c2.2-1.5,4.4-3.1,6.6-4.6c0.2-0.1,0.3-0.1,0.4,0.1c0.5,0.9,0.9,1.8,1.1,2.8c0.1,0.6,0.2,1.2,0.2,1.8
		c0,1.3-0.1,2.5-0.6,3.7c-0.7,1.9-1.9,3.4-3.5,4.7c-1.2,1-2.5,1.7-3.9,2.2c-2.1,0.8-4.2,1.1-6.4,0.9c-1.5-0.1-2.9-0.4-4.3-0.9
		c-1.4-0.5-2.8-1.2-4-2.1c-1.9-1.5-3.4-3.3-4.1-5.7c-0.5-1.7-0.6-3.4-0.2-5.1C17.3,34.5,18.1,33,19.3,31.6z"/>
	<path class="st1" d="M174,24.6c-0.1,0.3-0.2,0.7-0.3,1c-0.1,0.1-0.2,0.3-0.4,0.3c-0.1,0-0.3-0.2-0.4-0.3c-0.2-0.4-0.3-0.8-0.5-1.1
		c0,0.5,0,0.9,0,1.4c-0.2,0-0.3,0-0.5,0c0-0.8,0-1.5,0-2.3c0-0.1,0.3-0.2,0.5-0.2c0.1,0,0.3,0.1,0.4,0.2c0.2,0.4,0.3,0.8,0.5,1.2
		c0.2-0.5,0.3-0.9,0.5-1.4c0.2,0,0.5,0,0.8,0c0,0.8,0.1,1.6,0.1,2.3c-0.5,0.2-0.6,0-0.6-0.4c0-0.3,0-0.6,0-0.8
		C174.1,24.6,174.1,24.6,174,24.6z"/>
	<path class="st1" d="M170.5,23.9c-0.2,0-0.4,0-0.6-0.1c0-0.1,0-0.3,0-0.4c0.6,0,1.2,0,1.8,0c0,0.1,0,0.3,0,0.4
		c-0.2,0-0.4,0-0.6,0.1c0,0.6,0,1.2,0,1.9c-0.2,0-0.4,0-0.6,0C170.5,25.2,170.5,24.6,170.5,23.9z"/>
</g>
<g>
	<path class="st1" d="M55.3,41.7c0,2,0,3.9,0,5.9c-1.3,0-2.6,0-3.9,0c0-8.2,0-16.5,0-24.7c1.1,0,2.2,0,3.4,0
		c0.1,0.7,0.2,1.4,0.3,2.1c0.1,0,0.2,0,0.3-0.1c2.1-2.8,6.9-2.9,9.6-1.7c1.8,0.9,2.9,2.3,3.4,4.2c0.7,2.5,0.8,5.1,0.2,7.7
		c-0.9,4.1-4.1,6.6-8.3,6.7c-1.3,0-2.6-0.1-3.9-0.1C56,41.7,55.7,41.7,55.3,41.7z M55.3,38.8c1.7,0.1,3.3,0.2,4.9,0.2
		c2.4-0.1,3.8-1.3,4.4-3.7c0.5-2.2,0.5-4.4,0-6.6c-0.4-1.6-1.4-2.8-3.1-3c-1.1-0.1-2.2-0.1-3.2,0.1c-1.6,0.4-2.8,1.5-2.9,3.2
		C55.2,32.2,55.3,35.4,55.3,38.8z"/>
	<path class="st1" d="M81.6,30.4c-0.1-1-0.1-2-0.3-2.9c-0.3-1.2-1.3-1.9-2.9-1.9c-2,0-4,0.2-6,0.4c-0.3,0-0.5,0.1-0.9,0.1
		c-0.1-0.9-0.2-1.9-0.3-2.9c1.1-0.2,2.2-0.3,3.3-0.5c2.3-0.2,4.6-0.4,6.9,0.2c2.5,0.7,3.9,2.2,4.1,4.8c0,0.3,0,0.7,0,1
		c0,4.2,0,8.4,0,12.7c-1,0-2,0-2.9,0c-0.1,0-0.4-0.3-0.4-0.5c-0.1-0.6-0.2-1.2-0.3-1.9c-0.6,0.4-1,0.7-1.4,0.9
		c-1.7,1.1-3.6,1.7-5.6,1.6c-2.9-0.1-4.7-1.8-4.8-4.7c-0.1-3.5,1.8-5.6,5.7-6.1C77.6,30.7,79.5,30.6,81.6,30.4z M81.5,32.7
		c-0.7,0.1-1.2,0.1-1.8,0.2c-1.4,0.2-2.9,0.4-4.2,0.8c-1.3,0.4-1.8,1.7-1.5,3.4c0.2,1.1,1.1,1.7,2.4,1.8c1.8,0,3.3-0.7,4.8-1.7
		c0.1-0.1,0.3-0.3,0.3-0.5C81.5,35.4,81.5,34.1,81.5,32.7z"/>
	<path class="st1" d="M165.6,30.4c-0.1-1-0.1-2.1-0.3-3c-0.4-1.4-1.6-1.8-2.9-1.8c-2,0-4,0.2-6,0.4c-0.3,0-0.6,0.1-1,0.1
		c-0.1-0.9-0.2-1.8-0.3-2.9c1.1-0.2,2.2-0.3,3.2-0.4c2.1-0.2,4.2-0.3,6.4,0.1c3,0.6,4.7,2.5,4.7,5.6c0,4.1,0,8.3,0,12.4
		c0,0.2,0,0.4,0,0.7c-1,0-1.9,0-2.8,0c-0.2,0-0.4-0.3-0.4-0.5c-0.1-0.6-0.2-1.1-0.3-1.8c-0.4,0.3-0.7,0.5-1,0.6
		c-1.8,1.2-3.6,1.9-5.8,1.9c-3.7,0-5.3-2.4-5-5.7c0.2-2.9,1.7-4.4,4.8-5c2-0.4,4-0.4,6-0.6C165,30.4,165.2,30.4,165.6,30.4z
		 M165.5,32.7c-0.6,0.1-1.2,0.1-1.7,0.1c-1.5,0.2-3,0.4-4.4,0.8c-1.2,0.4-1.7,1.8-1.4,3.3c0.2,1.1,1.1,1.7,2.4,1.8
		c1.8,0,3.3-0.8,4.8-1.7c0.1-0.1,0.2-0.3,0.2-0.4C165.5,35.4,165.5,34.1,165.5,32.7z"/>
	<path class="st1" d="M133.3,39.1c-0.4,0.3-0.7,0.5-1,0.7c-2.2,1.5-4.6,2.3-7.3,1.7c-1.7-0.4-2.9-1.4-3.3-3.2c-0.2-1-0.2-2-0.1-3
		c0.3-1.9,1.4-3.3,3.3-3.8c1.8-0.5,3.6-0.7,5.4-0.9c0.8-0.1,1.7-0.1,2.8-0.2c-0.1-1.1-0.1-2.1-0.3-3.1c-0.4-1.4-1.6-1.8-2.8-1.7
		c-2,0-3.9,0.2-5.9,0.4c-0.3,0-0.6,0.1-1,0.2c-0.1-1-0.2-1.9-0.3-2.9c2.7-0.5,5.3-0.8,7.9-0.6c0.9,0.1,1.9,0.2,2.7,0.5
		c2.2,0.7,3.5,2.3,3.5,4.6c0.1,3.4,0.1,6.8,0.1,10.3c0,1.1,0,2.3,0,3.4c-1.1,0-2.1,0-3.2,0C133.6,40.8,133.5,40,133.3,39.1z
		 M133,32.7c-0.7,0.1-1.2,0.1-1.8,0.2c-1.4,0.2-2.9,0.4-4.2,0.8c-1.3,0.4-1.8,1.8-1.5,3.3c0.2,1.2,1.1,1.8,2.5,1.9
		c1.8,0,3.3-0.7,4.7-1.6c0.1-0.1,0.3-0.3,0.3-0.5C133,35.4,133,34.1,133,32.7z"/>
	<path class="st1" d="M108.1,30.6c0.9,0,1.7,0,2.5,0c0.2,0,0.5-0.2,0.7-0.5c1.6-2.1,3.2-4.3,4.8-6.5c0.4-0.6,0.9-0.9,1.7-0.9
		c1.1,0.1,2.1,0,3.3,0c-2.4,3.1-4.7,6-7,9c2.5,3.2,5,6.4,7.6,9.7c-1.5,0-2.8,0-4.2,0c-0.2,0-0.4-0.3-0.6-0.5c-1.8-2.3-3.6-4.6-5.4-7
		c-0.5-0.6-0.9-0.9-1.7-0.8c-1.7,0.1-1.7,0-1.7,1.7c0,1.9,0,3.8,0,5.7c0,0.3,0,0.5,0,0.9c-1.3,0-2.6,0-3.9,0c0-6.2,0-12.4,0-18.6
		c1.3,0,2.5,0,3.9,0C108.1,25.4,108.1,28,108.1,30.6z"/>
	<path class="st1" d="M90.7,47.6c0.8-2,1.6-3.8,2.3-5.7c0.1-0.3,0.1-0.8,0-1.2c-2.3-5.6-4.6-11.1-7-16.7c-0.1-0.3-0.3-0.7-0.4-1.2
		c1.5,0,2.8,0,4.1,0c0.1,0,0.3,0.3,0.4,0.5c1.7,4.5,3.4,9,5,13.5c0.1,0.2,0.1,0.3,0.3,0.7c0.1-0.4,0.2-0.7,0.3-0.9
		c1.7-4.5,3.4-8.9,5.2-13.4c0.1-0.2,0.4-0.4,0.6-0.4c0.3-0.1,0.7,0,1.1,0c0,0.6,0,1.1,0,1.6c0.3,3.3-0.4,6.4-1.9,9.4
		c-2,4.3-3.7,8.7-5.6,13.1c-0.2,0.5-0.5,0.7-1,0.7C93,47.6,92,47.6,90.7,47.6z"/>
	<path class="st1" d="M139,38.2c2,0.3,4,0.6,5.9,0.7c0.9,0.1,1.8-0.1,2.6-0.3c1.1-0.3,1.7-1.1,1.8-2.2c0.1-1.1-0.4-1.9-1.5-2.3
		c-1.4-0.5-2.9-0.7-4.4-1.1c-4.4-0.9-4.9-4.5-3.9-7.2c0.8-2.2,2.7-3.1,4.8-3.5c2.7-0.5,5.3,0,8.1,0.5c0,1-0.1,2-0.1,3.1
		c-1.3-0.2-2.6-0.5-3.9-0.6c-1.1-0.1-2.3-0.1-3.5,0.1s-1.9,1-2,2.1s0.5,1.9,1.7,2.3c1,0.3,2.1,0.5,3.2,0.8c0.5,0.1,1,0.2,1.5,0.4
		c2.6,0.8,3.8,2.4,3.9,5c0,2.7-1.3,4.4-3.8,5.3c-2,0.7-4.1,0.5-6.1,0.4c-1.2-0.1-2.3-0.4-3.5-0.5c-0.5-0.1-0.7-0.2-0.7-0.8
		C139.1,39.7,139,39,139,38.2z"/>
</g>
</svg>
