<?xml version="1.0" encoding="utf-8"?>
<!-- Generator: Adobe Illustrator 22.1.0, SVG Export Plug-In . SVG Version: 6.00 Build 0)  -->
<svg version="1.1" id="Layer_1" xmlns="http://www.w3.org/2000/svg" xmlns:xlink="http://www.w3.org/1999/xlink" x="0px" y="0px"
	 width="564.5px" height="72px" viewBox="0 0 564.5 72" style="enable-background:new 0 0 564.5 72;" xml:space="preserve">
<style type="text/css">
	.st0{fill:#47BFB6;}
	.st1{fill:#F2F2F2;}
</style>
<g>
	<path class="st0" d="M41.3,35.8h2.5c0.7,0,1.3-0.6,1.3-1.3V32c0-0.7-0.6-1.3-1.3-1.3h-2.5c-0.7,0-1.3,0.6-1.3,1.3v2.5
		C40.1,35.2,40.6,35.8,41.3,35.8z M41.2,31.9H44v2.8h-2.8V31.9z"/>
	<path class="st0" d="M95.5,32.5H93c-0.7,0-1.3,0.6-1.3,1.3v0.4c-0.1,0-0.1,0-0.2,0h-9.8v-7.5c0-0.5,0-1,0-1.4h3.6
		c0.3,0,0.6-0.2,0.6-0.6s-0.2-0.6-0.6-0.6h-3.7c-0.2-2.3-0.5-4.4-1.1-6.3c-0.7-2.5-1.9-4.6-3.5-6.4l3-3l3.4,3.4L83,12.3
		c-0.5,0.5-0.5,1.3,0,1.8l1.9,1.9c0.5,0.5,1.3,0.5,1.8,0l1.9-1.9c0.5-0.5,0.5-1.3,0-1.8l-1.9-1.9c-0.5-0.5-1.3-0.5-1.8,0l-0.5,0.5
		l-3.8-3.8c-0.2-0.2-0.6-0.2-0.9,0l-3.4,3.4c-0.9-0.8-1.9-1.6-3-2.3l3-3l0.6,0.6c0.5,0.5,1.3,0.5,1.8,0l1.8-1.9
		c0.5-0.5,0.5-1.3,0-1.8l-1.9-1.9c-0.5-0.5-1.3-0.5-1.8,0L75,2.1c-0.5,0.5-0.5,1.3,0,1.8l0.4,0.4l-3.3,3.3C71.4,7.3,70.8,7,70,6.7
		c-2.8-1-6.2-1.5-10.2-1.5H37.3V2.5c0-0.4-0.3-0.6-0.6-0.6h-5.2c-0.3,0-0.6,0.2-0.6,0.6s0.2,0.6,0.6,0.6h4.7v2.2H36
		c-4,0-7.4,0.5-10.3,1.5c-2.8,1-5.1,2.4-6.8,4.3c-1.7,1.9-3,4.1-3.8,6.7c-0.6,2.1-1,4.4-1.1,6.9h-3.4v-4.6c0-0.2-0.1-0.3-0.2-0.4
		h1.1c0.7,0,1.3-0.6,1.3-1.3v-2.5c0-0.7-0.6-1.3-1.3-1.3H9c-0.7,0-1.3,0.6-1.3,1.3v2.6c0,0.6,0.5,1.2,1.2,1.2h0.7
		c-0.1,0.1-0.2,0.2-0.2,0.4v5.1c0,0.3,0.3,0.6,0.6,0.6h3.9c0,0.3,0,0.6,0,0.8v0.3H5.2c-0.1,0-0.1,0-0.1,0v-1c0-0.7-0.6-1.3-1.3-1.3
		H1.3C0.6,24.7,0,25.2,0,25.9v2.5c0,0.7,0.6,1.3,1.3,1.3h2.5c0.7,0,1.3-0.6,1.3-1.3V28h0.1H14v1.1h-3c-0.3,0-0.6,0.2-0.6,0.6
		s0.2,0.6,0.6,0.6h3v7.5c0,1.7,0.1,3.2,0.3,4.7h-2.5v-0.4c0-0.7-0.6-1.3-1.3-1.3H7.9c-0.7,0-1.3,0.6-1.3,1.3v2.5
		c0,0.7,0.6,1.3,1.3,1.3h2.5c0.7,0,1.3-0.6,1.3-1.3v-1h2.7c0.2,1,0.4,1.9,0.6,2.8H5.2c-0.1,0-0.1,0-0.1,0V46c0-0.7-0.6-1.3-1.3-1.3
		H1.3C0.6,44.7,0,45.3,0,46v2.5c0,0.7,0.6,1.3,1.3,1.3h2.5c0.7,0,1.3-0.6,1.3-1.3v-1h0.1h10.3c0.8,2.3,1.9,4.2,3.5,5.9
		c1.7,1.9,4,3.3,6.8,4.3s6.2,1.5,10.3,1.5H38v-7.3h1.4L46,65.3h2V67h-0.5c-0.6,0-1.1,0.6-1.1,1.3v2.5c0,0.7,0.5,1.3,1.1,1.3h2.2
		c0.6,0,1.1-0.6,1.1-1.3v-2.5c0-0.7-0.5-1.3-1.1-1.3H49v-1.7h7.2v3.3c0,0.3,0.3,0.6,0.6,0.6h5.1c0.2,0,0.3-0.1,0.4-0.2v1.2
		c0,0.6,0.5,1.2,1.2,1.2h2.6c0.7,0,1.3-0.6,1.3-1.3v-2.5c0-0.7-0.6-1.3-1.3-1.3h-2.5c-0.7,0-1.3,0.6-1.3,1.3v0.6
		c-0.1-0.1-0.2-0.2-0.4-0.2h-4.6v-2.8h7.8v-0.8l-3.3-7v-0.5c3.4-0.1,6.4-0.6,8.9-1.4c2.5-0.8,4.6-1.9,6.2-3.5
		c1.7-1.5,2.9-3.4,3.7-5.8c0.7-1.9,1-4.1,1.2-6.6h3.6c0.1,0,0.2,0,0.3-0.1V40c0,0.7,0.6,1.3,1.3,1.3h2.5c0.7,0,1.3-0.6,1.3-1.3v-2.5
		c0-0.7-0.6-1.3-1.3-1.3H87c-0.7,0-1.3,0.6-1.3,1.3v1.1c-0.1-0.1-0.2-0.1-0.3-0.1h-3.6c0-0.3,0-0.5,0-0.8v-2.5h9.8
		c0.1,0,0.1,0,0.2,0v1c0,0.7,0.6,1.3,1.3,1.3h2.5c0.7,0,1.3-0.6,1.3-1.3v-2.5C96.8,33,96.2,32.5,95.5,32.5z M87.5,13.2L85.7,15
		l-1.8-1.8l1.8-1.8L87.5,13.2z M77.8,1.2L79.6,3l-1.8,1.8L76,3L77.8,1.2z M8.9,18.6v-2.8h2.8v2.8H8.9z M3.9,28.6H1.1v-2.8h2.8V28.6z
		 M10.6,44.7H7.8v-2.8h2.8V44.7z M3.9,48.6H1.1v-2.8h2.8V48.6z M49.6,68.1v2.8h-2.5v-2.8H49.6z M63.4,67.5h2.8v2.8h-2.8
		C63.4,70.3,63.4,67.5,63.4,67.5z M66.8,34.5c0,2-0.1,3.8-0.3,5.2c-0.2,1.4-0.6,2.5-1.2,3.3s-1.4,1.4-2.5,1.8
		c-1.1,0.3-2.4,0.5-4,0.5h-5.3v-7.2h4.7c0.1,0,0.2,0,0.3-0.1v0.5c0,0.7,0.6,1.3,1.3,1.3h2.5c0.7,0,1.3-0.6,1.3-1.3v-2.6
		c0-0.7-0.6-1.3-1.3-1.3h-2.5c-0.7,0-1.3,0.6-1.3,1.3V37c-0.1-0.1-0.2-0.1-0.3-0.1H53c-0.3,0-0.6,0.3-0.6,0.6v7.7h-1.1V28.1
		c0.2-0.3-0.1-0.6-0.4-0.6h-19c-0.3,0-0.6,0.3-0.6,0.6s0.3,0.6,0.6,0.5h18.3v16.7H49V33.6c0-0.3-0.3-0.6-0.6-0.6h-2.7
		c-0.3,0-0.6,0.2-0.6,0.6c0,0.3,0.2,0.6,0.6,0.6h2.2v11.1h-1.1v-3.8c0-0.3-0.3-0.6-0.6-0.6h-4.3h-0.1v-1c0-0.7-0.6-1.3-1.3-1.3H38
		c-0.7,0-1.3,0.6-1.3,1.3v2.5c0,0.7,0.6,1.3,1.3,1.3h2.5c0.7,0,1.3-0.6,1.3-1.3v-0.5h0.1h3.8v3.3h-5.8c-1.9,0-3.5-0.1-4.8-0.3
		s-2.4-0.6-3.2-1.3c-0.8-0.6-1.4-1.5-1.8-2.7c-0.4-1.1-0.6-2.7-0.6-4.6v-7.2c0-2,0.1-3.8,0.3-5.1c0.2-1.4,0.6-2.5,1.2-3.3
		s1.4-1.4,2.5-1.8c1.1-0.3,2.4-0.5,4-0.5h10.3v3.9h-4.6c-0.2,0-0.3,0.1-0.4,0.2v-1.1c0-0.7-0.6-1.3-1.3-1.3H39
		c-0.7,0-1.3,0.6-1.3,1.3v2.5c0,0.7,0.6,1.3,1.3,1.3h2.4c0.7,0,1.3-0.6,1.3-1.3v-0.6c0.1,0.1,0.2,0.2,0.4,0.2h5.1
		c0.3,0,0.6-0.3,0.6-0.6v-4.4H56v8.9h-0.4c-0.7,0-1.3,0.6-1.3,1.3v2.5c0,0.7,0.6,1.3,1.3,1.3h2.5c0.7,0,1.3-0.6,1.3-1.3v-2.5
		c0-0.7-0.6-1.3-1.3-1.3h-1v-8.9h1.4c2.9,0,5,0.6,6.2,1.9c1.2,1.2,1.8,3.5,1.8,6.9v7.2H66.8z M59.5,38.6v-2.8h2.8v2.8H59.5z
		 M40.6,39.7v2.8h-2.8v-2.8H40.6z M41.7,21.3v2.8h-2.8v-2.8H41.7z M58.4,28.6v2.8h-2.8v-2.8H58.4z M86.8,37.5h2.8v2.8h-2.8V37.5z
		 M95.7,36.4h-2.8v-2.8h2.8V36.4z"/>
</g>
<g>
	<g>
		<path class="st1" d="M134.1,34h-0.4v18.6h-12V11.8c0-1.2,0.6-1.8,1.6-1.8h33c2.8,0,5.4,0.3,7.3,1c1.9,0.7,3.6,1.6,4.9,3
			c1.2,1.3,2.1,2.8,2.7,4.8c0.6,1.8,0.9,3.9,0.9,6.3v3.4c0,4.8-1.2,8.5-3.6,10.9c-2.4,2.4-6.3,3.6-11.7,3.6h-19.2L134.1,34z
			 M134.4,20.8c-0.4,0-0.7,0.3-0.7,0.7v11.4h21.1c1.9,0,3.3-0.4,4-1.2c0.7-0.7,1.2-2.1,1.2-3.7v-2.2c0-1.9-0.4-3.3-1.2-4
			c-0.7-0.7-2.1-1-4-1h-20.4V20.8z"/>
		<path class="st1" d="M188.2,10.1v30c0,0.4,0.1,0.7,0.3,1c0.1,0.3,0.6,0.3,1,0.3h33.3v11.1h-43.6c-1.2,0-1.9-0.3-2.4-0.9
			c-0.4-0.6-0.7-1.3-0.7-2.4V10.1H188.2z"/>
		<path class="st1" d="M238.5,52.6h-13.9v-0.4l21.3-40.6c0.3-0.6,0.6-0.9,0.7-1c0.3-0.1,0.7-0.3,1.3-0.3h14.7c0.6,0,1.2,0.1,1.5,0.3
			s0.6,0.6,0.9,1l21.1,40.6v0.4h-36.4l-3.4-9.3v-1h11.8c1.2,0,2.4,0,3.3,0s1.6,0,2.4,0c0.7,0,1.3,0,1.8,0.1c0.6,0,1,0.1,1.6,0.1
			l0.1-0.4c-0.3-0.4-0.4-0.9-0.7-1.2c-0.3-0.4-0.6-0.9-0.9-1.5c-0.3-0.6-0.7-1.3-1-2.1c-0.4-0.7-0.9-1.8-1.6-3.1l-6.7-13.5
			c-0.1-0.3-0.4-0.4-0.7-0.4h-0.7c-0.3,0-0.6,0.1-0.7,0.4L238.5,52.6z"/>
		<path class="st1" d="M328.2,10.1v0.4l-20.8,25.6v16.5h-12V35.9l-20.7-25.3v-0.4h13.8l12.4,15.6c0.1,0.1,0.1,0.1,0.1,0.1
			s0.1,0.1,0.4,0.1h0.4c0.3,0,0.4-0.1,0.6-0.3l12.1-15.6H328.2z"/>
		<path class="st1" d="M343.2,10.1v30c0,0.4,0.1,0.7,0.3,1c0.1,0.3,0.6,0.3,1,0.3h33.3v11.1h-43.6c-1.2,0-1.9-0.3-2.4-0.9
			c-0.4-0.6-0.7-1.3-0.7-2.4V10.1H343.2z"/>
		<path class="st1" d="M433.4,35.8c0,2.5-0.3,4.9-0.9,7c-0.6,2.1-1.6,3.9-3,5.2c-1.3,1.5-3.1,2.5-5.4,3.4c-2.2,0.7-4.9,1.2-8.1,1.2
			h-18.9c-3.1,0-5.8-0.4-8.1-1.2c-2.2-0.7-4-1.9-5.4-3.4c-1.3-1.5-2.4-3.3-3-5.2c-0.6-2.1-0.9-4.3-0.9-7v-8.7c0-2.5,0.3-4.9,0.9-7
			c0.6-2.1,1.6-3.9,3-5.2c1.3-1.5,3.1-2.5,5.4-3.4c2.2-0.7,4.9-1.2,8.1-1.2H416c3.1,0,5.8,0.4,8.1,1.2c2.2,0.7,4,1.9,5.4,3.4
			c1.3,1.5,2.4,3.3,3,5.2c0.6,2.1,0.9,4.3,0.9,7V35.8z M391.9,34.7c0,1.5,0.1,2.7,0.4,3.6c0.3,0.9,0.7,1.6,1.3,2.1
			c0.6,0.4,1.5,0.7,2.5,1c1,0.1,2.2,0.3,3.9,0.3h15c1.3,0,2.4-0.1,3.1-0.4c0.9-0.3,1.5-0.7,1.9-1.3c0.4-0.6,0.7-1.5,0.9-2.5
			c0.1-1,0.3-2.4,0.3-4v-5.5c0-2.5-0.4-4.3-1.5-5.4c-0.9-0.9-2.5-1.5-4.9-1.5h-16.8c-1.3,0-2.4,0.1-3.1,0.4
			c-0.9,0.3-1.5,0.7-1.9,1.3c-0.4,0.6-0.7,1.5-0.9,2.5c-0.1,1-0.3,2.4-0.3,4V34.7z"/>
		<path class="st1" d="M477.1,34.4c0-0.6,0-1.3-0.1-1.9c0-0.7-0.1-1.3-0.1-1.8v-0.6h11.8v20.8c0,1-0.4,1.6-1.5,1.6h-31.9
			c-3.1,0-5.8-0.4-8.1-1.2c-2.2-0.7-4-1.9-5.4-3.4c-1.3-1.5-2.4-3.3-3-5.2c-0.6-2.1-0.9-4.3-0.9-7v-8.7c0-2.5,0.3-4.9,0.9-7
			c0.6-2.1,1.6-3.9,3-5.2c1.3-1.5,3.1-2.5,5.4-3.4c2.2-0.7,4.9-1.2,8.1-1.2H487c1.2,0,1.6,0.6,1.6,1.8v9.1l-11.1,4h-0.4v-4
			c0-0.4-0.1-0.6-0.6-0.6h-20.4c-1.2,0-2.1,0.1-3,0.3c-0.7,0.1-1.5,0.6-1.9,1c-0.4,0.6-0.9,1.2-1,2.1c-0.3,0.9-0.3,1.9-0.3,3.3v7.5
			c0,2.5,0.4,4.3,1.5,5.4c0.9,1,2.5,1.5,4.9,1.5h20.1c0.4,0,0.6-0.3,0.6-0.7v-6.3H477.1z"/>
		<path class="st1" d="M494,52.6V10.1h12v42.6h-12V52.6z"/>
		<path class="st1" d="M542.9,62.2l-12.7-19.8h-0.4v10h-1.5c-3.1,0-5.8-0.4-8.1-1.2c-2.2-0.7-4-1.9-5.4-3.4c-1.3-1.5-2.4-3.3-3-5.2
			c-0.6-2.1-0.9-4.3-0.9-7v-8.7c0-2.5,0.3-4.9,0.9-7s1.6-3.9,3-5.2c1.3-1.5,3.1-2.5,5.4-3.4c2.2-0.7,4.9-1.2,8.1-1.2h18.9
			c3.1,0,5.8,0.4,8.1,1.2c2.2,0.7,4,1.9,5.4,3.4c1.3,1.5,2.4,3.3,3,5.2c0.6,2.1,0.9,4.3,0.9,7v8.7c0,2.5-0.3,4.8-0.9,6.7
			c-0.6,1.8-1.6,3.3-2.8,4.5c-1.3,1.2-3,2.1-4.9,2.7c-1.9,0.6-4.3,1-7,1v0.7l7.3,10.5v0.4H542.9z M523,34.7c0,1.5,0.1,2.7,0.4,3.6
			c0.3,0.9,0.7,1.6,1.3,2.1c0.6,0.4,1.5,0.7,2.5,1c1,0.1,2.2,0.3,3.9,0.3h15c1.3,0,2.4-0.1,3.1-0.4c0.9-0.3,1.5-0.7,1.9-1.3
			s0.7-1.5,0.9-2.5c0.1-1,0.3-2.4,0.3-4v-5.5c0-2.5-0.4-4.3-1.5-5.4c-0.9-0.9-2.5-1.5-4.9-1.5h-16.8c-1.3,0-2.4,0.1-3.1,0.4
			c-0.9,0.3-1.5,0.7-1.9,1.3c-0.4,0.6-0.7,1.5-0.9,2.5c-0.1,1-0.3,2.4-0.3,4V34.7z"/>
	</g>
</g>
</svg>
