<?xml version="1.0" encoding="utf-8"?>
<!-- Generator: Adobe Illustrator 22.1.0, SVG Export Plug-In . SVG Version: 6.00 Build 0)  -->
<svg version="1.1" id="Layer_1" xmlns="http://www.w3.org/2000/svg" xmlns:xlink="http://www.w3.org/1999/xlink" x="0px" y="0px"
	 width="180px" height="70px" viewBox="0 0 180 70" style="enable-background:new 0 0 180 70;" xml:space="preserve">
<style type="text/css">
	.st0{fill:none;}
	.st1{fill:#46a0c3;}
</style>
<rect class="st0" width="180" height="70"/>
<g>
	<path class="st1" d="M12.2,30.1V12.4H5.6V10h15.9v2.4h-6.6v17.7H12.2z"/>
	<path class="st1" d="M22.9,30.1V15.6h2.2v2.2c0.6-1,1.1-1.7,1.6-2c0.5-0.3,1-0.5,1.6-0.5c0.8,0,1.7,0.3,2.5,0.8L30,18.3
		c-0.6-0.4-1.2-0.5-1.8-0.5c-0.5,0-1,0.2-1.5,0.5c-0.4,0.3-0.7,0.8-0.9,1.4c-0.3,0.9-0.4,1.8-0.4,2.9v7.6H22.9z"/>
	<path class="st1" d="M41.8,28.3c-0.9,0.8-1.8,1.3-2.6,1.6c-0.8,0.3-1.8,0.5-2.7,0.5c-1.6,0-2.8-0.4-3.7-1.2c-0.9-0.8-1.3-1.8-1.3-3
		c0-0.7,0.2-1.4,0.5-2c0.3-0.6,0.7-1.1,1.3-1.4c0.5-0.4,1.1-0.6,1.8-0.8c0.5-0.1,1.2-0.3,2.2-0.4c2-0.2,3.5-0.5,4.4-0.8
		c0-0.3,0-0.6,0-0.6c0-1-0.2-1.7-0.7-2.1c-0.6-0.6-1.6-0.8-2.8-0.8c-1.2,0-2,0.2-2.6,0.6c-0.6,0.4-1,1.1-1.2,2.2l-2.4-0.3
		c0.2-1,0.6-1.9,1.1-2.5c0.5-0.6,1.2-1.1,2.2-1.5c1-0.3,2.1-0.5,3.3-0.5c1.2,0,2.3,0.1,3,0.4c0.8,0.3,1.3,0.7,1.7,1.1
		c0.4,0.4,0.6,1,0.8,1.7c0.1,0.4,0.1,1.2,0.1,2.3V24c0,2.3,0.1,3.7,0.2,4.4c0.1,0.6,0.3,1.2,0.6,1.7h-2.6C42,29.6,41.8,29,41.8,28.3
		z M41.6,22.8c-0.9,0.4-2.2,0.7-4,0.9c-1,0.1-1.7,0.3-2.2,0.5c-0.4,0.2-0.7,0.5-1,0.8c-0.2,0.4-0.3,0.7-0.3,1.2
		c0,0.7,0.2,1.2,0.7,1.6c0.5,0.4,1.2,0.7,2.2,0.7c1,0,1.8-0.2,2.5-0.6c0.7-0.4,1.3-1,1.6-1.7c0.3-0.6,0.4-1.4,0.4-2.5V22.8z"/>
	<path class="st1" d="M47.9,30.1V15.6h2.2v2.1c1.1-1.6,2.6-2.4,4.6-2.4c0.9,0,1.7,0.2,2.4,0.5c0.7,0.3,1.3,0.7,1.7,1.2
		c0.4,0.5,0.6,1.1,0.8,1.8c0.1,0.5,0.1,1.3,0.1,2.4v9h-2.5v-8.9c0-1-0.1-1.8-0.3-2.3c-0.2-0.5-0.5-0.9-1-1.2
		c-0.5-0.3-1.1-0.4-1.7-0.4c-1.1,0-2,0.3-2.7,1c-0.8,0.7-1.1,1.9-1.1,3.8v8H47.9z"/>
	<path class="st1" d="M62.5,25.8l2.4-0.4c0.1,1,0.5,1.7,1.1,2.2c0.6,0.5,1.5,0.8,2.6,0.8c1.1,0,2-0.2,2.5-0.7c0.5-0.5,0.8-1,0.8-1.6
		c0-0.6-0.2-1-0.7-1.3c-0.3-0.2-1.2-0.5-2.5-0.8c-1.8-0.5-3.1-0.9-3.8-1.2c-0.7-0.3-1.2-0.8-1.6-1.4s-0.5-1.2-0.5-2
		c0-0.6,0.1-1.2,0.4-1.8c0.3-0.6,0.7-1,1.2-1.4c0.4-0.3,0.9-0.5,1.6-0.7c0.7-0.2,1.4-0.3,2.1-0.3c1.1,0,2.1,0.2,3,0.5
		c0.9,0.3,1.5,0.8,1.9,1.3c0.4,0.6,0.7,1.3,0.8,2.3l-2.4,0.3c-0.1-0.7-0.4-1.3-1-1.8c-0.5-0.4-1.3-0.6-2.2-0.6
		c-1.1,0-1.9,0.2-2.4,0.6c-0.5,0.4-0.7,0.8-0.7,1.3c0,0.3,0.1,0.6,0.3,0.9c0.2,0.3,0.5,0.5,0.9,0.7c0.2,0.1,1,0.3,2.2,0.6
		c1.7,0.5,3,0.8,3.7,1.1c0.7,0.3,1.2,0.7,1.6,1.3c0.4,0.6,0.6,1.3,0.6,2.1c0,0.8-0.2,1.6-0.7,2.3s-1.2,1.3-2.1,1.7s-1.9,0.6-3.1,0.6
		c-1.9,0-3.3-0.4-4.3-1.2C63.4,28.5,62.8,27.3,62.5,25.8z"/>
	<path class="st1" d="M78.1,30.1V17.5h-2.2v-1.9h2.2V14c0-1,0.1-1.7,0.3-2.2c0.2-0.6,0.7-1.2,1.3-1.6c0.6-0.4,1.4-0.6,2.5-0.6
		c0.7,0,1.5,0.1,2.3,0.2l-0.4,2.2c-0.5-0.1-1-0.1-1.5-0.1c-0.7,0-1.3,0.2-1.6,0.5c-0.3,0.3-0.5,0.9-0.5,1.8v1.3h2.8v1.9h-2.8v12.6
		H78.1z"/>
	<path class="st1" d="M95.3,25.4l2.5,0.3c-0.4,1.5-1.1,2.6-2.2,3.5s-2.5,1.2-4.2,1.2c-2.1,0-3.8-0.7-5.1-2c-1.2-1.3-1.9-3.2-1.9-5.5
		c0-2.4,0.6-4.4,1.9-5.7c1.3-1.4,2.9-2,4.9-2c1.9,0,3.5,0.7,4.8,2c1.2,1.3,1.9,3.2,1.9,5.6c0,0.1,0,0.4,0,0.7H87.1
		c0.1,1.6,0.5,2.8,1.4,3.7c0.8,0.8,1.8,1.3,3,1.3c0.9,0,1.7-0.2,2.3-0.7C94.4,27.2,94.9,26.5,95.3,25.4z M87.2,21.4h8.1
		c-0.1-1.2-0.4-2.1-0.9-2.8c-0.8-1-1.8-1.4-3.1-1.4c-1.1,0-2.1,0.4-2.9,1.1C87.7,19.2,87.3,20.2,87.2,21.4z"/>
	<path class="st1" d="M100.9,30.1V15.6h2.2v2.2c0.6-1,1.1-1.7,1.6-2c0.5-0.3,1-0.5,1.6-0.5c0.8,0,1.7,0.3,2.5,0.8l-0.8,2.3
		c-0.6-0.4-1.2-0.5-1.8-0.5c-0.5,0-1,0.2-1.5,0.5c-0.4,0.3-0.7,0.8-0.9,1.4c-0.3,0.9-0.4,1.8-0.4,2.9v7.6H100.9z"/>
	<path class="st1" d="M120.3,25.4l2.5,0.3c-0.4,1.5-1.1,2.6-2.2,3.5s-2.5,1.2-4.2,1.2c-2.1,0-3.8-0.7-5.1-2
		c-1.2-1.3-1.9-3.2-1.9-5.5c0-2.4,0.6-4.4,1.9-5.7c1.3-1.4,2.9-2,4.9-2c1.9,0,3.5,0.7,4.8,2c1.2,1.3,1.9,3.2,1.9,5.6
		c0,0.1,0,0.4,0,0.7H112c0.1,1.6,0.5,2.8,1.4,3.7c0.8,0.8,1.8,1.3,3,1.3c0.9,0,1.7-0.2,2.3-0.7C119.4,27.2,119.9,26.5,120.3,25.4z
		 M112.2,21.4h8.1c-0.1-1.2-0.4-2.1-0.9-2.8c-0.8-1-1.8-1.4-3.1-1.4c-1.1,0-2.1,0.4-2.9,1.1C112.7,19.2,112.2,20.2,112.2,21.4z"/>
	<path class="st1" d="M125.9,30.1V15.6h2.2v2.1c1.1-1.6,2.6-2.4,4.6-2.4c0.9,0,1.7,0.2,2.4,0.5c0.7,0.3,1.3,0.7,1.7,1.2
		c0.4,0.5,0.6,1.1,0.8,1.8c0.1,0.5,0.1,1.3,0.1,2.4v9h-2.5v-8.9c0-1-0.1-1.8-0.3-2.3c-0.2-0.5-0.5-0.9-1-1.2
		c-0.5-0.3-1.1-0.4-1.7-0.4c-1.1,0-2,0.3-2.7,1c-0.8,0.7-1.1,1.9-1.1,3.8v8H125.9z"/>
	<path class="st1" d="M151,24.8l2.4,0.3c-0.3,1.7-0.9,3-2,3.9c-1.1,0.9-2.4,1.4-4,1.4c-2,0-3.6-0.7-4.8-2c-1.2-1.3-1.8-3.2-1.8-5.6
		c0-1.6,0.3-2.9,0.8-4.1c0.5-1.2,1.3-2.1,2.4-2.7c1.1-0.6,2.2-0.9,3.5-0.9c1.6,0,2.9,0.4,3.9,1.2c1,0.8,1.6,1.9,1.9,3.4l-2.4,0.4
		c-0.2-1-0.6-1.7-1.2-2.2c-0.6-0.5-1.3-0.7-2.1-0.7c-1.2,0-2.3,0.4-3,1.3c-0.8,0.9-1.2,2.3-1.2,4.2c0,2,0.4,3.4,1.1,4.3
		c0.7,0.9,1.7,1.3,2.9,1.3c1,0,1.8-0.3,2.4-0.9C150.4,26.9,150.9,26,151,24.8z"/>
	<path class="st1" d="M155.6,12.9V10h2.5v2.8H155.6z M155.6,30.1V15.6h2.5v14.6H155.6z"/>
	<path class="st1" d="M171.3,28.3c-0.9,0.8-1.8,1.3-2.6,1.6c-0.8,0.3-1.8,0.5-2.7,0.5c-1.6,0-2.8-0.4-3.7-1.2
		c-0.9-0.8-1.3-1.8-1.3-3c0-0.7,0.2-1.4,0.5-2c0.3-0.6,0.7-1.1,1.3-1.4c0.5-0.4,1.1-0.6,1.8-0.8c0.5-0.1,1.2-0.3,2.2-0.4
		c2-0.2,3.5-0.5,4.4-0.8c0-0.3,0-0.6,0-0.6c0-1-0.2-1.7-0.7-2.1c-0.6-0.6-1.6-0.8-2.8-0.8c-1.2,0-2,0.2-2.6,0.6
		c-0.6,0.4-1,1.1-1.2,2.2l-2.4-0.3c0.2-1,0.6-1.9,1.1-2.5c0.5-0.6,1.2-1.1,2.2-1.5c1-0.3,2.1-0.5,3.3-0.5c1.2,0,2.3,0.1,3,0.4
		c0.8,0.3,1.3,0.7,1.7,1.1c0.4,0.4,0.6,1,0.8,1.7c0.1,0.4,0.1,1.2,0.1,2.3V24c0,2.3,0.1,3.7,0.2,4.4c0.1,0.6,0.3,1.2,0.6,1.7h-2.6
		C171.5,29.6,171.4,29,171.3,28.3z M171.1,22.8c-0.9,0.4-2.2,0.7-4,0.9c-1,0.1-1.7,0.3-2.2,0.5c-0.4,0.2-0.7,0.5-1,0.8
		c-0.2,0.4-0.3,0.7-0.3,1.2c0,0.7,0.2,1.2,0.7,1.6c0.5,0.4,1.2,0.7,2.2,0.7c1,0,1.8-0.2,2.5-0.6c0.7-0.4,1.3-1,1.6-1.7
		c0.3-0.6,0.4-1.4,0.4-2.5V22.8z"/>
	<path class="st1" d="M23.8,59.9l4.8-23h7.8c1.7,0,2.9,0.1,3.6,0.2c1.1,0.2,2.1,0.5,2.9,0.9c0.8,0.5,1.4,1.1,1.8,1.9
		c0.4,0.8,0.6,1.6,0.6,2.6c0,1.3-0.4,2.4-1.1,3.3c-0.7,0.9-1.8,1.6-3.3,2.1c1.2,0.3,2.1,0.9,2.8,1.7c0.7,0.8,1,1.8,1,2.8
		c0,1.4-0.4,2.7-1.2,3.9c-0.8,1.2-1.9,2.1-3.2,2.7c-1.4,0.5-3.3,0.8-5.7,0.8H23.8z M29.3,56.2h4.6c1.9,0,3.2-0.1,3.8-0.4
		c0.7-0.2,1.2-0.6,1.6-1.2c0.4-0.6,0.6-1.2,0.6-1.8c0-0.8-0.3-1.4-0.8-1.9c-0.6-0.5-1.5-0.7-2.8-0.7h-5.6L29.3,56.2z M31.4,46.2H35
		c1.6,0,2.8-0.1,3.5-0.3c0.7-0.2,1.2-0.6,1.6-1.1c0.4-0.5,0.5-1.1,0.5-1.7c0-0.6-0.2-1.1-0.5-1.4c-0.3-0.4-0.8-0.6-1.4-0.8
		c-0.3-0.1-1.2-0.1-2.5-0.1h-3.7L31.4,46.2z"/>
	<path class="st1" d="M53.3,48l-4.4-0.4c0.5-1.5,1.4-2.6,2.6-3.5s2.9-1.3,5-1.3c2.1,0,3.7,0.4,4.7,1.3c1,0.9,1.5,1.9,1.5,3.2
		c0,0.5,0,1-0.1,1.6c-0.1,0.6-0.4,2-0.9,4.4c-0.4,2-0.7,3.4-0.7,4.2c0,0.7,0.1,1.5,0.4,2.4h-4.4c-0.2-0.6-0.3-1.2-0.3-1.9
		c-0.7,0.7-1.4,1.3-2.3,1.7c-0.9,0.4-1.7,0.6-2.6,0.6c-1.4,0-2.5-0.5-3.4-1.4c-0.9-0.9-1.3-2.1-1.3-3.5c0-1.6,0.5-2.9,1.5-3.8
		c1-0.9,2.7-1.5,5.3-1.7c2.1-0.2,3.6-0.4,4.3-0.6c0.2-0.6,0.3-1.1,0.3-1.5c0-0.5-0.2-0.9-0.6-1.2c-0.4-0.3-1-0.5-1.7-0.5
		c-0.8,0-1.4,0.2-1.9,0.5C53.8,46.9,53.5,47.4,53.3,48z M57.6,52.2c-0.3,0.1-0.6,0.1-1.1,0.2c-2.3,0.3-3.7,0.7-4.4,1.2
		c-0.5,0.4-0.7,0.9-0.7,1.5c0,0.5,0.2,1,0.6,1.3c0.4,0.4,0.9,0.5,1.5,0.5c0.7,0,1.3-0.2,1.9-0.5c0.6-0.3,1-0.8,1.3-1.3
		c0.3-0.5,0.6-1.3,0.8-2.4L57.6,52.2z"/>
	<path class="st1" d="M68.3,43.3h4.3l-0.4,2.2c1.1-0.9,2.1-1.6,3-2c0.9-0.4,1.9-0.6,2.9-0.6c1.4,0,2.4,0.4,3.2,1.2
		c0.8,0.8,1.2,1.8,1.2,3.1c0,0.6-0.2,1.7-0.5,3.3l-2,9.4h-4.5l2-9.4c0.3-1.4,0.4-2.2,0.4-2.5c0-0.6-0.2-1-0.5-1.4
		c-0.3-0.3-0.8-0.5-1.4-0.5c-0.7,0-1.4,0.3-2.2,0.8c-0.8,0.6-1.4,1.3-1.9,2.2c-0.3,0.6-0.7,2-1.1,4l-1.4,6.8h-4.5L68.3,43.3z"/>
	<path class="st1" d="M95.7,53.7l4.4,0.7c-0.7,1.9-1.8,3.4-3.2,4.4c-1.4,1-3,1.5-4.9,1.5c-2.1,0-3.8-0.6-5-1.9
		c-1.2-1.3-1.9-3-1.9-5.2c0-1.8,0.4-3.5,1.1-5.1c0.8-1.6,1.9-2.9,3.4-3.8c1.5-0.9,3.2-1.4,5-1.4c2,0,3.5,0.5,4.7,1.5
		c1.2,1,1.8,2.4,2,4l-4.3,0.5c-0.1-0.9-0.4-1.6-0.9-2.1c-0.5-0.4-1.1-0.7-1.8-0.7c-0.9,0-1.7,0.3-2.4,1s-1.3,1.6-1.7,2.9
		c-0.4,1.3-0.6,2.5-0.6,3.6c0,1,0.2,1.7,0.7,2.3c0.5,0.5,1.1,0.8,1.8,0.8c0.7,0,1.4-0.3,2.1-0.8C94.8,55.5,95.3,54.7,95.7,53.7z"/>
	<path class="st1" d="M108.6,48l-4.4-0.4c0.5-1.5,1.4-2.6,2.6-3.5s2.9-1.3,5-1.3c2.1,0,3.7,0.4,4.7,1.3c1,0.9,1.5,1.9,1.5,3.2
		c0,0.5,0,1-0.1,1.6c-0.1,0.6-0.4,2-0.9,4.4c-0.4,2-0.7,3.4-0.7,4.2c0,0.7,0.1,1.5,0.4,2.4h-4.4c-0.2-0.6-0.3-1.2-0.3-1.9
		c-0.7,0.7-1.4,1.3-2.3,1.7c-0.9,0.4-1.7,0.6-2.6,0.6c-1.4,0-2.5-0.5-3.4-1.4c-0.9-0.9-1.3-2.1-1.3-3.5c0-1.6,0.5-2.9,1.5-3.8
		c1-0.9,2.7-1.5,5.3-1.7c2.1-0.2,3.6-0.4,4.3-0.6c0.2-0.6,0.3-1.1,0.3-1.5c0-0.5-0.2-0.9-0.6-1.2c-0.4-0.3-1-0.5-1.7-0.5
		c-0.8,0-1.4,0.2-1.9,0.5C109.1,46.9,108.7,47.4,108.6,48z M112.8,52.2c-0.3,0.1-0.6,0.1-1.1,0.2c-2.3,0.3-3.7,0.7-4.4,1.2
		c-0.5,0.4-0.7,0.9-0.7,1.5c0,0.5,0.2,1,0.6,1.3c0.4,0.4,0.9,0.5,1.5,0.5c0.7,0,1.3-0.2,1.9-0.5c0.6-0.3,1-0.8,1.3-1.3
		c0.3-0.5,0.6-1.3,0.8-2.4L112.8,52.2z"/>
	<path class="st1" d="M123.3,43.3h4.2l-0.7,3.2c1.6-2.4,3.3-3.6,5.1-3.6c0.6,0,1.3,0.2,2.1,0.5l-1.7,3.7c-0.4-0.1-0.8-0.2-1.3-0.2
		c-0.8,0-1.6,0.3-2.4,0.9c-0.8,0.6-1.4,1.4-1.9,2.3c-0.4,1-0.9,2.5-1.3,4.6l-1.1,5.2h-4.5L123.3,43.3z"/>
	<path class="st1" d="M136,43.3h4.5L137,59.9h-4.5L136,43.3z M137.3,37h4.5L141,41h-4.5L137.3,37z"/>
	<path class="st1" d="M147.8,48l-4.4-0.4c0.5-1.5,1.4-2.6,2.6-3.5c1.2-0.8,2.9-1.3,5-1.3c2.1,0,3.7,0.4,4.7,1.3
		c1,0.9,1.5,1.9,1.5,3.2c0,0.5,0,1-0.1,1.6c-0.1,0.6-0.4,2-0.9,4.4c-0.4,2-0.7,3.4-0.7,4.2c0,0.7,0.1,1.5,0.4,2.4h-4.4
		c-0.2-0.6-0.3-1.2-0.3-1.9c-0.7,0.7-1.4,1.3-2.3,1.7c-0.9,0.4-1.7,0.6-2.6,0.6c-1.4,0-2.5-0.5-3.4-1.4c-0.9-0.9-1.3-2.1-1.3-3.5
		c0-1.6,0.5-2.9,1.5-3.8c1-0.9,2.7-1.5,5.3-1.7c2.1-0.2,3.6-0.4,4.3-0.6c0.2-0.6,0.3-1.1,0.3-1.5c0-0.5-0.2-0.9-0.6-1.2
		c-0.4-0.3-1-0.5-1.7-0.5c-0.8,0-1.4,0.2-1.9,0.5C148.3,46.9,148,47.4,147.8,48z M152.1,52.2c-0.3,0.1-0.6,0.1-1.1,0.2
		c-2.3,0.3-3.7,0.7-4.4,1.2c-0.5,0.4-0.7,0.9-0.7,1.5c0,0.5,0.2,1,0.6,1.3c0.4,0.4,0.9,0.5,1.5,0.5c0.7,0,1.3-0.2,1.9-0.5
		c0.6-0.3,1-0.8,1.3-1.3c0.3-0.5,0.6-1.3,0.8-2.4L152.1,52.2z"/>
</g>
</svg>
